<?xml version="1.0" encoding="utf-8"?>
<!-- Generator: Adobe Illustrator 19.2.1, SVG Export Plug-In . SVG Version: 6.00 Build 0)  -->
<svg version="1.1" id="圖層_1" xmlns="http://www.w3.org/2000/svg" xmlns:xlink="http://www.w3.org/1999/xlink" x="0px" y="0px"
	 viewBox="0 0 89.1 327.8" style="enable-background:new 0 0 89.1 327.8;" xml:space="preserve">
<style type="text/css">
	.st0{fill:#242E5F;}
</style>
<path class="st0" d="M30.3,327.8c-2.5,0-4.5-2-4.5-4.5c0-2.5,2-4.5,4.5-4.5c2.5,0,4.5,2,4.5,4.5c0,1.2-0.4,2.4-1.3,3.2
	c-0.8,0.8-1.9,1.3-3.1,1.3L30.3,327.8z M30.3,320L30.3,320c-1.8,0-3.3,1.5-3.3,3.3c0,1.8,1.5,3.3,3.3,3.3c1.8,0,3.3-1.5,3.3-3.3
	c0,0,0,0,0,0c0-0.9-0.3-1.7-0.9-2.3C32,320.3,31.2,320,30.3,320L30.3,320z M25,308.4c-0.5-1.9-1.5-3-4.2-3.7c-0.2-0.1-0.2-0.4,0-0.4
	c1.7,0.1,3.5,0.1,5.2,0c1.2-0.1,1.9-0.6,2.2-2.8c0.4-2.8,0.8-7.4,0.7-17.4h-7.3c-1.6,2.5-3.5,4.8-5.7,6.8c-0.2,0.1-0.4-0.1-0.3-0.3
	c1.5-2.3,3.1-7.7,3.9-12.5c0.1-0.9,0.3-1.5,0.3-2.4c5.7,1.4,6,1.8,6,2.3c0,0.4-0.3,0.6-1.5,1c-0.7,1.5-1.4,3-2.3,4.4l6.4,0
	c1.8-2.2,1.9-2.2,2.3-2.2c0.4,0,0.6,0.1,2.6,1.7c1,0.9,1.2,1,1.2,1.4c0,0.4-0.1,0.5-1.2,1.3c0,10-0.2,15.8-0.9,18.8
	c-0.8,3.5-2.9,4.9-6.2,4.9C25.4,309.3,25.2,309.1,25,308.4L25,308.4z M2,305.4c0-1,0.3-7.6,0.3-12c0-5.5,0-8.1-0.1-10.9
	c1.6,0.4,2.7,0.8,3.4,1c0.2-1.8,0.3-3.2,0.4-5c0-0.6,0-1.1,0-2.2c4.9,1,5.6,1.2,5.6,1.8c0,0.4-0.3,0.8-1.4,1.1
	C9,281,8,282.5,6.8,284.1h3.9c1.5-1.8,1.6-1.9,1.9-1.9c0.4,0,0.5,0,1.9,1.3c1.5,1.3,1.6,1.4,1.6,1.8s-0.1,0.4-1.1,1.2v3.9
	c0,7.4,0.3,12.1,0.3,13c0,1.1-0.9,1.6-2.7,1.6c-1.3,0-1.6-0.2-1.6-1.4v-1.8H6.2v3.5c0,1.1-0.9,1.6-2.5,1.6
	C2.3,306.8,2,306.6,2,305.4L2,305.4z M6.2,301h4.8v-7.8H6.2V301z M6.2,285.4v7.1h4.8v-7.6l-4,0C6.8,285,6.6,285.1,6.2,285.4
	L6.2,285.4z M20.7,296c-0.1-2.8-0.5-4.6-2.1-6c-0.2-0.1,0-0.4,0.2-0.3c4.7,0.6,6.8,3.2,6.8,5.9c0,2-1.2,3.1-2.8,3.1
	C21.6,298.7,20.8,297.9,20.7,296z M3.6,264.8c0-1,0.3-7.6,0.3-15.5c0-5.4,0-7.8-0.2-9.7c3.9,0.8,5.1,1.3,5.4,1.7h5.9v-0.1
	c0-3.9,0-6.3-0.1-8.3c5.6,0.5,6.1,0.7,6.1,1.3c0,0.4-0.4,0.6-1.2,1.1v6h6.5c1.9-2.1,2.1-2.2,2.4-2.2s0.7,0.2,2.4,1.5
	c1.2,0.9,1.5,1.3,1.5,1.5s-0.2,0.6-1.1,1.2v6.5c0,7.7,0.2,13.1,0.2,14.1c0,1.1-1,1.8-3.1,1.8c-1.6,0-1.8-0.3-1.8-1.3v-1.7H8.2v1.7
	c0,1-0.9,1.7-3.1,1.7C3.8,266.1,3.6,265.9,3.6,264.8L3.6,264.8z M19.6,262h7v-10.3h-7V262z M8.2,262h6.7v-10.3H8.2V262z M8.2,242.4
	v8.5h6.7v-9H9C8.8,242.2,8.5,242.3,8.2,242.4L8.2,242.4z M19.6,251h7v-9h-7V251z M68,243.5v-36h1.2v36H68z M8.5,220.4
	c1.8,0.2,3.4,0.3,4.4,0.3h7.8v-6.6h-3.3c-1.2,0-2.4,0.1-3.6,0.3l-0.3-1.2c1.3,0.2,2.6,0.2,4,0.3h3.3v-6.6h-2.6v0.8
	c0,1.4-0.8,1.9-2.5,1.9c-1.3,0-1.7-0.2-1.7-1.3c0-0.6,0.2-4.7,0.2-11.1c0-3.5,0-4.8-0.2-6.9c3.4,0.8,4.5,1.1,4.8,1.4h8.5
	c1.6-1.7,1.7-1.8,2.1-1.8c0.4,0,0.6,0.1,2.4,1.5c1.4,1.2,1.5,1.3,1.5,1.6c0,0.3-0.1,0.5-1.2,1.3v4.2c0,4.3,0.2,7.9,0.2,8.7
	c0,1-0.8,1.7-3,1.7c-1.3,0-1.5-0.2-1.5-1.3v-0.7H25v6.6h2.4c2.1-2.7,2.3-2.9,2.7-2.9c0.3,0,0.6,0.2,2.2,1.7c1.3,1.2,1.4,1.4,1.4,1.7
	s-0.1,0.3-0.4,0.3H25v6.6h3.5c2.3-3,2.4-3,2.7-3s0.5,0.1,2.3,1.7c1.4,1.2,1.5,1.4,1.5,1.7c0,0.1,0,0.2-0.1,0.3
	c-0.1,0.1-0.2,0.1-0.3,0.1H13c-0.8,0-2.4,0.1-4.1,0.3L8.5,220.4z M25,206h2.8v-6.4H25V206z M18.1,206h2.6v-6.4h-2.6V206z M25,192.9
	v6h2.8v-6.7h-2.1C25.6,192.4,25.4,192.6,25,192.9L25,192.9z M18.1,192.7v6.2h2.6v-4.9c0-0.8,0-1.3-0.1-1.8h-1.9
	C18.6,192.4,18.4,192.5,18.1,192.7L18.1,192.7z M0.4,212.4c0.8,0,1.5,0,2.3-0.1l2.1-0.3v-8.9c-1.2,0-2.4,0.1-3.6,0.3l-0.3-1.2
	c1.3,0.2,2.6,0.2,3.9,0.3v-5.8c0-1.1,0-2.2-0.1-3.3c-1.3,0-2.5,0.1-3.7,0.3l-0.3-1.2c1.4,0.2,2.8,0.3,4.2,0.3h3.7
	c2-2.6,2.1-2.6,2.3-2.6s0.4,0.1,1.9,1.6c1,1,1.1,1.1,1.1,1.3c0,0.1,0,0.2-0.1,0.3c-0.1,0.1-0.2,0.1-0.3,0.1H9.8
	c0,0.3-0.3,0.6-0.8,0.8v8.3c1.7-2.3,1.7-2.4,2-2.4c0.3,0,0.4,0,1.5,1.3c1,1.2,1.1,1.3,1.1,1.5c0,0.2-0.1,0.3-0.4,0.3H9v8.3
	c1.9-0.3,3.8-0.6,5.6-1c0.2,0,0.4,0.3,0.2,0.4c-3.4,2.2-7,4.3-10.7,6.1c-0.1,1.3-0.5,1.5-0.8,1.5C2.7,218.5,2.3,218.1,0.4,212.4
	L0.4,212.4z M68,207.5v-36h1.2v36H68z M25.2,178.4c-1.6-1.4-3.3-2.5-5.1-3.5c-4.1,3.5-9.8,4.9-18.4,4.6c-0.2,0-0.3-0.4,0-0.4
	c6.4-0.5,11.6-2.4,15-5.9c-1.5-0.6-3.1-1.1-4.6-1.5l-1,1.4c-0.5,0.7-1.3,1.1-2.1,1c-1.6,0-3.1-0.3-3.1-1c0-0.3,0.2-0.6,0.4-0.8
	c1.6-2.1,3-4,4.2-5.8H5.6c-1.5,0-3,0.1-4.5,0.3l-0.3-1.2c1.6,0.2,3.2,0.3,4.8,0.3h5.4c0.9-1.3,1.6-2.7,2.3-4c0.3-0.5,0.5-1,0.7-1.5
	H8.7v0.1c0,1.5-0.9,2-2.8,2c-1.2,0-1.4-0.2-1.4-1.3c0-0.4,0.1-2.7,0.1-4.5c0-1.9,0-3.6-0.1-5c3.8,0.9,4.7,1.2,5,1.7h2.4v-3.9H6.9
	c-1.8,0-3.7,0.1-5.5,0.3l-0.3-1.2c1.9,0.2,3.9,0.3,5.8,0.3h20.8c2.5-3,2.6-3,2.9-3s0.5,0,2.2,1.6c1.4,1.3,1.5,1.4,1.5,1.7
	c0,0.1,0,0.2-0.1,0.3c-0.1,0.1-0.2,0.1-0.3,0.1H23.5c0,0.2-0.3,0.4-0.5,0.5v3.4h2.8c1.9-2,2-2.1,2.3-2.1c0.4,0,0.6,0.1,2.3,1.4
	c1.3,1,1.3,1.1,1.3,1.4c0,0.3-0.1,0.4-1,1.2v0.8c0,1.8,0.2,4,0.2,4.4c0,1-0.9,1.7-3,1.7c-1.5,0-1.7-0.3-1.7-1.3v-0.5H15
	c3.6,1,4.2,1.4,4.2,1.9c0,0.5-0.4,0.8-1.7,1.2c-0.5,0.8-1,1.6-1.5,2.4h11.5c2.5-3,2.7-3.2,3-3.2s0.6,0.1,2.4,1.8
	c1.4,1.3,1.5,1.5,1.5,1.7c0,0.3-0.1,0.4-0.4,0.4H23.8c2.3,0.5,2.7,0.8,2.7,1.2c0,0.4-0.3,0.6-1.6,1c-0.7,1.2-1.4,2.4-2.2,3.5
	c2,0.4,3.9,1.1,5.6,2.2c1.5,0.9,2.1,1.7,2.1,3c-0.1,1.2-1.1,2.2-2.3,2.2C26.9,179.6,25.9,179.2,25.2,178.4L25.2,178.4z M12.5,171.1
	c2.1,0.1,3.9,0.2,5.7,0.4c0.6-0.8,1.2-1.7,1.6-2.7c0.3-0.7,0.6-1.4,0.9-2.2h-5.1C14.5,168.1,13.5,169.6,12.5,171.1L12.5,171.1z
	 M23,159.7h3.2v-5.5H23V159.7z M15.8,159.7h3.2v-5.5h-3.2V159.7z M8.6,154.6v5h3.2v-5.5H9.3C9.1,154.3,8.9,154.5,8.6,154.6
	L8.6,154.6z M15.8,150v3.4h3.2v-3.9h-2.6C16.3,149.7,16,149.8,15.8,150L15.8,150z M71.8,161.7c0-0.6,0.2-4.4,0.2-9.9
	c0-1.9,0-3.7-0.1-5.6c3.1,0.9,4.1,1.3,4.5,1.6h0.5v-11.3c0.1-2.3,0-4.7-0.3-7c5.1,0.4,5.6,0.8,5.6,1.4c0,0.4-0.3,0.6-1.3,1.1v6.7
	h1.9c2.1-2.8,2.3-3,2.7-3c0.4,0,0.7,0.3,2.1,1.7c1.2,1.2,1.3,1.4,1.3,1.7c0,0.3-0.2,0.4-0.5,0.4H81v8.4h1.3c1.6-2.1,1.8-2.2,2.1-2.2
	c0.4,0,0.8,0.2,2.1,1.4c1.4,1.2,1.6,1.4,1.6,1.8s-0.2,0.5-1.1,1.3v3.6c0,2.7,0.2,5.9,0.2,7.3c0,1.1-1.3,1.7-2.9,1.7
	c-1.3,0-1.4-0.2-1.4-1.4v-1.2h-7v1.3c0,1.1-0.6,1.7-2.7,1.7C71.9,163.1,71.8,162.9,71.8,161.7L71.8,161.7z M75.9,148.9v10.4h7v-10.8
	h-6.5C76.2,148.7,76.1,148.8,75.9,148.9L75.9,148.9z M55.2,162.4c-0.4-0.3-0.6-0.8-0.6-1.3c0-0.5,0.3-1,1.2-1.9
	c1.1-1,1.7-2.5,1.7-4.1c0-0.2,0.3-0.2,0.4,0c0.9,1.4,1.3,3.1,1.3,4.7c0.1,1.5-1,2.9-2.6,3c-0.1,0-0.2,0-0.2,0
	C55.9,162.8,55.5,162.7,55.2,162.4L55.2,162.4z M59.9,160.5c0-0.5,0.1-0.9,0.1-1.7c0.3-1.3,0-2.7-0.7-3.9c-0.1-0.2,0.1-0.3,0.3-0.2
	c2.2,0.6,3.7,2.5,3.8,4.7c0,1.7-0.8,2.5-2.2,2.5C60.5,161.9,59.9,161.2,59.9,160.5L59.9,160.5z M64.2,159.3c0-1.9-0.8-3.8-2.3-5
	c-0.2-0.1,0.1-0.3,0.3-0.2c4,0.9,5.4,2.9,5.4,4.9l0,0c0.1,0.5-0.1,1.1-0.5,1.5c-0.3,0.4-0.9,0.6-1.4,0.6
	C64.7,161.1,64.2,160.3,64.2,159.3L64.2,159.3z M68.1,158.2c-0.1-2-1.4-3.7-3.2-4.5c-0.2-0.1-0.1-0.3,0.1-0.3
	c4.9,0.1,6.5,2.4,6.5,4.4h0c0,1.1-0.5,2.2-1.9,2.2C68.9,160.1,68.2,159.6,68.1,158.2L68.1,158.2z M54.6,151c0.8,0,1.6,0,2.3,0
	c1.7-0.1,3.1-0.2,4.5-0.3v-3h-1.6c-1.2,0-2.5,0.1-3.7,0.3l-0.4-1.3c1.3,0.2,2.7,0.3,4,0.3h1.6v-4.2h-2.6v0.9c0,1-0.6,1.3-1.9,1.3
	c-1.2,0-1.3-0.1-1.3-1c0-0.7,0.2-4,0.2-8.9c0-3,0-4.1-0.1-5.3c2.5,0.8,3.4,1.2,3.7,1.5h7.7c1.2-1.7,1.3-1.7,1.6-1.7
	c0.2,0,0.4,0,1.8,1.2c1.1,0.9,1.3,1.1,1.3,1.4c0,0.3-0.1,0.4-1,1.1v3.1c0,2.7,0.2,5.4,0.2,6.3c0,1.2-0.6,1.6-2.5,1.6
	c-0.8,0-0.9-0.3-0.9-1.2v-0.4h-2.7v4.2h1.2c1.8-2.2,2-2.4,2.3-2.4c0.3,0,0.4,0,1.8,1.3c1,0.9,1.1,1.2,1.1,1.4s-0.1,0.4-0.4,0.4h-6
	v2.7c2.1-0.2,4.1-0.5,6.3-0.8c0.1,0,0.2,0,0.2,0.1c0,0.1,0,0.2-0.1,0.2c-4.5,2-9.2,3.7-14,5c-0.2,0.8-0.5,1-0.8,1
	C55.9,155.9,55.6,155.3,54.6,151L54.6,151z M67.1,136.4c-0.7,1.1-1.5,2.2-2.6,3.9v1.8h3v-5.9C67.5,136.2,67.3,136.3,67.1,136.4
	L67.1,136.4z M58.9,142.1h2.9V139c-0.1,0.7-0.7,1.3-1.4,1.3c-0.6,0-1-0.5-1-1.2c0-0.5,0.1-1,0.2-1.8c0.1-0.8-0.1-1.6-0.6-2.3V142.1z
	 M64.6,132.7v6.5c0.3-1.2,0.5-2.7,0.7-3.6c0.1-0.6,0.1-1,0.2-1.7c0.7,0.3,1.5,0.7,2.1,1.2v-3h-2.5C65.1,132.3,64.9,132.4,64.6,132.7
	L64.6,132.7z M58.9,132.5v1.9c1.5,0.4,2.6,1.6,2.9,3.1v-3.9c0-0.5,0-1,0-1.6h-2.3C59.3,132.2,59.1,132.4,58.9,132.5L58.9,132.5z
	 M25.3,135.6c-0.3-1.1-1.1-1.9-2.1-2.2v0.8c0,0.9-0.7,1.3-3.2,1.3c-0.9,0-1-0.3-1-1.2c0-0.4,0.1-4.3,0.1-7.5c0-1,0-1.7,0-2.4h-2.4
	c-0.1,0.1-0.2,0.3-0.4,0.4v2c0,3.2,0.1,6.9,0.1,7.4c0,0.9-0.7,1.3-3,1.3c-1.1,0-1.3-0.3-1.3-1.2c0-0.4,0.1-4.2,0.1-7.6
	c0-1,0-1.7,0-2.3H9.9c-0.2,0.2-0.4,0.4-0.6,0.5v1.4c0,4.7,0,8,0,8.6c0,1-0.7,1.5-2.8,1.5c-1.2,0-1.4-0.3-1.4-1.1
	c0-0.8,0.2-4.8,0.2-8.2c0-1.7,0-2.8-0.1-4.6c3.4,0.6,4.5,0.9,4.8,1.2h4c0.3-1.2,0.5-2.2,0.7-3.3H5.8c-1.4,0-2.9,0.1-4.3,0.3
	l-0.4-1.2c1.9,0.2,3.5,0.3,4.6,0.3h22.5c2.2-2.6,2.4-2.8,2.8-2.8c0.3,0,0.6,0.2,2,1.5c1.3,1.2,1.4,1.4,1.4,1.7
	c0,0.2-0.1,0.3-0.4,0.3H20.4c0,0.4-0.2,0.5-1.1,0.7c-1.4,1.1-2.2,1.8-3.3,2.6h9.6c1.8-1.9,1.9-2,2.3-2c0.4,0,0.6,0,2.7,1.5
	c0.7,0.5,0.9,0.7,0.9,1c0,0.3-0.1,0.4-1,1.3v2c0,3.2,0.1,4.8,0.1,5.3c0.1,1.4-0.7,2.8-2.1,3.3c-0.7,0.3-1.5,0.4-2.2,0.4
	C25.7,136.5,25.5,136.2,25.3,135.6L25.3,135.6z M23.1,124.8l0,2c0,2.2,0,4.7,0.1,6.2c0.8,0,1.5,0,2.3-0.1c0.3,0,0.5-0.3,0.5-0.6
	v-7.8h-2.5C23.5,124.6,23.3,124.6,23.1,124.8L23.1,124.8z M71.9,118.4c0-1,0.3-5.5,0.3-17.1v-3.5h-1.7c0.5,0.6,0.6,0.8,0.6,1
	c0,0.3-0.2,0.4-0.7,0.4h-5.7v7.2h0.2c1.7-2.1,1.8-2.2,2.1-2.2c0.4,0,0.6,0.1,2.2,1.5c1.1,1,1.3,1.3,1.3,1.6s-0.1,0.4-1.1,1.3v1.9
	c0,2.7,0.2,5,0.2,6c0,1.1-1.3,1.8-2.6,1.8c-1.3,0-1.7-0.3-1.7-1.5V116h-5.3v1.7c0,1.1-0.9,1.7-2.6,1.7c-1.3,0-1.5-0.2-1.5-1.4
	c0-0.6,0.2-4,0.2-7.6c0-2.3,0-3.7-0.1-5.5c2.8,0.7,4,1.1,4.4,1.5h0.2v-7.2h-2.1c-1.2,0-2.4,0.1-3.6,0.3l-0.3-1.2
	c1.3,0.2,2.6,0.2,4,0.3h2V96c0-1.6,0-2.6,0-3.5c-2.1,0.2-4.1,0.3-6.2,0.3c-0.2,0-0.3-0.4-0.1-0.4c3.9-1,7.7-2.4,11.2-4.4
	c0.4-0.2,0.8-0.5,1.1-0.8c3.9,2.8,4.3,3.3,4.3,4c0,0.6-0.5,0.6-2.3,0.5c-1,0.1-2.1,0.3-3.1,0.4c0,0.1,0,0.1,0,0.2
	c0,0.4-0.2,0.5-0.8,0.8v5.5h1.2c1.9-2.8,2.1-2.9,2.3-2.9c0.3,0,0.4,0.1,1.7,1.4h2.3c0.1-3.4,0-6.9-0.3-10.3c4.5,0.6,5.6,1,5.6,1.5
	c0,0.5-0.3,0.8-1.2,1.3v7.5h4c0.1-3.4,0-6.9-0.3-10.3c4.4,0.5,5.9,1,5.9,1.4s-0.3,0.8-1.3,1.2v7.6c1.5-2.8,1.7-3,1.9-3
	s0.4,0.1,1.3,1.4c1.1,1.5,1.2,1.6,1.2,1.9s-0.2,0.5-0.6,0.5h-3.8v3.2c0,11.7,0.2,15,0.2,16.8c0,1-0.7,1.7-2.8,1.7
	c-1.4,0-1.7-0.2-1.7-1.4V116h-4v2c0,1.2-1.1,1.7-2.8,1.7C72.1,119.7,71.8,119.3,71.9,118.4L71.9,118.4z M76.3,115.3h4v-9.3h-4V115.3
	z M60.1,107.5v7.7h5.3v-8.1h-4.9C60.4,107.3,60.3,107.4,60.1,107.5L60.1,107.5z M76.3,105.3h4v-7.5h-4V105.3z M15.1,117.7
	c0-0.7,0.2-4.1,0.2-8.2H6.2c0.1,0.3,0.1,0.7,0.1,1c0,2-0.9,4.1-3,4.1c-0.6,0.1-1.2-0.1-1.6-0.5c-0.4-0.4-0.7-1-0.7-1.6
	c0-0.9,0.4-1.7,1.2-2.2c1.5-1.1,2.3-2.1,2.3-3.7c0-0.2,0.2-0.2,0.4,0c0.5,0.6,0.9,1.4,1.2,2.2h9.3c0-1,0-2-0.1-3H9.7
	c-1.3,0-2.6,0.1-3.9,0.3l-0.4-1.2c1.9,0.2,3.2,0.3,4.3,0.3H25c2-2.5,2.2-2.6,2.5-2.6c0.3,0,0.4,0,2,1.4c1.4,1.2,1.4,1.4,1.4,1.6
	c0,0.2-0.1,0.3-0.4,0.3h-10c0,0.3-0.2,0.4-0.7,0.6v2.3h8.1c1.8-2.1,2.1-2.2,2.4-2.2c0.3,0,0.7,0.1,2.8,1.9c1.4,1.2,1.7,1.6,1.7,2.2
	c0,0.4-0.4,0.7-1.4,0.8c-0.6,0-1.2,0.2-1.7,0.5c-0.7,0.4-1.5,0.8-3.3,1.8c-0.2,0.1-0.3,0-0.3-0.2c0.4-1.3,0.7-2.6,0.9-4h-9.1v0.3
	c0,3.7,0.2,7.1,0.2,7.7c0,0.9-0.7,1.3-3,1.3C15.5,118.8,15.1,118.5,15.1,117.7L15.1,117.7z M20.6,115.8c1.1,0.1,2.1,0.2,3.2,0.2H26
	c1.5-1.8,1.6-1.9,1.9-1.9c0.1,0,0.4,0.1,1.7,1.2c0.8,0.7,0.9,0.9,0.9,1.1c0,0.3-0.1,0.4-0.3,0.4h-6.4c-0.7,0-1.8,0-2.9,0.1
	L20.6,115.8z M4.9,115.8c1,0.1,2.1,0.2,3.1,0.2h2.3c1.4-1.7,1.5-1.8,1.7-1.8c0.2,0,0.4,0.1,1.4,1c0.8,0.8,0.9,1,0.9,1.2
	c0,0.1,0,0.2-0.1,0.2c-0.1,0.1-0.2,0.1-0.2,0.1H8c-0.6,0-1.7,0-2.8,0.1L4.9,115.8z M20.6,112.2c0.9,0.1,1.8,0.2,2.7,0.2h0.4
	c1.4-1.7,1.5-1.8,1.7-1.8s0.4,0.1,1.3,1c0.8,0.8,0.9,0.9,0.9,1.2c0,0.1,0,0.2-0.1,0.2c-0.1,0.1-0.2,0.1-0.2,0.1h-4.1
	c-0.6,0-1.3,0-2.4,0.1L20.6,112.2z M6.7,112.2c1,0.1,2.1,0.2,3.1,0.2h0.5c1.4-1.7,1.5-1.8,1.7-1.8s0.3,0,1.4,1
	c0.8,0.7,0.9,0.9,0.9,1.2c0,0.1,0,0.2-0.1,0.2c-0.1,0.1-0.2,0.1-0.2,0.1H9.8c-0.6,0-1.7,0-2.8,0.1L6.7,112.2z M15,92
	c0-1,0.2-6.1,0.2-13.6v-2.1c-4.3,4.1-9.3,7.3-14.7,9.5c-0.2,0.1-0.4-0.3-0.3-0.4c5.3-3.2,13.2-12.1,16.7-19.1c0.4-0.7,0.7-1.5,1-2.3
	H6.7c-1.3,0-2.7,0.1-4.7,0.3L1.7,63c2.4,0.2,3.8,0.3,5.1,0.3h19.4c2.9-3.3,3-3.5,3.4-3.5c0.4,0,0.5,0.1,2.6,1.9
	c1.3,1.2,1.6,1.6,1.6,1.8S33.5,64,33.2,64H21.6c2.8,0.6,3.1,1.1,3.1,1.4c0,0.5-0.4,0.8-1.5,0.9c-1,1.9-2.2,3.6-3.6,5.3
	c0.9,0.3,1,0.5,1,0.8c0,0.4-0.1,0.5-0.9,0.9v5.2c0,6.6,0.3,12.2,0.3,13.4c0,1-1.2,1.6-3.3,1.6C15.4,93.4,15,93.1,15,92L15,92z
	 M28.8,82c-1.3-3.9-4.1-7.9-7.5-9.8c-0.1-0.1-0.1-0.1-0.1-0.2c0-0.1,0.1-0.1,0.2-0.1c7.6,0.8,12.8,5.5,12.8,9.5
	c0,2.2-1.3,3.3-2.8,3.3C30.2,84.6,29.4,83.9,28.8,82L28.8,82z M68.2,71.9c0-1.9,0.1-2.5,8.5-13.5h-4.2c-1.2,0-2.4,0.1-3.5,0.3
	l-0.4-1.2c1.3,0.2,2.6,0.3,3.9,0.3h4.1c2.1-2.3,2.2-2.3,2.6-2.3c0.4,0,0.6,0.1,2,1.3c1.6,1.4,1.8,1.7,1.8,2c0,0.5,0,0.6-2.7,1.9
	c-6.5,7.5-7.6,9-7.6,9.8s0.1,1.1,5.4,1.1c3.8,0,5.3-0.4,6.1-1.3c1.3-1.6,2.3-3.5,2.8-5.5c0.1-0.2,0.3-0.1,0.3,0.1
	c-0.2,3-0.2,4-0.2,4.4c0,0.6,0.2,1.1,0.6,1.6c0.4,0.6,0.6,1.2,0.6,1.9c0,1.7-1.1,2.9-10.8,2.9C69.2,75.6,68.2,74.2,68.2,71.9
	L68.2,71.9z M55.6,66.7c0-1,0.1-6.7,0.1-11.9c0-4.1,0-6.2-0.1-8.2c3.4,0.9,4.5,1.4,4.8,1.8H62c1.4-1.9,1.6-2,1.9-2
	c0.4,0,0.5,0,2.1,1.3c1.4,1.1,1.5,1.3,1.5,1.6c0,0.4-0.1,0.5-1,1.3v3.8c0,5.9,0.2,8.5,0.2,9.5c0,1.1-0.7,1.8-3,1.8
	c-0.9,0-1.2-0.4-1.2-1.4v-0.8h-2.7v3.1c0,1.1-1,1.5-2.9,1.5C55.9,68.1,55.6,67.9,55.6,66.7L55.6,66.7z M59.6,49.6v13.1l2.7,0V49.1
	h-1.9C60.2,49.4,59.9,49.5,59.6,49.6L59.6,49.6z M66.7,58.2c1.2-1.9,3.1-7.4,4-12.3C70.8,45,71,44,71,43.1c5.8,1.3,6.1,1.7,6.1,2.1
	c0,0.6-0.3,0.8-1.6,1.2c-0.8,1.7-1.7,3.4-2.8,5h8.9c2.7-3.5,2.8-3.6,3.2-3.6s0.6,0.1,2.6,2.1c1.2,1.2,1.4,1.4,1.4,1.8
	s-0.1,0.5-0.6,0.5H72.3c-1.5,2.3-3.3,4.4-5.2,6.4c0,0-0.1,0.1-0.1,0.1C66.8,58.5,66.6,58.4,66.7,58.2L66.7,58.2z M0.1,49.5
	c2.4-1.8,5.7-7,7.3-13c0.2-0.8,0.4-1.4,0.5-2.3c5.3,1.8,5.5,2,5.5,2.5c0,0.5-0.1,0.6-1.4,1c-0.5,1.3-1.2,2.5-1.9,3.6
	c0.7,1.2,1.8,2.1,3.2,2.5c0.7,0.3,1.4,0.5,2.2,0.6v-7.5c0-1.3,0-2.4-0.1-3.7H5.8c-1.4,0-2.7,0.1-4.1,0.3l-0.4-1.2
	c1.9,0.2,3.3,0.3,4.5,0.3h21.5c2.5-3.2,2.6-3.2,2.9-3.2s0.5,0,2.4,1.9c1.3,1.2,1.4,1.3,1.4,1.7c0,0.1,0,0.2-0.1,0.3
	c-0.1,0.1-0.2,0.1-0.3,0.1H21c0,0.3-0.2,0.4-0.8,0.7v5.1h4.4c2.4-3,2.4-3,2.8-3c0.4,0,0.5,0,2.4,1.8c1.2,1.1,1.3,1.2,1.3,1.5
	c0,0.1,0,0.2-0.1,0.3c-0.1,0.1-0.2,0.1-0.3,0.1H20.2v5.1c1.2,0,2.7,0.1,4.3,0.1c3.4,0.1,6.8-0.1,10.1-0.6c0.2,0,0.3,0.3,0.1,0.4
	c-1.5,0.8-2.6,2.3-2.8,4c-0.1,0.5-0.5,0.9-1,0.9c-1.9,0.1-3.8,0.2-5.7,0.1c-5.5,0-9-0.8-11.4-2.3c-2.1-1.2-3.5-3.3-4-5.6
	c-2.5,3.4-5.7,6.2-9.5,8c0,0,0,0-0.1,0c-0.1,0-0.2-0.1-0.2-0.2C0,49.6,0,49.5,0.1,49.5L0.1,49.5z M63.4,29.7c0-1.3,0.1-4,0.1-5.5
	c0-1.2-0.1-2.4-0.2-3.5c4.8,0.4,5.5,0.8,5.5,1.3c0,0.3-0.2,0.5-1.1,1v4.6c0,1.3,0.4,1.5,3.6,1.5c4,0,5.1-0.4,6.1-1.4
	c1-1,1.7-2.3,2.7-5c0.1-0.2,0.3-0.2,0.3,0c-0.1,2.3-0.3,3.7-0.3,4.5c0,0.6,0.2,1.3,0.7,1.7c0.5,0.4,0.7,1,0.8,1.6
	c0,1.6-1.1,2.8-10.5,2.8C64.1,33.3,63.4,32.4,63.4,29.7L63.4,29.7z M56.1,31.1c-0.5-0.4-0.7-1.1-0.7-1.7c0-1.1,0.6-2,1.5-2.6
	c1.9-1,3.1-3,3.1-5.1c0-0.2,0.3-0.2,0.4,0c0.9,1.9,1.3,3.9,1.3,6c0.1,1.1-0.3,2.1-1,2.9c-0.7,0.8-1.7,1.2-2.8,1.3h-0.1
	C57.1,31.8,56.5,31.5,56.1,31.1L56.1,31.1z M7.5,30.1c0-0.6,0.1-3.5,0.1-7.8c0-1.8,0-4-0.1-5.5c4,0.8,4.9,1.2,5.2,1.5h9.5
	c1.7-1.9,1.8-2,2.2-2c0.4,0,0.5,0,2.4,1.4c1.5,1.2,1.6,1.3,1.6,1.6c0,0.3-0.1,0.4-0.9,1.1v3.2c0,3.1,0.2,4.6,0.2,5.3
	c0,1-1.1,1.6-3.2,1.6c-1.4,0-1.7-0.2-1.7-1.3v-0.7H12v1.2c0,1-0.9,1.5-3,1.5C7.8,31.3,7.5,31,7.5,30.1L7.5,30.1z M12,27.9h10.7v-4.1
	H12V27.9z M12.6,19c-0.2,0.2-0.4,0.3-0.6,0.4V23h10.7v-4L12.6,19z M85.5,29.5c-1.2,0-2.2-0.8-2.3-2.4c-0.3-2.7-1-4.5-2.6-5.7
	c-0.1,0-0.1-0.1-0.1-0.2c0-0.1,0.1-0.1,0.2-0.1c4.6,0.5,7.5,2.6,7.5,5.5l0,0c0.1,0.8-0.2,1.5-0.7,2.1c-0.5,0.5-1.2,0.8-2,0.8
	L85.5,29.5z M72.2,26.2c-0.4-0.4-0.6-0.9-0.6-1.4c-0.3-2.1-1-3.4-2.2-4.2c-0.2-0.1-0.1-0.3,0.1-0.3c4.9,0,6.7,1.9,6.7,3.9
	c0,0.7-0.2,1.3-0.7,1.8c-0.5,0.5-1.1,0.7-1.8,0.7c-0.1,0-0.1,0-0.2,0C73,26.6,72.6,26.5,72.2,26.2L72.2,26.2z M61.5,19.1
	c0-0.7,0.1-2.5,0.2-6.6v-0.7c-2,2.5-4.5,4.5-7.3,5.9c-0.2,0.1-0.4-0.2-0.3-0.3c2.5-1.9,5.4-7.5,6.2-11.1H59c-1.2,0-2.5,0.1-3.7,0.3
	L55,5.3c1.3,0.2,2.7,0.3,4,0.3h2.7c0-3.1,0-3.8-0.1-5.6c5.1,0.4,5.4,0.6,5.4,1.2c0,0.4-0.2,0.7-1.3,1.1v3.2h0.3
	C67.6,3.1,67.7,3,68,3s0.4,0,1.6,1.4c1,1.1,1.1,1.3,1.1,1.5s-0.1,0.4-0.4,0.4h-4.8v2.2c3.5,0.1,5.1,1.8,5.1,3.7
	c0.1,0.6-0.1,1.1-0.5,1.5c-0.4,0.4-0.9,0.6-1.5,0.6c-1,0-1.5-0.5-1.7-1.7c0-1.3-0.5-2.6-1.5-3.5c0,7.7,0.1,9.2,0.1,9.8
	c0,1-1.1,1.4-2.6,1.4C61.8,20.3,61.5,20,61.5,19.1L61.5,19.1z M71.1,19c0-0.5,0.1-3.9,0.1-9.7c0-5.6,0-6.7-0.2-8.3
	c3.6,0.8,4.7,1.1,5,1.5h5.1c1.6-1.8,1.7-1.9,2-1.9c0.4,0,0.5,0.1,2.1,1.3c1.5,1.2,1.7,1.4,1.7,1.7s-0.1,0.4-1,1.3v3.6
	c0,6.9,0.1,9.4,0.1,9.8c0,1-1.1,1.5-3.1,1.5c-1.1,0-1.4-0.3-1.4-1.2v-1h-6.2v1c0,1-0.9,1.5-2.8,1.5C71.4,19.9,71.2,19.6,71.1,19
	L71.1,19z M75.4,16.7h6.2v-4.1h-6.2V16.7z M75.4,11.8h6.2v-4h-6.2V11.8z M75.9,3.2c-0.2,0.1-0.3,0.2-0.5,0.3v3.7h6.2v-4L75.9,3.2z"
	/>
</svg>
