<?xml version="1.0" encoding="utf-8"?>
<!-- Generator: Adobe Illustrator 19.2.1, SVG Export Plug-In . SVG Version: 6.00 Build 0)  -->
<svg version="1.1" id="圖層_1" xmlns="http://www.w3.org/2000/svg" xmlns:xlink="http://www.w3.org/1999/xlink" x="0px" y="0px"
	 viewBox="0 0 88.5 303.4" style="enable-background:new 0 0 88.5 303.4;" xml:space="preserve">
<style type="text/css">
	.st0{fill:#242E5F;}
</style>
<path class="st0" d="M14.5,302.5c-0.8-0.8-1.1-2.1-0.6-3.2c0.5-1.1,1.5-1.8,2.7-1.8c1.6,0,2.9,1.3,2.9,2.9c0,1.2-0.7,2.3-1.8,2.7
	c-0.4,0.1-0.7,0.2-1.1,0.2C15.8,303.4,15,303.1,14.5,302.5z M16.4,294.6c-0.3,0-0.4-0.2-0.4-0.4c0-4,0.3-5.1,1.9-7.5
	c2-2.9,2.5-4.5,2.5-7.3c0-4.2-1.9-5.9-4.4-5.9c-2.1,0-3.7,1.4-3.7,2.7c0,0.4,0.2,0.8,0.5,1c0.7,0.5,1.2,1.3,1.2,2.1
	c0,0.7-0.2,1.5-0.8,2c-0.5,0.5-1.2,0.8-2,0.7c-0.7,0-1.4-0.3-2-0.8c-0.5-0.5-0.8-1.2-0.7-2c0-3.5,4.1-6.7,8.8-6.7
	c5.3,0,8.5,2.8,8.5,6.8c0,3.1-1.1,5-5.6,8.5c-2.7,2.2-3.3,3-3.3,5c0,0.4,0.1,0.8,0.2,1.2C17.1,294.3,16.8,294.6,16.4,294.6
	L16.4,294.6z M17.6,261c0-0.6,0.2-4.4,0.2-9.9c0-1.9,0-3.7-0.1-5.6c3.1,0.9,4.1,1.3,4.5,1.6h0.5v-11.3c0.1-2.3,0-4.7-0.3-7
	c5.1,0.4,5.6,0.8,5.6,1.4c0,0.4-0.3,0.6-1.3,1.1v6.7h1.9c2.1-2.8,2.3-3,2.7-3c0.4,0,0.7,0.3,2.1,1.7c1.2,1.2,1.3,1.4,1.3,1.7
	c0,0.3-0.2,0.4-0.5,0.4h-7.6v8.4h1.3c1.6-2.1,1.8-2.2,2.1-2.2c0.4,0,0.8,0.2,2.1,1.4c1.4,1.2,1.6,1.4,1.6,1.8s-0.2,0.5-1.1,1.3v3.6
	c0,2.7,0.2,5.9,0.2,7.3c0,1.1-1.3,1.7-2.9,1.7c-1.3,0-1.4-0.2-1.4-1.4v-1.2h-7v1.3c0,1.1-0.6,1.7-2.7,1.7
	C17.7,262.4,17.6,262.3,17.6,261L17.6,261z M21.7,248.3v10.4h7v-10.8h-6.5C22,248,21.9,248.2,21.7,248.3L21.7,248.3z M1,261.7
	c-0.4-0.3-0.6-0.8-0.6-1.3c0-0.5,0.3-1,1.2-1.9c1.1-1,1.7-2.5,1.7-4.1c0-0.2,0.3-0.2,0.4,0c0.9,1.4,1.3,3.1,1.3,4.7
	c0.1,1.5-1,2.9-2.6,3c-0.1,0-0.2,0-0.2,0C1.7,262.2,1.3,262,1,261.7L1,261.7z M5.7,259.8c0-0.5,0.1-0.9,0.1-1.7
	c0.3-1.3,0-2.7-0.7-3.9C5,254,5.2,254,5.5,254c2.2,0.6,3.7,2.5,3.8,4.7c0,1.7-0.8,2.5-2.2,2.5C6.3,261.2,5.7,260.5,5.7,259.8
	L5.7,259.8z M10,258.6c0-1.9-0.8-3.8-2.3-5c-0.2-0.1,0.1-0.3,0.3-0.2c4,0.9,5.4,2.9,5.4,4.9l0,0c0.1,0.5-0.1,1.1-0.5,1.5
	c-0.3,0.4-0.9,0.6-1.4,0.6C10.5,260.4,10,259.6,10,258.6L10,258.6z M13.9,257.5c-0.1-2-1.4-3.7-3.2-4.5c-0.2-0.1-0.1-0.3,0.1-0.3
	c4.9,0.1,6.5,2.4,6.5,4.4l0,0c0,1.1-0.5,2.2-1.9,2.2C14.7,259.4,14,258.9,13.9,257.5L13.9,257.5z M0.4,250.3c0.8,0,1.6,0,2.3,0
	c1.7-0.1,3.1-0.2,4.5-0.3v-3H5.6c-1.2,0-2.5,0.1-3.7,0.3L1.6,246c1.3,0.2,2.7,0.3,4,0.3h1.6v-4.2H4.7v0.9c0,1-0.6,1.3-1.9,1.3
	c-1.2,0-1.3-0.1-1.3-1c0-0.7,0.2-4,0.2-8.9c0-3,0-4.1-0.1-5.3c2.5,0.8,3.4,1.2,3.7,1.5h7.7c1.2-1.7,1.3-1.7,1.6-1.7
	c0.2,0,0.4,0,1.8,1.2c1.1,0.9,1.3,1.1,1.3,1.4c0,0.3-0.1,0.4-1,1.1v3.1c0,2.7,0.2,5.4,0.2,6.3c0,1.2-0.6,1.6-2.5,1.6
	c-0.8,0-0.9-0.3-0.9-1.2v-0.4h-2.7v4.2h1.2c1.8-2.2,2-2.4,2.3-2.4c0.3,0,0.4,0,1.8,1.3c1,0.9,1.1,1.2,1.1,1.4s-0.1,0.4-0.4,0.4h-6
	v2.7c2.1-0.2,4.1-0.5,6.3-0.8c0.1,0,0.2,0,0.2,0.1c0,0.1,0,0.2-0.1,0.2c-4.5,2-9.2,3.7-14,5c-0.2,0.8-0.5,1-0.8,1
	C1.8,255.2,1.4,254.7,0.4,250.3L0.4,250.3z M12.9,235.7c-0.7,1.1-1.5,2.2-2.6,3.9v1.8h3v-5.9C13.3,235.5,13.1,235.6,12.9,235.7
	L12.9,235.7z M4.7,241.4h2.9v-3.1c-0.1,0.7-0.7,1.3-1.4,1.3c-0.6,0-1-0.5-1-1.2c0-0.5,0.1-1,0.2-1.8c0.1-0.8-0.1-1.6-0.6-2.3V241.4z
	 M10.4,232v6.5c0.3-1.2,0.5-2.7,0.7-3.6c0.1-0.6,0.1-1,0.2-1.7c0.7,0.3,1.5,0.7,2.1,1.2v-3h-2.5C10.9,231.6,10.7,231.7,10.4,232
	L10.4,232z M4.7,231.8v1.9c1.5,0.4,2.6,1.6,2.9,3.1V233c0-0.5,0-1,0-1.6H5.2C5.1,231.6,4.9,231.7,4.7,231.8L4.7,231.8z M17.7,217.7
	c0-1,0.3-5.5,0.3-17.1v-3.5h-1.7c0.5,0.6,0.6,0.8,0.6,1c0,0.3-0.2,0.4-0.7,0.4h-5.6v7.2h0.2c1.7-2.1,1.8-2.2,2.1-2.2
	c0.4,0,0.6,0.1,2.2,1.5c1.1,1,1.3,1.3,1.3,1.6s-0.1,0.4-1.1,1.3v1.9c0,2.7,0.2,5,0.2,6c0,1.1-1.3,1.8-2.6,1.8
	c-1.3,0-1.7-0.3-1.7-1.5v-0.8H5.9v1.7c0,1.1-0.9,1.7-2.6,1.7c-1.3,0-1.5-0.2-1.5-1.4c0-0.6,0.2-4,0.2-7.6c0-2.3,0-3.7-0.1-5.5
	c2.8,0.7,4,1.2,4.4,1.5h0.2v-7.2H4.4c-1.2,0-2.4,0.1-3.6,0.3l-0.3-1.2c1.3,0.2,2.6,0.2,4,0.3h2.1v-2.5c0-1.6,0-2.6,0-3.5
	c-2.1,0.2-4.1,0.3-6.2,0.3c-0.2,0-0.3-0.4-0.1-0.4c3.9-1,7.7-2.4,11.2-4.4c0.4-0.2,0.8-0.5,1.1-0.8c3.9,2.8,4.3,3.3,4.3,4
	c0,0.6-0.5,0.6-2.3,0.5c-1,0.1-2.1,0.3-3.1,0.4c0,0.1,0,0.1,0,0.2c0,0.4-0.2,0.5-0.8,0.8v5.5h1.2c1.9-2.8,2.1-2.9,2.3-2.9
	c0.3,0,0.4,0.1,1.7,1.4H18c0.1-3.4,0-6.9-0.3-10.3c4.5,0.6,5.6,1,5.6,1.5c0,0.5-0.3,0.8-1.2,1.3v7.5h4c0.1-3.4,0-6.9-0.3-10.3
	c4.4,0.5,5.9,1,5.9,1.4s-0.3,0.8-1.3,1.2l0,7.6c1.5-2.8,1.7-3,1.9-3s0.4,0.1,1.3,1.4c1.1,1.5,1.2,1.6,1.2,1.9s-0.2,0.5-0.6,0.5h-3.8
	v3.2c0,11.7,0.2,15,0.2,16.8c0,1-0.7,1.7-2.8,1.7c-1.4,0-1.7-0.2-1.7-1.4v-2.1h-4v2c0,1.2-1.1,1.7-2.8,1.7
	C17.9,219,17.7,218.7,17.7,217.7L17.7,217.7z M22.1,214.6h4v-9.3h-4V214.6z M5.9,206.8v7.7h5.3v-8.1H6.4
	C6.2,206.6,6.1,206.7,5.9,206.8L5.9,206.8z M22.1,204.6h4v-7.5h-4V204.6z M67.8,200.5v-36H69v36H67.8z M14,171.2
	c0-1.9,0.1-2.5,8.5-13.5h-4.2c-1.2,0-2.4,0.1-3.5,0.3l-0.4-1.2c1.3,0.2,2.6,0.3,3.9,0.3h4.1c2.1-2.3,2.2-2.3,2.6-2.3
	c0.4,0,0.6,0.1,2.1,1.3c1.6,1.4,1.8,1.7,1.8,2c0,0.5,0,0.6-2.7,1.9c-6.5,7.5-7.6,9-7.6,9.8s0.1,1.1,5.4,1.1c3.8,0,5.3-0.4,6.1-1.3
	c1.3-1.6,2.3-3.5,2.8-5.5c0.1-0.2,0.3-0.1,0.3,0.1c-0.2,3-0.2,4-0.2,4.4c0,0.6,0.2,1.1,0.6,1.6c0.4,0.6,0.6,1.2,0.6,1.9
	c0,1.7-1.1,2.9-10.8,2.9C15,175,14,173.6,14,171.2L14,171.2z M1.4,166.1c0-1,0.1-6.7,0.1-11.9c0-4.1,0-6.2-0.1-8.2
	c3.4,0.9,4.5,1.4,4.8,1.8h1.5c1.4-1.9,1.6-2,1.9-2c0.4,0,0.5,0,2.1,1.3c1.4,1.1,1.5,1.3,1.5,1.6c0,0.4-0.1,0.5-1,1.3v3.8
	c0,5.9,0.2,8.5,0.2,9.5c0,1.1-0.7,1.8-3,1.8c-0.9,0-1.2-0.4-1.2-1.4v-0.8H5.4v3.1c0,1.1-1,1.5-2.9,1.5
	C1.8,167.4,1.4,167.2,1.4,166.1L1.4,166.1z M5.4,149v13.1h2.7v-13.6H6.2C6,148.7,5.7,148.8,5.4,149L5.4,149z M67.9,164.5v-36H69v36
	H67.9z M12.5,157.6c1.2-1.9,3.1-7.4,4-12.3c0.2-0.9,0.3-1.9,0.4-2.8c5.8,1.3,6.1,1.7,6.1,2.1c0,0.6-0.3,0.8-1.6,1.2
	c-0.8,1.7-1.7,3.4-2.8,5h8.9c2.7-3.5,2.8-3.6,3.2-3.6s0.6,0.1,2.6,2.1c1.2,1.2,1.4,1.4,1.4,1.8s-0.1,0.5-0.6,0.5H18.1
	c-1.5,2.3-3.3,4.4-5.2,6.4c0,0-0.1,0.1-0.1,0.1C12.6,157.8,12.4,157.7,12.5,157.6L12.5,157.6z M25,131.5c-1.6-1.4-3.3-2.5-5.1-3.5
	c-4.1,3.5-9.8,4.9-18.4,4.6c-0.2,0-0.3-0.4,0-0.4c6.4-0.5,11.6-2.4,15-5.9c-1.5-0.6-3.1-1.1-4.6-1.5l-1,1.4c-0.5,0.7-1.3,1.1-2.1,1
	c-1.6,0-3.1-0.3-3.1-1c0-0.3,0.2-0.6,0.4-0.8c1.6-2.1,3-4,4.2-5.8H5.4c-1.5,0-3,0.1-4.5,0.3l-0.3-1.2c1.6,0.2,3.2,0.3,4.8,0.3h5.4
	c0.9-1.3,1.6-2.7,2.3-4c0.3-0.5,0.5-1,0.7-1.5H8.4v0.1c0,1.5-0.9,2-2.8,2c-1.2,0-1.4-0.2-1.4-1.3c0-0.4,0.1-2.7,0.1-4.5
	c0-1.9,0-3.6-0.1-5c3.8,0.9,4.8,1.2,5,1.7h2.4v-3.9H6.7c-1.8,0-3.7,0.1-5.5,0.3l-0.3-1.2c1.9,0.2,3.9,0.3,5.8,0.3h20.8
	c2.5-3,2.6-3,2.9-3s0.5,0,2.2,1.6c1.4,1.3,1.5,1.4,1.5,1.7c0,0.1,0,0.2-0.1,0.3c-0.1,0.1-0.2,0.1-0.3,0.1H23.3
	c0,0.2-0.3,0.4-0.5,0.5v3.3h2.8c1.9-2,2-2.1,2.3-2.1c0.4,0,0.6,0.1,2.3,1.4c1.3,1,1.3,1.1,1.3,1.4c0,0.3-0.1,0.4-1,1.2v0.8
	c0,1.8,0.2,4,0.2,4.4c0,1-0.9,1.7-3,1.7c-1.5,0-1.7-0.3-1.7-1.3v-0.5H14.8c3.6,1,4.2,1.4,4.2,1.9c0,0.5-0.4,0.8-1.7,1.2
	c-0.5,0.8-1,1.6-1.5,2.4h11.5c2.5-3,2.7-3.2,3-3.2s0.6,0.1,2.4,1.8c1.4,1.3,1.5,1.5,1.5,1.7c0,0.3-0.1,0.4-0.4,0.4H23.6
	c2.3,0.5,2.7,0.8,2.7,1.2c0,0.4-0.3,0.6-1.6,1c-0.7,1.2-1.4,2.4-2.2,3.5c2,0.4,3.9,1.1,5.6,2.2c1.5,0.9,2.1,1.7,2.1,3
	c-0.1,1.2-1.1,2.2-2.3,2.2C26.7,132.8,25.7,132.3,25,131.5L25,131.5z M15.3,119.8c-1,1.4-2,3-3,4.5c2,0.1,3.9,0.2,5.7,0.4
	c0.6-0.8,1.2-1.7,1.6-2.7c0.3-0.7,0.6-1.4,0.9-2.2L15.3,119.8z M22.8,112.8H26v-5.5h-3.2V112.8z M15.6,112.8h3.2v-5.5h-3.2V112.8z
	 M8.4,107.8v5h3.2v-5.5H9.1C8.9,107.5,8.7,107.6,8.4,107.8L8.4,107.8z M15.6,103.2v3.4h3.2v-3.9h-2.6
	C16.1,102.8,15.8,103,15.6,103.2L15.6,103.2z M59.7,114.9c1.2,0.1,1.6,0.1,2.9,0.1c3.1,0.1,5.8,0.1,8.5,0.1c1.5-2.1,2.9-4.4,4.1-6.7
	c0.3-0.6,0.6-1.3,0.9-1.9c5.2,1.9,5.5,2.1,5.5,2.6c0,0.5-0.5,0.6-1.9,0.8c-2.5,1.9-4.4,3.4-7.1,5.3c2.6,0,5.2,0,8-0.1
	c-0.6-1.1-1.5-1.9-2.6-2.5c-0.1,0-0.1-0.1-0.1-0.2c0-0.1,0.1-0.1,0.2-0.1c6.2,0,8.5,2.7,8.5,5.1c0,0.7-0.3,1.4-0.8,1.9
	c-0.5,0.5-1.2,0.8-1.9,0.8c-1.1,0-2-0.8-2.1-1.8c-0.1-0.7-0.3-1.3-0.6-1.9c-6,1.1-10,1.8-18.5,3.1c-0.4,0.7-0.5,0.8-0.8,0.8
	C61.4,120.3,61.2,120,59.7,114.9L59.7,114.9z M53.8,120.1c-0.1-0.1-0.1-0.2,0-0.3c1.2-1.7,1.9-3.7,2.2-5.8c0.5-3.1,0.7-6.6,0.7-13.7
	c0-5.7-0.1-8.1-0.4-10.9c4,1,5,1.3,5.2,1.7h7.7v-0.9c0-1.3,0-2.6-0.2-3.9c5.7,0.4,6.4,0.8,6.4,1.3c0,0.4-0.2,0.6-1.5,1.2v2.3h7
	c2.6-3,2.7-3.1,3.1-3.1s0.5,0.1,2.4,1.9c1.2,1.2,1.3,1.3,1.3,1.6c0,0.2-0.1,0.4-0.4,0.4h-26c-0.2,0.2-0.4,0.3-0.7,0.4v7.3
	c0,2.4-0.1,4.3-0.2,6c1.2-1.4,1.7-3.9,1.7-6.9c0-0.5,0-0.9-0.1-1.4c1.3,0.1,2.5,0.3,3.7,0.7v-1.7h-0.5c-1.2,0-2.4,0.1-3.6,0.3
	l-0.3-1.2c1.3,0.2,2.6,0.2,4,0.3h0.5c0-1,0-2-0.1-3.1c3.6,0.3,4.1,0.5,4.1,0.9c0,0.3-0.2,0.5-0.8,0.8v1.4h0.9c1.5-2,1.7-2.2,1.9-2.2
	s0.4,0,1.5,1.1c0.6,0.6,1,0.9,1.1,1.1H77c0-1,0-2-0.1-3.1c3.7,0.3,4.2,0.5,4.2,0.9c0,0.3-0.2,0.5-0.8,0.8v1.4h2.1
	c1.7-2.1,1.8-2.3,2.1-2.3c0.3,0,0.5,0.1,1.8,1.3c1.1,1,1.2,1.2,1.2,1.4c0,0.2-0.1,0.3-0.5,0.3h-6.7c0,4.7,0.1,7.6,0.1,8
	c0,0.9-0.7,1.3-2.3,1.3c-1,0-1.2-0.2-1.2-1.1c0-0.3,0.1-2.4,0.1-5.6c-0.1,0.1-0.3,0.2-0.4,0.2c-0.3,2.6-1.8,4.9-4.1,6.2
	c2.2,0.6,2.4,0.8,2.4,1.2c0,0.5-0.4,0.7-1.8,0.9c-1.2,0.8-2.2,1.5-3.3,2.3c0.8,0.5,1.3,1.4,1.3,2.4c0,1.4-1.1,2.5-2.5,2.4
	c-0.8,0.1-1.6-0.4-1.9-1.3c-0.4-1.9-1.8-3.5-3.6-4.2c-0.2-0.1-0.1-0.3,0.1-0.4c1.6-0.3,3.3-0.2,4.9,0.2c0.4-1,0.7-1.9,1-3.1
	c0.1-0.4,0.2-0.8,0.3-1.3c1,0.3,1.8,0.4,2.4,0.6c1.1-1.2,1.9-3.5,1.9-6.4c0-0.5,0-0.9-0.1-1.4c1.1,0.1,2.3,0.3,3.4,0.6v-1.6h-8.2
	c0,4.6,0.1,7.5,0.1,8c0,0.9-0.7,1.3-2.2,1.3c-1,0-1.2-0.2-1.2-1.1c0-0.3,0.1-2.4,0.1-5.7c-0.2,0.2-0.4,0.3-0.7,0.4
	c-0.5,3.5-1.9,5.6-4.6,7c-0.2,2.5-0.8,5-1.7,7.4c-1,2.6-2.5,4.9-4.6,6.7c0,0-0.1,0-0.1,0C53.9,120.2,53.8,120.2,53.8,120.1
	L53.8,120.1z M81.1,103.2c0-0.6,0.1-1.7,0.1-3.2c0-1,0-1.8-0.1-2.6c3,0.3,3.7,0.4,3.7,0.8c0,0.3-0.1,0.4-0.9,0.8l0,2.1
	c0,0.5,0.1,0.6,0.8,0.6s1-0.1,1.3-0.6c0.5-0.9,0.9-1.8,1.2-2.8c0.1-0.2,0.3-0.1,0.3,0.1c-0.1,1.2-0.1,2-0.1,2.4
	c0,0.4,0.1,0.7,0.4,0.9c0.4,0.3,0.6,0.8,0.5,1.3c0,0.8-0.8,1.5-3.9,1.5C81.6,104.5,81.1,104,81.1,103.2L81.1,103.2z M69.6,102.8
	c0-0.5,0.1-1.5,0.1-3c0-1,0-1.7,0-2.4c3.1,0.4,3.5,0.5,3.5,0.9c0,0.3-0.1,0.4-0.7,0.6v3.7c0,0.8-0.6,1-1.9,1
	C69.8,103.6,69.6,103.4,69.6,102.8L69.6,102.8z M0.5,89.3c3-2.4,5.4-7.9,5.9-15.7c0.1-0.9,0.1-1.5,0.1-2.2c5.1,1.2,5.9,1.4,5.9,2
	c0,0.3-0.3,0.6-1.2,0.9c-0.1,1-0.3,2.1-0.6,3.1c0.6,1.5,1.6,2.9,2.8,4c0.5,0.4,1,0.8,1.5,1v-9.7c0-1.3,0-2.4-0.1-3.7h-4.5
	c-0.8,0-2.4,0.1-4.1,0.3L5.9,68c1.8,0.2,3.4,0.3,4.4,0.3h11.8c2.2-2.8,2.3-2.9,2.6-2.9s0.4,0,2.1,1.6c1.1,1.1,1.3,1.3,1.3,1.6
	s-0.3,0.4-0.5,0.4h-7.2c-0.1,0.2-0.3,0.4-0.8,0.7v6.6h2.7c2.3-3,2.4-3.1,2.7-3.1s0.5,0,2.4,1.9c1,0.9,1.3,1.3,1.3,1.6
	c0,0.1,0,0.2-0.1,0.3c-0.1,0.1-0.2,0.1-0.3,0.1h-8.8v6.8c1.5,0.2,3.1,0.3,4.7,0.3c3.3,0,6.5-0.1,9.8-0.6c0.2,0,0.3,0.3,0.1,0.4
	c-1.8,1.2-2.2,2-2.6,4.1c-0.1,0.5-0.5,0.9-1,0.9C28.7,89,26.8,89,25,89c-6.1,0-8.9-1.3-11.1-3.4c-1.9-1.9-3.2-4.4-3.6-7.1
	c-1.9,5.5-5.9,9.5-9.6,11.2c0,0,0,0-0.1,0C0.5,89.6,0.3,89.4,0.5,89.3L0.5,89.3z M73.6,75.7c0-1,0.3-6.9,0.3-18.1h-4.2
	c-0.8,0-2.4,0.1-4.1,0.3l-0.4-1.2c1.8,0.2,3.4,0.3,4.4,0.3h4.2c0-10.6,0-11.7-0.2-13.7c5.8,0.5,6.2,0.9,6.2,1.4
	c0,0.4-0.4,0.6-1.3,1.2v11.1h2.8c2.6-3.4,2.7-3.5,3.1-3.5c0.4,0,0.5,0.1,2.6,2.1c1.3,1.3,1.4,1.5,1.4,1.7s-0.2,0.4-0.5,0.4h-9.5
	c0,10.8,0.2,17,0.2,17.9c0,1-0.9,1.5-3.2,1.5C74,77,73.6,76.9,73.6,75.7L73.6,75.7z M59.6,75.8c0-0.9,0.1-3.4,0.2-8.4l0.1-10.9
	c-1.7,2-3.7,3.7-5.9,5.2c-0.2,0.1-0.4-0.1-0.3-0.3c2.6-2.9,5.6-8.8,7.9-15.6c0.3-0.8,0.5-1.7,0.7-2.6c5.2,2.1,5.7,2.4,5.7,3
	s-0.3,0.8-1.6,1.1c-1,2-2.3,4-3.6,5.8c2.3,0.8,2.7,1.1,2.7,1.5c0,0.3-0.2,0.6-1.1,0.9v8.1c0,8.7,0.1,10.9,0.1,11.8
	c0,1-1.1,1.5-3.2,1.5C59.8,77,59.6,76.7,59.6,75.8L59.6,75.8z M1.9,67.7c-0.4-0.4-0.7-1-0.7-1.7c0-1.1,0.6-2,1.5-2.5
	c1.4-0.8,2.1-2.3,1.8-3.9c0-0.2,0.3-0.3,0.4-0.1c0.6,0.7,1.1,1.4,1.4,2.2h8.3v-2.8c0-1-0.1-2-0.2-3c5.8,0.4,6.4,0.8,6.4,1.3
	c0,0.4-0.2,0.6-1.5,1.2v3.3h7.3c1.9-2.1,2.1-2.2,2.5-2.2c0.4,0,0.9,0.2,2.6,1.8c1.4,1.3,1.8,1.9,1.8,2.5c0,0.6-0.4,1-1.7,1
	c-0.9,0-1.8,0.1-2.6,0.4c-0.8,0.3-1.4,0.5-2.7,1c-0.2,0.1-0.3,0-0.3-0.2c0.6-1.7,0.8-2.5,1.2-3.7l-20.9,0C7,63.2,7.1,64,7.1,64.7
	c0,0.9-0.3,1.9-1,2.5c-0.7,0.7-1.6,1-2.5,1c-0.1,0-0.1,0-0.2,0C2.9,68.3,2.3,68.1,1.9,67.7L1.9,67.7z M79.3,33.9
	c-0.9,0-1.2-0.1-1.3-0.9c-0.4-1.6-1-2.3-3.6-3.1c-0.2-0.1-0.2-0.4,0-0.4c1.9,0,2.8,0,3.9-0.1c0.9,0.1,1.9-0.4,2.3-1.2
	c0.9-2.2,1.5-4.5,1.6-6.8H65.5c-4.1,4.3-7.8,6.9-11.3,8.1c-0.2,0.1-0.3-0.3-0.1-0.4c2.3-1.2,6.4-5,9.1-9.5c2-3.2,3.6-6.5,4.8-10
	h-5.1c-1.4,0-2.8,0.1-4.2,0.3l-0.4-1.2c1.5,0.2,3.1,0.3,4.6,0.3h5.4c0.4-1.3,0.8-2.6,1.1-4c0.4-1.6,0.7-3.2,0.9-4.9
	c5.4,1.7,6,2.2,6,2.7c0,0.5-0.4,0.9-1.7,1.2c-0.5,1.7-1,3.4-1.7,5h2.3c1.5-1.6,1.8-1.7,2.1-1.7c0.3,0,0.5,0.1,2,1.2
	c1.3,0.9,1.4,1.1,1.4,1.4s-0.1,0.4-1.2,1.2C79,12,78.5,13.5,78,14.9h0.5c1.6-1.6,1.7-1.7,2-1.7c0.3,0,0.6,0.1,1.9,1.2
	c1.2,1,1.4,1.1,1.4,1.4c0,0.4-0.1,0.5-1,1.1c-0.3,1.2-0.7,2.4-1.1,3.7l0.2,0c1.5-1.6,1.7-1.7,1.9-1.7c0.4,0,0.5,0,2.1,1.4
	c1.5,1.2,1.6,1.4,1.6,1.8s-0.1,0.5-1.2,1.2c-0.8,4.9-1.6,7.7-2.7,8.9c-1.1,1.1-2.6,1.7-4.1,1.7C79.5,33.9,79.4,33.9,79.3,33.9
	L79.3,33.9z M66.2,20.6h11c0.6-1.9,1.1-3.6,1.4-5h-8.9C68.7,17.4,67.6,19.1,66.2,20.6L66.2,20.6z M72.6,9.6
	c-0.7,1.8-1.5,3.6-2.5,5.3h3.5c0.7-2.2,1.3-3.9,1.6-5.3L72.6,9.6z M1.4,30.9c2.4,0.2,3.8,0.3,5.1,0.3h19.2c3-3.7,3-3.7,3.3-3.7
	c0.4,0,0.5,0,2.5,2.1c1.9,1.9,2,2,2,2.3s-0.2,0.4-0.5,0.4H6.5c-1.3,0-2.7,0.1-4.7,0.3L1.4,30.9z M61.2,31c-0.4-0.4-0.7-0.9-0.7-1.5
	c0-0.8,0.4-1.5,1-1.9c1.3-0.8,2.1-2.2,2.1-3.7c0-0.2,0.1-0.3,0.3-0.1l0,0c1.2,1.2,1.8,2.8,1.8,4.5c0,1.3-0.9,3.2-2.8,3.2
	c-0.1,0-0.2,0-0.2,0C62.1,31.5,61.6,31.3,61.2,31L61.2,31z M67.4,29.6c-0.3-0.4-0.5-0.9-0.4-1.3c0.2-2.3,0.1-3.7-0.5-4.6
	c-0.1-0.2,0-0.3,0.2-0.3c3.1,0.9,4.2,3,4.2,4.6c0,1.2-1,2.2-2.2,2.2l0,0h-0.1C68.2,30.1,67.7,29.9,67.4,29.6L67.4,29.6z M72.5,28.5
	c-0.3-0.3-0.5-0.8-0.4-1.2c0-1.6,0-3.1-1.1-4.1c-0.1-0.1-0.1-0.3,0.1-0.3c3.2,0.5,4.7,2.1,4.7,4.1c0,1.1-1,2-2.1,2c0,0-0.1,0-0.1,0
	C73.1,28.9,72.7,28.7,72.5,28.5L72.5,28.5z M77.4,27.4c-0.3-0.3-0.5-0.7-0.5-1.2c-0.1-1.6-0.3-3-1.4-3.7l0,0
	c-0.2-0.1-0.1-0.3,0.1-0.3c3,0.3,4.9,1.4,4.9,3.6c0,1-0.9,1.9-1.9,1.9c-0.1,0-0.1,0-0.2,0C78,27.8,77.6,27.7,77.4,27.4L77.4,27.4z
	 M63.6,7.7c-0.4-0.4-0.6-1-0.5-1.5c0-2.3-0.3-3.8-1.5-4.6c-0.2-0.1-0.1-0.3,0.1-0.3c3.7,0.2,5.9,2.1,5.9,4.1c0.1,0.7-0.2,1.4-0.7,2
	c-0.5,0.5-1.2,0.9-1.9,0.9H65C64.4,8.3,63.9,8,63.6,7.7L63.6,7.7z M61.7,1.2L61.7,1.2z"/>
</svg>
