<?xml version="1.0" encoding="utf-8"?>
<!-- Generator: Adobe Illustrator 19.2.1, SVG Export Plug-In . SVG Version: 6.00 Build 0)  -->
<svg version="1.1" id="圖層_1" xmlns="http://www.w3.org/2000/svg" xmlns:xlink="http://www.w3.org/1999/xlink" x="0px" y="0px"
	 viewBox="0 0 172.4 27.8" style="enable-background:new 0 0 172.4 27.8;" xml:space="preserve">
<style type="text/css">
	.st0{fill:#242E5F;}
</style>
<path class="st0" d="M0.7,26.7l0.5,0.1c0.1-0.7,0.7-1.1,1.4-1.2c1.9,0,3.1,1.5,7,1.5c6.9,0,10.9-4,10.9-8.1c0-2.7-1.2-4.2-3-5.8
	l-3.2-2.9c-1.4-1.3-2.7-2.7-2.7-4.9c0-2.7,2.3-4.4,5.5-4.4c2.3,0,5.5,1.4,5.5,4.7c0,0.7-0.1,1.4-0.3,2.1h0.4L25.2,1l-0.5-0.1
	c-0.2,0.6-0.7,1-1.3,0.9c-1.6,0-3.2-1.3-6.3-1.3c-5.1,0-9.3,3.1-9.3,7c0,2.6,1.3,4.5,3.6,6.6l2.6,2.3c1.4,1.1,2.2,2.7,2.2,4.5
	c0,3.4-2.4,5.8-6.7,5.8c-2.7,0-6.2-1.7-6.2-5c0-0.7,0.2-1.5,0.5-2.1H3.2L0.7,26.7z M38.7,27.1c0.4-0.7,1-1.3,1.6-1.9
	c0.7-0.7,1.3-1.3,2.4-2.2l1.8-1.5c2.4-2,5.3-4.7,5.3-8c0-1.4-0.6-2.8-2.2-2.8c-1-0.1-1.9,0.7-2,1.7c0,0,0,0.1,0,0.1
	c0,1.4,0.8,2,0.8,3.5c0,2.2-1,4.2-4.5,7c-0.1-0.7-0.3-1.4-0.7-2.1c-0.8-1.7-1.8-4-1.8-5.6c0-1.8,0.7-3.4,2.1-4.5l-0.3-0.4L40.5,11
	l-0.9,0.8c-0.3-0.7-1.1-1.2-1.8-1.1c-1-0.1-1.9,0.7-2,1.7c0,0,0,0.1,0,0.1c0,1.4,0.8,2,0.8,3.5c0,2.2-1.3,4.2-4.8,7
	c-0.1-0.7-0.3-1.4-0.7-2.1c-0.8-1.7-1.8-4-1.8-5.6c0-1.8,0.7-3.4,2.1-4.5l-0.3-0.4L30.4,11c-2.5,2-4.4,4.2-4.4,6.8
	c0.1,1.2,0.4,2.3,1,3.3l0.9,2c0.4,0.6,0.6,1.3,0.6,2c0,0.6-0.1,1.2-0.4,1.7l0.4,0.3c0.4-0.7,1-1.3,1.6-1.9c0.7-0.7,1.3-1.3,2.4-2.2
	l1.8-1.5c0.7-0.5,1.4-1.1,2.1-1.8c0.2,0.5,0.4,0.9,0.6,1.4l0.9,2c0.4,0.6,0.6,1.3,0.6,2c0,0.6-0.1,1.2-0.4,1.7L38.7,27.1z
	 M63.2,22.7c-0.7,1-2.6,3.7-5.8,3.7c-1.7,0-2.8-0.8-2.8-3.2c0.1-1.8,0.4-3.5,1-5.2c0.5,0.1,1,0.1,1.5,0.1c1.9,0,8.6-0.6,8.6-4.5
	c0-1.9-2.1-3-4.6-3c-5.4,0-10.2,6.5-10.2,10.8c0,3.2,2.3,5.6,5.9,5.6c4.2,0,6.3-3.4,6.8-4.1L63.2,22.7z M62.4,12.8
	c0,2.7-2.2,4.9-5.5,4.9c-0.4,0-0.7,0-1.1-0.1c0.8-2.5,2.7-6.4,5.2-6.4C61.8,11.2,62.4,11.7,62.4,12.8z M78.7,22.7
	c-0.7,1-2.6,3.7-5.8,3.7c-1.7,0-2.8-0.8-2.8-3.2c0.1-1.8,0.4-3.5,1-5.2c0.5,0.1,1,0.1,1.5,0.1c1.9,0,8.6-0.6,8.6-4.5
	c0-1.9-2.1-3-4.6-3c-5.4,0-10.2,6.5-10.2,10.8c0,3.2,2.3,5.6,5.9,5.6c4.2,0,6.3-3.4,6.8-4.1L78.7,22.7z M78,12.8
	c0,2.7-2.2,4.9-5.5,4.9c-0.4,0-0.7,0-1.1-0.1c0.8-2.5,2.7-6.4,5.2-6.4C77.4,11.2,78,11.7,78,12.8z M83.1,22.2
	c-0.3,0.7-0.4,1.4-0.5,2.1c0,1.8,1.2,2.7,3.2,2.7c2.3,0,4.4-1.4,5.1-3.6l-0.4-0.2c-0.4,1-1.7,2.9-3.2,2.9c-0.6,0-1.1-0.4-1.1-1
	c0,0,0-0.1,0-0.1c0-0.7,0.2-1.4,0.5-2.1l4.1-11.3h3.7l0.1-0.5h-3.7l1.3-3.5h-3.7l-1.3,3.5H84l-0.1,0.5H87L83.1,22.2z M111.8,11.2
	h-3.7l-0.7,1.9h0c0-1.3-1.1-2.4-2.4-2.3c0,0,0,0,0,0c-4.3,0-10.9,5.8-10.9,11.7c0,3.1,1.7,4.7,4,4.7c2.6,0,4.7-2.6,5.9-4.2h0.1
	c-0.2,0.6-0.3,1.2-0.3,1.9c0,1.4,1.1,2.3,2.8,2.3c2.3,0,4.4-1.5,5.1-3.7l-0.4-0.2c-0.3,0.6-1.4,3-3.2,3c-0.5,0-0.8-0.4-0.8-0.9
	c0.1-1.1,0.3-2.2,0.8-3.2L111.8,11.2z M104.5,21c-0.5,1.5-3.6,5.3-5.5,5.3c-0.9,0-1.2-0.6-1.2-2c0-4.1,3.7-13,7.3-13
	c1,0,1.9,0.8,1.9,1.9c0,0.1,0,0.2,0,0.3c-0.1,0.9-0.3,1.7-0.6,2.5L104.5,21z M122.2,11.2c0.8,0,1.3,0.5,1.3,1s-0.6,0.9-0.6,1.7
	c0,0.8,0.6,1.4,1.3,1.4c0.1,0,0.1,0,0.2,0c0.9,0.1,1.8-0.6,1.8-1.6c0-0.1,0-0.2,0-0.3c0-1.7-1.8-2.8-3.9-2.8c-3.1,0-6.1,2.3-6.1,4.8
	c0.1,1.3,0.6,2.5,1.4,3.5l1.7,2.3c0.6,0.7,0.9,1.7,0.9,2.6c-0.1,1.6-1.5,2.8-3.2,2.7c-0.8,0.1-1.6-0.5-1.7-1.3c0-0.1,0-0.2,0-0.3
	c0-0.7,0.4-1.5,0.4-2.2c0-0.6-0.5-1.1-1.1-1.1c0,0-0.1,0-0.1,0c-1.1,0-2,0.8-2,1.9c0,0.1,0,0.2,0,0.2c0,2.1,2.1,3.3,4.4,3.3
	c2.7,0,6.7-1.7,6.7-4.9c0-1-0.4-1.9-1-2.7l-2.1-2.8c-0.8-0.8-1.2-1.9-1.2-3C119.4,12.2,120.7,11.1,122.2,11.2
	C122.2,11.2,122.2,11.2,122.2,11.2z M128,22.2c-0.3,0.7-0.4,1.4-0.5,2.1c0,1.8,1.2,2.7,3.2,2.7c2.3,0,4.4-1.4,5.1-3.6l-0.4-0.2
	c-0.4,1-1.7,2.9-3.2,2.9c-0.6,0-1.1-0.4-1.1-1c0,0,0-0.1,0-0.1c0-0.7,0.2-1.4,0.5-2.1l4.1-11.3h3.7l0.1-0.5h-3.7l1.3-3.5h-3.7
	l-1.3,3.5h-3.1l-0.1,0.5h3.1L128,22.2z M151.1,22.7c-0.7,1-2.6,3.7-5.8,3.7c-1.7,0-2.8-0.8-2.8-3.2c0.1-1.8,0.4-3.5,1-5.2
	c0.5,0.1,1,0.1,1.5,0.1c1.9,0,8.6-0.6,8.6-4.5c0-1.9-2.1-3-4.6-3c-5.4,0-10.2,6.5-10.2,10.8c0,3.2,2.3,5.6,5.9,5.6
	c4.2,0,6.3-3.4,6.8-4.1L151.1,22.7z M150.4,12.8c0,2.7-2.2,4.9-5.5,4.9c-0.4,0-0.7,0-1.1-0.1c0.8-2.5,2.7-6.4,5.2-6.4
	C149.8,11.2,150.4,11.7,150.4,12.8L150.4,12.8z M164.5,8c0.4-1.1,1-2,1.8-2.8c0.6-0.8,1.5-1.7,1.5-2.8c0-0.9-0.8-1.7-1.7-1.7
	c0,0-0.1,0-0.1,0c-1.1,0-1.9,0.8-2,1.8c0,0,0,0.1,0,0.1c0,0.7,0.1,1.3,0.3,2c0.3,1.1,0.3,2.2,0.1,3.3c-2.2-2.9-1.6-5.8-4.1-5.8
	c-1.1,0-1.9,0.9-1.9,2c0,0.7,0.4,1.4,1.7,1.9c1.5,0.5,2.9,1.2,4.2,2.1c-1.3,0.1-2.5,0.1-3.8-0.1c-0.5-0.1-1.1-0.2-1.6-0.2
	c-1-0.1-1.9,0.6-2,1.6c0,0.1,0,0.2,0,0.3c0,1.1,0.8,1.9,1.9,2c0.9,0,1.8-0.8,2.7-1.5c0.8-0.8,1.8-1.4,2.9-1.8
	c-0.4,1.1-1.1,2-1.8,2.8c-0.6,0.8-1.5,1.7-1.5,2.8c0,0.9,0.8,1.7,1.7,1.7c0,0,0.1,0,0.1,0c1.1,0,1.9-0.8,2-1.8c0,0,0-0.1,0-0.1
	c0-0.7-0.1-1.3-0.3-2c-0.2-1.1-0.3-2.2-0.1-3.4c2.2,2.9,1.6,5.8,4.1,5.8c1.1,0,1.9-0.9,1.9-2c0-0.7-0.4-1.4-1.7-1.9
	c-1.5-0.5-2.9-1.2-4.2-2.1c1.3-0.1,2.5-0.1,3.8,0.1c0.5,0.1,1.1,0.2,1.6,0.2c1,0.1,1.9-0.6,2-1.6c0-0.1,0-0.2,0-0.3
	c0-1.1-0.8-1.9-1.9-2c-0.9,0-1.8,0.8-2.7,1.5C166.5,6.9,165.5,7.5,164.5,8L164.5,8z"/>
</svg>
