<?xml version="1.0" encoding="UTF-8"?>
<svg width="136px" height="91px" viewBox="0 0 136 91" version="1.1" xmlns="http://www.w3.org/2000/svg" xmlns:xlink="http://www.w3.org/1999/xlink">
    <!-- Generator: sketchtool 50.2 (55047) - http://www.bohemiancoding.com/sketch -->
    <title>7862EEB1-E6AE-4BF0-B9DD-D214CE1E4C0B</title>
    <desc>Created with sketchtool.</desc>
    <defs></defs>
    <g id="客戶搜尋" stroke="none" stroke-width="1" fill="none" fill-rule="evenodd">
        <g id="2.0.1客戶搜尋無結果" transform="translate(-479.000000, -458.000000)" fill="#242e5f">
            <g id="Group-4" transform="translate(338.000000, 457.000000)">
                <g id="Group-7" transform="translate(128.000000, 0.000000)">
                    <g id="Group-3">
                        <g id="Group" transform="translate(53.817409, 55.886967) rotate(-39.000000) translate(-53.817409, -55.886967) translate(21.817409, 9.886967)">
                            <rect id="Rectangle-5" x="28" y="56" width="12" height="36" rx="6"></rect>
                            <path d="M32,64 C14.326888,64 -4.79616347e-14,49.673112 -4.79616347e-14,32 C-4.79616347e-14,14.326888 14.326888,-9.9475983e-14 32,-9.9475983e-14 C49.673112,-9.9475983e-14 64,14.326888 64,32 C64,49.673112 49.673112,64 32,64 Z M32,56 C45.254834,56 56,45.254834 56,32 C56,18.745166 45.254834,8 32,8 C18.745166,8 8,18.745166 8,32 C8,45.254834 18.745166,56 32,56 Z" id="Oval" fill-rule="nonzero"></path>
                        </g>
                        <path d="M117.875894,1 C100.686211,1 86.7517874,13.9837061 86.7517874,30 C86.7517874,34.3512837 87.7821455,38.4774615 89.6248052,42.1815466 L82.2626405,55.6255507 C81.8533119,56.3723889 81.9274602,57.2937491 82.4499784,57.9647878 C82.8543133,58.4837693 83.46702,58.7745884 84.1012145,58.7745884 C84.2862825,58.7745884 84.473015,58.7498314 84.657175,58.6984834 L100.773978,54.2312082 C105.681684,57.2446934 111.55816,59 117.875894,59 C135.065274,59 149,46.0164467 149,30 C149,13.9837061 135.065274,1 117.875894,1 Z M117.823687,44.8988639 C116.124784,44.8988639 114.743357,43.5032988 114.743357,41.7878786 C114.743357,40.0724584 116.125087,38.6768934 117.823687,38.6768934 C119.52259,38.6768934 120.904169,40.0726112 120.904169,41.7878786 C120.904471,43.503146 119.522741,44.8988639 117.823687,44.8988639 Z M121.050952,30.0997924 C120.646314,30.3791499 120.36667,30.5850003 120.215347,30.7142872 L120.215347,33.965104 C120.215347,35.2964841 119.142316,36.3796821 117.824141,36.3796821 C116.505362,36.3796821 115.432936,35.2964841 115.432936,33.965104 L115.432936,30.4627432 C115.432936,28.1274794 117.12049,26.9626747 118.352864,26.1123764 C119.682841,25.1946839 120.561422,24.5884414 120.561422,22.6951371 C120.561422,21.1707437 119.333739,19.930598 117.824141,19.930598 C116.314392,19.930598 115.08686,21.1707437 115.08686,22.6951371 C115.08686,24.02667 114.01398,25.109868 112.695504,25.109868 C111.377027,25.109868 110.304147,24.02667 110.304147,22.6951371 C110.304147,18.5078308 113.67759,15.1011361 117.82399,15.1011361 C121.969936,15.1011361 125.343379,18.5078308 125.343379,22.6951371 C125.343682,27.1379608 122.656489,28.9922957 121.050952,30.0997924 Z" id="Shape" fill-rule="nonzero"></path>
                    </g>
                </g>
            </g>
        </g>
    </g>
</svg>