<?xml version="1.0" encoding="utf-8"?>
<!-- Generator: Adobe Illustrator 19.2.1, SVG Export Plug-In . SVG Version: 6.00 Build 0)  -->
<svg version="1.1" id="圖層_1" xmlns="http://www.w3.org/2000/svg" xmlns:xlink="http://www.w3.org/1999/xlink" x="0px" y="0px"
	 viewBox="0 0 88.9 307.2" style="enable-background:new 0 0 88.9 307.2;" xml:space="preserve">
<style type="text/css">
	.st0{fill:#242E5F;}
</style>
<path class="st0" d="M14.9,306.3c-0.8-0.8-1.1-2.1-0.6-3.2c0.5-1.1,1.5-1.8,2.7-1.8c1.6,0,2.9,1.3,2.9,2.9c0,1.2-0.7,2.3-1.8,2.7
	c-0.4,0.1-0.7,0.2-1.1,0.2C16.2,307.2,15.5,306.8,14.9,306.3z M16.8,298.4c-0.3,0-0.4-0.2-0.4-0.4c0-4,0.3-5.1,1.9-7.5
	c2-2.9,2.5-4.5,2.5-7.3c0-4.2-1.9-5.9-4.4-5.9c-2.1,0-3.7,1.4-3.7,2.7c0,0.4,0.2,0.8,0.5,1c0.7,0.5,1.2,1.3,1.2,2.1
	c0,0.7-0.2,1.5-0.8,2c-0.5,0.5-1.2,0.8-2,0.7c-0.7,0-1.4-0.3-2-0.8c-0.5-0.5-0.8-1.2-0.7-2c0-3.5,4.1-6.7,8.8-6.7
	c5.3,0,8.5,2.8,8.5,6.8c0,3.1-1.1,5-5.6,8.5c-2.7,2.2-3.3,3-3.3,5c0,0.4,0.1,0.8,0.2,1.2C17.6,298.1,17.2,298.4,16.8,298.4
	L16.8,298.4z M18.1,264.8c0-0.6,0.2-4.4,0.2-9.9c0-1.9,0-3.7-0.1-5.6c3.1,0.9,4.1,1.3,4.5,1.6h0.5v-11.3c0.1-2.3,0-4.7-0.3-7
	c5.1,0.4,5.6,0.8,5.6,1.4c0,0.4-0.3,0.6-1.3,1.1v6.7h1.9c2.1-2.8,2.3-3,2.7-3c0.4,0,0.7,0.3,2.1,1.7c1.2,1.2,1.3,1.4,1.3,1.7
	c0,0.3-0.2,0.4-0.5,0.4h-7.6v8.4h1.3c1.6-2.1,1.8-2.2,2.1-2.2c0.4,0,0.8,0.2,2.1,1.4c1.4,1.2,1.6,1.4,1.6,1.8s-0.2,0.5-1.1,1.3v3.6
	c0,2.7,0.2,5.9,0.2,7.3c0,1.1-1.3,1.7-2.9,1.7c-1.3,0-1.4-0.2-1.4-1.4v-1.2h-7v1.3c0,1.1-0.6,1.7-2.7,1.7
	C18.2,266.2,18.1,266,18.1,264.8z M22.1,252v10.4h7v-10.8h-6.5C22.4,251.8,22.3,251.9,22.1,252z M1.4,265.5
	c-0.4-0.3-0.6-0.8-0.6-1.3c0-0.5,0.3-1,1.2-1.9c1.1-1,1.7-2.5,1.7-4.1c0-0.2,0.3-0.2,0.4,0c0.9,1.4,1.3,3.1,1.3,4.7
	c0.1,1.5-1,2.9-2.6,3c-0.1,0-0.2,0-0.2,0C2.1,265.9,1.7,265.8,1.4,265.5z M6.1,263.5c0-0.5,0.1-0.9,0.1-1.7c0.3-1.3,0-2.7-0.7-3.9
	c-0.1-0.2,0.1-0.3,0.3-0.2c2.2,0.6,3.7,2.5,3.8,4.7l0,0c0,1.7-0.8,2.5-2.2,2.5C6.7,265,6.1,264.3,6.1,263.5L6.1,263.5z M10.5,262.4
	c0-1.9-0.8-3.8-2.3-5c-0.2-0.1,0.1-0.3,0.3-0.2c4,0.9,5.4,2.9,5.4,4.9l0,0c0.1,0.5-0.1,1.1-0.5,1.5c-0.3,0.4-0.9,0.6-1.4,0.6
	C11,264.2,10.5,263.4,10.5,262.4L10.5,262.4z M14.3,261.3c-0.1-2-1.4-3.7-3.2-4.5c-0.2-0.1-0.1-0.3,0.1-0.3c4.9,0.1,6.5,2.4,6.5,4.4
	h0c0,1.1-0.5,2.2-1.9,2.2C15.1,263.2,14.5,262.7,14.3,261.3L14.3,261.3z M0.9,254c0.8,0,1.6,0,2.3,0c1.7-0.1,3.1-0.2,4.5-0.3v-3H6.1
	c-1.2,0-2.5,0.1-3.7,0.3L2,249.8c1.3,0.2,2.7,0.3,4,0.3h1.6v-4.2H5.1v0.9c0,1-0.6,1.3-1.9,1.3c-1.2,0-1.3-0.1-1.3-1
	c0-0.7,0.2-4,0.2-8.9c0-3,0-4.1-0.1-5.3c2.5,0.8,3.4,1.2,3.7,1.5h7.7c1.2-1.7,1.3-1.7,1.6-1.7c0.2,0,0.4,0,1.8,1.2
	c1.1,0.9,1.3,1.1,1.3,1.4c0,0.3-0.1,0.4-1,1.1v3.1c0,2.7,0.2,5.4,0.2,6.3c0,1.2-0.6,1.6-2.5,1.6c-0.8,0-0.9-0.3-0.9-1.2v-0.4h-2.7
	v4.2h1.2c1.8-2.2,2-2.4,2.3-2.4c0.3,0,0.4,0,1.8,1.3c1,0.9,1.1,1.2,1.1,1.4s-0.1,0.4-0.4,0.4h-6v2.7c2.1-0.2,4.1-0.5,6.3-0.8
	c0.1,0,0.2,0,0.2,0.1c0,0.1,0,0.2-0.1,0.2c-4.5,2-9.2,3.7-14,5c-0.2,0.8-0.5,1-0.8,1C2.2,259,1.9,258.4,0.9,254L0.9,254z
	 M13.4,239.5c-0.7,1.1-1.5,2.2-2.6,3.9v1.8h3v-5.9C13.7,239.3,13.6,239.4,13.4,239.5L13.4,239.5z M5.1,245.2H8v-3.1
	c-0.1,0.7-0.7,1.3-1.4,1.3c-0.6,0-1-0.5-1-1.2c0-0.5,0.1-1,0.2-1.8c0.1-0.8-0.1-1.6-0.6-2.3L5.1,245.2z M10.8,235.8v6.5
	c0.3-1.2,0.5-2.7,0.7-3.6c0.1-0.6,0.1-1,0.2-1.7c0.7,0.3,1.5,0.7,2.1,1.2l0-3h-2.5C11.3,235.4,11.1,235.5,10.8,235.8L10.8,235.8z
	 M5.1,235.6v1.9c1.5,0.4,2.6,1.6,2.9,3.1v-3.9c0-0.5,0-1,0-1.6H5.7C5.5,235.3,5.3,235.5,5.1,235.6L5.1,235.6z M18.1,221.5
	c0-1,0.3-5.5,0.3-17.1v-3.5h-1.7c0.5,0.6,0.6,0.8,0.6,1c0,0.3-0.2,0.4-0.7,0.4h-5.6v7.2h0.2c1.7-2.1,1.8-2.2,2.1-2.2
	c0.4,0,0.6,0.1,2.2,1.5c1.1,1,1.3,1.3,1.3,1.6s-0.1,0.4-1.1,1.3v1.9c0,2.7,0.2,5,0.2,6c0,1.1-1.3,1.8-2.6,1.8
	c-1.3,0-1.7-0.3-1.7-1.5v-0.8H6.3v1.7c0,1.1-0.9,1.7-2.6,1.7c-1.3,0-1.5-0.2-1.5-1.4c0-0.6,0.2-4,0.2-7.6c0-2.3,0-3.7-0.1-5.5
	c2.8,0.7,4,1.2,4.4,1.5h0.2v-7.2H4.8c-1.2,0-2.4,0.1-3.6,0.3l-0.3-1.2c1.3,0.2,2.6,0.2,4,0.3h2.1v-2.5c0-1.6,0-2.6,0-3.5
	c-2.1,0.2-4.1,0.3-6.2,0.3c-0.2,0-0.3-0.4-0.1-0.4c3.9-1,7.7-2.4,11.2-4.4c0.4-0.2,0.8-0.5,1.1-0.8c3.9,2.8,4.3,3.3,4.3,4
	c0,0.6-0.5,0.6-2.3,0.5c-1,0.1-2.1,0.3-3.1,0.4c0,0.1,0,0.1,0,0.2c0,0.4-0.2,0.5-0.8,0.8v5.5h1.2c1.9-2.8,2.1-2.9,2.3-2.9
	c0.3,0,0.4,0.1,1.7,1.4h2.3c0.1-3.4,0-6.9-0.3-10.3c4.5,0.6,5.6,1,5.6,1.5c0,0.5-0.3,0.8-1.2,1.3v7.5h4c0.1-3.4,0-6.9-0.3-10.3
	c4.4,0.5,5.9,1,5.9,1.4s-0.3,0.8-1.3,1.2l0,7.6c1.5-2.8,1.7-3,1.9-3s0.4,0.1,1.3,1.4c1.1,1.5,1.2,1.6,1.2,1.9s-0.2,0.5-0.6,0.5h-3.8
	v3.2c0,11.7,0.2,15,0.2,16.8c0,1-0.7,1.7-2.8,1.7c-1.4,0-1.7-0.2-1.7-1.4v-2.1h-4v2c0,1.2-1.1,1.7-2.8,1.7
	C18.3,222.8,18.1,222.4,18.1,221.5L18.1,221.5z M22.6,218.4h4v-9.3h-4V218.4z M6.3,210.6v7.7h5.3v-8.1H6.8
	C6.6,210.4,6.5,210.5,6.3,210.6L6.3,210.6z M22.6,208.4h4v-7.5h-4V208.4z M68.3,200.5v-36h1.2v36H68.3z M15.2,180
	c3.6-1.5,6.9-4.8,9.1-9.3c-1-4.1-1.4-8.4-1.2-12.6c-0.8,1.2-1.7,2.4-2.7,3.4c-0.1,0.1-0.4-0.1-0.3-0.3c1.2-2.2,2.3-6.4,2.9-12.8
	c0.1-0.9,0.1-1.4,0.1-2.4c4.8,1.3,5.3,1.5,5.3,2c0,0.4-0.1,0.7-1.2,1c-0.6,1.9-1.3,3.7-2.2,5.5h4.6c1.9-2.7,2.1-2.8,2.3-2.8
	c0.3,0,0.4,0,1.8,1.4c1.1,1.1,1.3,1.3,1.3,1.7c0,0.1,0,0.2-0.1,0.3c-0.1,0.1-0.2,0.1-0.3,0.1h-6c3,0.8,3.7,1.3,3.7,1.8
	c0,0.3-0.2,0.5-1.3,0.9c-0.3,4.2-1.3,8.3-3,12.2c2,2.2,4.3,4.1,6.9,5.5c0.2,0.1,0.1,0.3-0.1,0.4c-1.3,0.5-2.3,1.6-2.8,2.9
	c-0.2,0.4-0.4,0.7-0.7,0.7c-0.4,0-0.8-0.2-1.1-0.5c-1.8-1.5-3.3-3.2-4.6-5.2c-2.7,3.2-6.4,5.5-10.5,6.5h0
	C15.2,180.3,15,180,15.2,180L15.2,180z M24.8,155.2c-0.3,0.5-0.6,1-0.9,1.5c0.1,3.3,0.7,6.6,1.9,9.7c0.8-3.7,1.3-7.5,1.4-11.3
	L24.8,155.2z M3.8,178.6c0-0.9,0.1-3.4,0.2-8.7l0.1-9.8c-1.1,1.6-2.4,3.1-3.8,4.4c-0.2,0.1-0.4-0.1-0.3-0.3
	c1.8-2.8,3.9-8.5,5.4-15.5c0.2-0.8,0.4-1.7,0.5-2.6c5.2,1.8,5.5,2.3,5.5,2.7c0,0.4-0.3,0.8-1.7,1.2c-0.8,2.1-1.8,4.1-2.9,6
	c1.9,0.8,2.3,1.1,2.3,1.5c0,0.3-0.2,0.6-1.1,0.9v8.1c0,8.6,0.1,10.9,0.1,11.8c0,1-0.9,1.5-2.7,1.5C4.1,179.8,3.8,179.5,3.8,178.6
	L3.8,178.6z M10,175.3c0-0.6,0.3-3.9,0.3-8.3c0-2.8,0-3.5-0.1-5.4c1.1,0.2,2.3,0.6,3.3,1v-7.1h-0.5c-0.6,0-1.8,0.1-3.5,0.3l-0.4-1.2
	c1.3,0.2,2.6,0.3,3.9,0.3h0.5v-2c0-2.1,0-4.2-0.2-6.3c4.9,0.6,5.4,0.9,5.4,1.4c0,0.4-0.2,0.6-1.3,1.2v5.7h0.2
	c1.5-2.3,1.5-2.4,1.8-2.4c0.3,0,0.4,0,1.6,1.5c0.8,0.9,0.8,1.1,0.8,1.3c0,0.2-0.1,0.3-0.4,0.3h-4v7.2c1.3-1.5,1.4-1.6,1.7-1.6
	c0.3,0,0.4,0,1.9,1.4c0.9,0.8,1,1,1,1.3c0,0.3-0.1,0.4-1,1v2.4c0,3.2,0.1,5.4,0.1,6.1c0,1-1,1.4-2.8,1.4c-0.9,0-1.2-0.3-1.2-1.2
	v-0.9l-3.3,0v2.5c0,0.9-0.7,1.4-2.4,1.4C10.1,176.6,10,176.4,10,175.3L10,175.3z M13.8,164v7.9h3.3v-8.3h-2.9
	C14.2,163.7,14,163.9,13.8,164L13.8,164z M68.3,164.5v-36h1.2v36H68.3z M13.3,135.5c-0.5-1.7-1.2-2.8-4-3.6c-0.2-0.1-0.2-0.4,0-0.4
	c1.6,0.1,3.1,0.1,4.7-0.1c1.2-0.1,1.6-0.7,1.6-1.7v-9.6c0.1-2.4,0-4.9-0.3-7.3c1.8,0.2,3.2,0.4,4.2,0.5c1.4-2,2.8-4.2,4.2-6.4H9
	c-1.3,0-2.6,0.1-4.6,0.3l-0.4-1.2c2.4,0.2,3.7,0.3,5,0.3l14.4,0c2.3-2.3,2.4-2.4,2.8-2.4c0.4,0,0.6,0,3.5,2.5
	c1.5,1.3,1.7,1.6,1.7,1.9c0,0.6-0.3,0.7-2.5,1.2c-2.6,1.3-5.1,2.7-8,4.2c0.9,0.2,1,0.4,1,0.7c0,0.4-0.1,0.6-1.6,1.3v4.1
	c0,5.3,0.3,10.6,0.3,11.9c0.1,1.6-0.7,3.2-2.2,4c-1.2,0.6-2.6,0.9-4,0.9c0,0-0.1,0-0.1,0C13.8,136.4,13.4,136,13.3,135.5L13.3,135.5
	z M60.1,114.9c1.2,0.1,1.6,0.1,2.9,0.1c3.1,0.1,5.8,0.1,8.5,0.1c1.5-2.1,2.9-4.4,4.1-6.7c0.3-0.6,0.6-1.3,0.9-1.9
	c5.2,1.9,5.5,2.1,5.5,2.6c0,0.5-0.5,0.6-1.9,0.8c-2.5,1.9-4.4,3.4-7.1,5.3c2.6,0,5.2,0,8-0.1c-0.6-1.1-1.5-1.9-2.6-2.5
	c-0.1,0-0.1-0.1-0.1-0.2c0-0.1,0.1-0.1,0.2-0.1c6.2,0,8.5,2.7,8.5,5.1c0,0.7-0.3,1.4-0.8,1.9c-0.5,0.5-1.2,0.8-1.9,0.8
	c-1.1,0-2-0.8-2.1-1.8c-0.1-0.7-0.3-1.3-0.6-1.9c-6,1.1-10,1.8-18.5,3.1c-0.4,0.7-0.5,0.8-0.8,0.8C61.8,120.3,61.6,120,60.1,114.9
	L60.1,114.9z M54.2,120.1c-0.1-0.1-0.1-0.2,0-0.3c1.2-1.7,1.9-3.7,2.2-5.8c0.5-3.1,0.7-6.6,0.7-13.7c0-5.7-0.1-8.1-0.4-10.9
	c4,1,5,1.3,5.2,1.7h7.7v-0.9c0-1.3,0-2.6-0.2-3.9c5.7,0.4,6.4,0.8,6.4,1.3c0,0.4-0.2,0.6-1.5,1.2v2.3h7c2.6-3,2.7-3.1,3.1-3.1
	s0.5,0.1,2.4,1.9c1.2,1.2,1.3,1.3,1.3,1.6c0,0.2-0.1,0.4-0.4,0.4h-26c-0.2,0.2-0.4,0.3-0.7,0.4v7.3c0,2.4-0.1,4.3-0.2,6
	c1.2-1.4,1.7-3.9,1.7-6.9c0-0.5,0-0.9-0.1-1.4c1.3,0.1,2.5,0.3,3.7,0.7v-1.7h-0.5c-1.2,0-2.4,0.1-3.6,0.3l-0.3-1.2
	c1.3,0.2,2.6,0.2,4,0.3H66c0-1,0-2-0.1-3.1c3.6,0.3,4.1,0.5,4.1,0.9c0,0.3-0.2,0.5-0.8,0.8v1.4h0.9c1.5-2,1.7-2.2,1.9-2.2
	s0.4,0,1.5,1.1c0.6,0.6,1,0.9,1.1,1.1h2.8c0-1,0-2-0.1-3.1c3.7,0.3,4.2,0.5,4.2,0.9c0,0.3-0.2,0.5-0.8,0.8v1.4h2.1
	c1.7-2.1,1.8-2.3,2.1-2.3c0.3,0,0.5,0.1,1.8,1.3c1.1,1,1.2,1.2,1.2,1.4c0,0.2-0.1,0.3-0.5,0.3h-6.7c0,4.7,0.1,7.6,0.1,8
	c0,0.9-0.7,1.3-2.3,1.3c-1,0-1.2-0.2-1.2-1.1c0-0.3,0.1-2.4,0.1-5.6C77.3,99,77.1,99,77,99.1c-0.3,2.6-1.8,4.9-4.1,6.2
	c2.2,0.6,2.4,0.8,2.4,1.2c0,0.5-0.4,0.7-1.8,0.9c-1.2,0.8-2.2,1.5-3.3,2.3c0.8,0.5,1.3,1.4,1.3,2.4c0,1.4-1.1,2.5-2.5,2.4
	c-0.8,0.1-1.6-0.4-1.9-1.3c-0.4-1.9-1.8-3.5-3.6-4.2c-0.2-0.1-0.1-0.3,0.1-0.4c1.6-0.3,3.3-0.2,4.9,0.2c0.4-1,0.7-1.9,1-3.1
	c0.1-0.4,0.2-0.8,0.3-1.3c1,0.3,1.8,0.4,2.4,0.6c1.1-1.2,1.9-3.5,1.9-6.4c0-0.5,0-0.9-0.1-1.4c1.1,0.1,2.3,0.3,3.4,0.6v-1.6h-8.2
	c0,4.6,0.1,7.5,0.1,8c0,0.9-0.7,1.3-2.2,1.3c-1,0-1.2-0.2-1.2-1.1c0-0.3,0.1-2.4,0.1-5.7c-0.2,0.2-0.4,0.3-0.7,0.4
	c-0.5,3.5-1.9,5.6-4.6,7c-0.2,2.5-0.8,5-1.7,7.4c-1,2.6-2.5,4.9-4.6,6.7c0,0-0.1,0-0.1,0C54.3,120.2,54.3,120.2,54.2,120.1
	L54.2,120.1z M81.6,103.2c0-0.6,0.1-1.7,0.1-3.2c0-1,0-1.8-0.1-2.6c3,0.3,3.7,0.4,3.7,0.8c0,0.3-0.1,0.4-0.9,0.8l0,2.1
	c0,0.5,0.1,0.6,0.8,0.6s1-0.1,1.3-0.6c0.5-0.9,0.9-1.8,1.2-2.8c0.1-0.2,0.3-0.1,0.3,0.1c-0.1,1.2-0.1,2-0.1,2.4
	c0,0.4,0.1,0.7,0.4,0.9c0.4,0.3,0.6,0.8,0.5,1.3c0,0.8-0.8,1.5-3.9,1.5C82.1,104.5,81.6,104,81.6,103.2L81.6,103.2z M70,102.8
	c0-0.5,0.1-1.5,0.1-3c0-1,0-1.7,0-2.4c3.1,0.4,3.5,0.5,3.5,0.9c0,0.3-0.1,0.4-0.7,0.6v3.7c0,0.8-0.6,1-1.9,1
	C70.3,103.6,70,103.4,70,102.8L70,102.8z M20.2,92.3c0-0.5,0.1-2.4,0.1-4.7h-3.5c-1.2,0-2.4,0.1-3.6,0.3l-0.3-1.2
	c1.3,0.2,2.6,0.2,4,0.3h3.5c0-1.8,0-3.1,0-4H16c-1.2,0-2.4,0.1-3.6,0.3L12,81.9c1.3,0.2,2.6,0.2,4,0.3h2.7c-0.8-0.2-1.2-0.9-1.2-2
	c0-1.5,0-2.6-0.8-3h-0.8c-1.2,0-2.4,0.1-3.6,0.3l-0.3-1.2c1.3,0.2,2.6,0.2,4,0.3h4.5V73h-2.6c-1.2,0-2.5,0.1-3.7,0.3L13.6,72
	c1.3,0.2,2.7,0.3,4,0.3h2.6c0-1.1,0-2.3-0.2-3.4c5,0.4,5.6,0.6,5.6,1.2c0,0.4-0.2,0.6-1.2,1v1.2h2.4c2-2.4,2.1-2.4,2.4-2.4
	s0.4,0.1,1.8,1.4c1,1,1.2,1.2,1.2,1.4S32.1,73,31.9,73h-7.4v3.4h4.7c2.1-2.5,2.2-2.6,2.4-2.6c0.4,0,0.5,0,1.8,1.3s1.3,1.4,1.3,1.6
	s-0.1,0.3-0.4,0.3h-8.5c3.2,1,3.4,1.3,3.4,1.7s-0.2,0.5-1.2,0.7c-1.4,1.3-2.2,1.9-3,2.7h3.6c2.1-2.6,2.2-2.6,2.5-2.6s0.4,0,1.8,1.4
	c1.3,1.3,1.3,1.4,1.3,1.6s-0.1,0.3-0.4,0.3h-8.9c0,0.4-0.1,0.5-0.6,0.8v3.2h3c2.1-2.7,2.2-2.7,2.5-2.7s0.4,0,1.8,1.5
	c1.2,1.3,1.3,1.4,1.3,1.6s-0.1,0.3-0.4,0.3h-8.2c0,2.2,0.1,4,0.1,4.4c0,1-0.8,1.6-3,1.6C20.4,93.5,20.2,93.2,20.2,92.3L20.2,92.3z
	 M21.3,80.1c0,0.9-0.6,1.7-1.4,2h3.9c0.3-1.3,0.6-2.4,0.8-3.6c0.1-0.5,0.1-0.9,0.2-1.4h-7.1C20.4,77.5,21.3,78.8,21.3,80.1
	L21.3,80.1z M4.4,92.4c-0.3-1.2-1-2.3-3.2-3c-0.2-0.1-0.2-0.4,0-0.4c1.4-0.1,2.2-0.1,3.2-0.3c0.8-0.1,1.2-0.6,1.2-1.8v-6.8l-1.6,1.1
	c-0.3,0.8-0.5,1-0.8,1c-0.4,0-0.6-0.1-2.3-5.1c1-0.1,1.9-0.3,3.2-0.6l1.5-0.4v-7.3H4.9c-1.2,0-2.4,0.1-3.5,0.3L1,67.9
	c1.3,0.2,2.6,0.3,3.9,0.3h0.5c0.1-2.7,0-5.4-0.3-8c4.5,0.4,5.5,0.7,5.5,1.3c0,0.4-0.3,0.7-1.3,1.2V68c1.5-2.7,1.6-2.7,1.9-2.7
	c0.3,0,0.4,0,1.4,1.5c0.4,0.6,0.6,0.9,0.7,1.1c0.1-0.9,0.1-2.3,0.1-3.9c0-1.3,0-2.4-0.1-3.6c2.7,0.5,3.7,0.9,4,1.2h10.9
	c1.4-1.6,1.5-1.7,1.8-1.7c0.3,0,0.5,0,1.8,1.1c1.2,0.9,1.3,1.1,1.3,1.4c0,0.3-0.1,0.4-1,1.1v0.7c0,1.2,0.2,2.8,0.2,3.7
	c0,1.2-1,1.6-2.4,1.6c-1.1,0-1.4-0.3-1.4-1.1H16.9v0.4c0,1-0.8,1.3-2.3,1.3c-1,0-1.2-0.1-1.2-1.2v-0.2c-0.1,0-0.1,0.1-0.2,0.1H9.4
	v6.4c1.4-0.4,2.7-0.8,4.2-1.2c0.1-0.1,0.2,0,0.3,0.1c0,0,0,0,0,0c0,0.1,0,0.2-0.1,0.3c0,0,0,0,0,0c-1.5,1.2-3.1,2.3-4.4,3.3
	c0,8.6,0.2,10.3,0.2,11.4c0.1,1.4-0.6,2.7-1.8,3.5c-0.7,0.5-1.6,0.7-2.4,0.8C4.8,93.4,4.6,93.2,4.4,92.4L4.4,92.4z M27.4,62.3
	c0,0.3-0.1,0.4-0.5,0.6v4.8h1.9v-5.4L27.4,62.3z M21.9,63v4.8h1.8V64c0-0.5,0-1.1,0-1.7h-1.2C22.4,62.6,22.3,62.7,21.9,63L21.9,63z
	 M16.9,62.7v5h1.8V64c0-0.5,0-1.1,0-1.7h-1.2C17.4,62.5,17.2,62.6,16.9,62.7L16.9,62.7z M74.1,75.7c0-1,0.3-6.9,0.3-18.1h-4.2
	c-0.8,0-2.4,0.1-4.1,0.3l-0.4-1.2c1.8,0.2,3.4,0.3,4.4,0.3h4.2c0-10.6,0-11.7-0.2-13.7c5.8,0.5,6.2,0.9,6.2,1.4
	c0,0.4-0.4,0.6-1.3,1.2v11.1h2.8c2.6-3.4,2.7-3.5,3.1-3.5c0.4,0,0.5,0.1,2.6,2.1c1.3,1.3,1.4,1.5,1.4,1.7s-0.2,0.4-0.5,0.4H79
	c0,10.8,0.2,17,0.2,17.9c0,1-0.9,1.5-3.2,1.5C74.4,77,74.1,76.9,74.1,75.7L74.1,75.7z M60,75.8c0-0.9,0.1-3.4,0.2-8.4l0.1-10.9
	c-1.7,2-3.7,3.7-5.9,5.2c-0.2,0.1-0.4-0.1-0.3-0.3c2.6-2.9,5.6-8.8,7.9-15.6c0.3-0.8,0.5-1.7,0.7-2.6c5.2,2.1,5.7,2.4,5.7,3
	s-0.3,0.8-1.6,1.1c-1,2-2.3,4-3.6,5.8c2.3,0.8,2.7,1.1,2.7,1.5c0,0.3-0.2,0.6-1.1,0.9v8.1c0,8.7,0.1,10.9,0.1,11.8
	c0,1-1.1,1.5-3.2,1.5C60.2,77,60,76.7,60,75.8L60,75.8z M0.7,44.5c0.7-0.2,1.5-0.4,2.2-0.6C3.9,43.5,5,43,6,42.5V32.4H4.4
	c-1.1,0-2.1,0.1-3.2,0.3l-0.3-1.2c1.2,0.2,2.3,0.3,3.5,0.3h1.2c1.8-2.1,1.9-2.3,2.3-2.3c0.4,0,0.5,0.1,1.8,1.2
	c1.6,1.4,1.8,1.6,1.8,2.1c0,0.3-0.2,0.5-1.2,1.3v8.5c0.3,0.5,0.7,0.9,1.2,1.3c2.3-1.1,4.3-2.7,5.8-4.7c0.1-0.2,0.2-0.4,0.4-0.6h-1.9
	c-1.1,0-1.9,0.1-4,0.3l-0.3-1.2c1.4,0.2,2.9,0.2,4.4,0.3h0.6V34h-0.2c-1.2,0-2.4,0.1-3.6,0.3L12.2,33c1.3,0.2,2.6,0.2,4,0.3h0.2
	c0-1.5,0-2.3-0.1-3.9c4.2,0.3,4.7,0.5,4.7,1c0,0.3-0.1,0.5-0.9,1v1.8h3.3c0-1.5,0-2.3-0.1-3.9c4.2,0.3,4.7,0.5,4.7,1
	c0,0.3-0.1,0.5-0.8,1v1.8h0.9c1.9-2.4,2-2.4,2.2-2.4c0.3,0,0.4,0,1.6,1.3c1,1,1.2,1.2,1.2,1.5c0,0.1,0,0.2-0.1,0.3
	C32.8,34,32.7,34,32.6,34H27v3.5h1.7c2-2.5,2.1-2.6,2.3-2.6c0.3,0,0.5,0.1,1.9,1.4c1.2,1.1,1.2,1.2,1.2,1.5c0,0.2-0.1,0.4-0.4,0.4
	H18.9c2.5,1.5,3,1.8,3,2.2c0,0.5-0.2,0.6-1.7,0.7c-2.6,1.5-5.5,2.3-8.5,2.6c0.4,0.3,0.9,0.6,1.4,0.8c1.2,0.4,3.5,0.5,7.1,0.5
	c5,0,10-0.3,15-0.9c0.2,0,0.3,0.3,0.1,0.4c-1.1,0.8-1.9,2-2.1,3.3c-0.1,0.8-0.4,1.2-1.1,1.3c-0.9,0.1-2.6,0.2-7.9,0.2
	c-8.2,0-10-0.5-11.8-2c-1.3-1.1-2.2-2.6-2.6-4.2c-1.5,1.8-3.2,3.5-5,5.1c-0.4,1-0.6,1.3-1,1.3C3.2,49.5,2.7,48.9,0.7,44.5L0.7,44.5z
	 M20,37.5h3.3V34H20L20,37.5z M29.8,44.2c-0.8,0-1.3-0.3-2.1-1.3c-1.2-1.6-2.8-2.9-4.6-3.6c-0.2-0.1-0.1-0.4,0.1-0.4
	c6.8-0.1,8.5,2,8.5,3.5c0,0.5-0.2,1-0.5,1.3C30.8,44,30.4,44.2,29.8,44.2L29.8,44.2z M79.7,33.9c-0.9,0-1.2-0.1-1.3-0.9
	c-0.4-1.6-1-2.3-3.6-3.1c-0.2-0.1-0.2-0.4,0-0.4c1.9,0,2.8,0,3.9-0.1c1,0.1,1.9-0.4,2.3-1.2c0.9-2.2,1.5-4.5,1.6-6.8H66
	c-4.1,4.3-7.8,6.9-11.3,8.1c-0.2,0.1-0.3-0.3-0.1-0.4c2.3-1.2,6.4-5,9.1-9.5c2-3.2,3.6-6.5,4.8-10h-5.1c-1.4,0-2.8,0.1-4.3,0.3
	l-0.4-1.2c1.5,0.2,3.1,0.3,4.6,0.3h5.4c0.4-1.3,0.8-2.6,1.1-4c0.4-1.6,0.7-3.2,0.9-4.9c5.4,1.7,6,2.2,6,2.7c0,0.5-0.4,0.9-1.7,1.2
	c-0.5,1.7-1,3.4-1.7,5h2.3c1.5-1.6,1.8-1.7,2.1-1.7c0.3,0,0.5,0.1,2,1.2c1.3,0.9,1.4,1.1,1.4,1.4s-0.1,0.4-1.2,1.2
	c-0.4,1.1-0.9,2.7-1.4,4.1H79c1.6-1.6,1.7-1.7,2-1.7c0.3,0,0.6,0.1,1.9,1.2c1.2,1,1.4,1.1,1.4,1.4c0,0.4-0.1,0.5-1,1.1
	c-0.3,1.2-0.7,2.4-1.1,3.7l0.2,0C83.8,19,84,19,84.3,19c0.4,0,0.5,0,2.1,1.4c1.5,1.2,1.6,1.4,1.6,1.8s-0.1,0.5-1.2,1.2
	c-0.8,4.9-1.6,7.7-2.7,8.9c-1.1,1.1-2.6,1.7-4.1,1.7C79.9,33.9,79.8,33.9,79.7,33.9L79.7,33.9z M66.7,20.6h11.1
	c0.6-1.9,1.1-3.6,1.4-5h-8.9C69.2,17.4,68,19.1,66.7,20.6L66.7,20.6z M73,9.6c-0.7,1.8-1.5,3.6-2.5,5.3h3.5c0.7-2.2,1.3-3.9,1.6-5.3
	L73,9.6z M61.6,31c-0.4-0.4-0.7-0.9-0.7-1.5c0-0.8,0.4-1.5,1-1.9c1.3-0.8,2.1-2.2,2.1-3.7c0-0.2,0.1-0.3,0.3-0.1l0,0
	c1.2,1.2,1.8,2.8,1.8,4.5c0,1.3-0.9,3.2-2.8,3.2c-0.1,0-0.2,0-0.2,0C62.5,31.5,62,31.3,61.6,31L61.6,31z M67.9,29.6
	c-0.3-0.4-0.5-0.9-0.4-1.3c0.2-2.3,0.1-3.7-0.5-4.6c-0.1-0.2,0-0.3,0.2-0.3c3.1,0.9,4.2,3,4.2,4.6c0,1.2-1,2.2-2.2,2.2l0,0h-0.1
	C68.6,30.1,68.2,29.9,67.9,29.6L67.9,29.6z M23,26.9c0-0.8,0-1.7,0-2.7c0-0.7,0-1.9-0.1-3.6c2.7,0.7,3.5,1,3.7,1.3h1.5v-2.6h-1.5
	c-1.3,0-2.6,0.1-3.9,0.3l-0.4-1.2c1.4,0.2,2.8,0.3,4.2,0.3h1.3c1.3-1.5,1.4-1.5,1.7-1.5c0.4,0,0.5,0,1.7,1.1c1,0.9,1.1,1,1.1,1.3
	c0,0.3-0.1,0.4-0.8,1v0.7c0,0.5,0.1,1.5,0.1,2.1c0,0.7-0.8,1.2-2.3,1.2c-1,0-1.4-0.4-1.4-1v-0.8h-1.6c-0.2,0.1-0.3,0.2-0.5,0.3v2.2
	c0,0.8,0.2,1.1,1.8,1.1c2.3,0,3-0.3,3.9-1.4c0.5-0.7,1-1.4,1.4-2.1c0.1-0.2,0.3-0.1,0.3,0.1c-0.2,0.7-0.3,1.5-0.4,2.2
	c0,0.3,0,0.7,0.2,1c0.3,0.4,0.4,0.8,0.5,1.3c0,1.2-0.9,1.9-5.8,1.9C23.6,29.2,23,28.6,23,26.9L23,26.9z M12,26.9c0-0.8,0-1.7,0-2.7
	c0-0.7,0-1.9-0.1-3.6c2.6,0.7,3.3,1,3.6,1.3H17v-2.6h-1.6c-1.3,0-2.6,0.1-3.9,0.3l-0.4-1.2c1.4,0.2,2.8,0.3,4.3,0.3h1.5
	c1.2-1.4,1.3-1.5,1.6-1.5c0.3,0,0.5,0,1.7,1c0.9,0.8,1,0.9,1,1.3c0,0.3-0.1,0.4-0.8,1v0.7c0,0.5,0.1,1.5,0.1,2.1
	c0,0.7-0.5,1.2-2.1,1.2c-1,0-1.4-0.4-1.4-1v-0.8h-1.6c-0.2,0.1-0.3,0.2-0.5,0.3v2.3c0,0.8,0.2,1.1,1.9,1.1c1.9,0,2.4-0.3,3.3-1.4
	c0.6-0.7,1-1.5,1.4-2.3c0.1-0.1,0.3-0.1,0.3,0.1c-0.2,0.7-0.3,1.5-0.4,2.2c0,0.3,0,0.6,0.2,0.9c0.3,0.4,0.4,0.8,0.5,1.3
	c0,1.2-0.9,2.1-5.2,2.1C12.6,29.2,12,28.6,12,26.9L12,26.9z M72.9,28.5c-0.3-0.3-0.5-0.8-0.4-1.2c0-1.6,0-3.1-1.1-4.1
	c-0.1-0.1-0.1-0.3,0.1-0.3c3.2,0.5,4.7,2.1,4.7,4.1c0,1.1-1,2-2.1,2c0,0-0.1,0-0.1,0C73.6,28.9,73.2,28.7,72.9,28.5L72.9,28.5z
	 M77.8,27.4c-0.3-0.3-0.5-0.7-0.5-1.2c-0.1-1.6-0.3-3-1.4-3.7l0,0c-0.2-0.1-0.1-0.3,0.1-0.3c3,0.3,4.9,1.4,4.9,3.6
	c0,1-0.9,1.9-1.9,1.9c-0.1,0-0.1,0-0.2,0C78.5,27.8,78.1,27.7,77.8,27.4L77.8,27.4z M7.5,25.2c-1.4,0-2-0.9-2.1-2.7
	c0-1.8-0.8-3.4-2.1-4.6c-0.2-0.1,0.1-0.4,0.3-0.4c4.5,0.5,6.7,2.6,6.7,4.9c0.1,0.7-0.2,1.5-0.7,2c-0.5,0.5-1.1,0.7-1.7,0.7
	C7.7,25.2,7.6,25.2,7.5,25.2L7.5,25.2z M64,7.7c-0.4-0.4-0.6-1-0.5-1.5c0-2.3-0.3-3.8-1.5-4.6c-0.2-0.1-0.1-0.3,0.2-0.3h0
	c3.7,0.2,5.9,2.1,5.9,4.1c0.1,0.7-0.2,1.4-0.7,2c-0.5,0.5-1.2,0.9-1.9,0.9c0,0-0.1,0-0.1,0C64.9,8.3,64.4,8,64,7.7L64,7.7z"/>
</svg>
