<?xml version="1.0" encoding="utf-8"?>
<!-- Generator: Adobe Illustrator 19.2.1, SVG Export Plug-In . SVG Version: 6.00 Build 0)  -->
<svg version="1.1" id="圖層_1" xmlns="http://www.w3.org/2000/svg" xmlns:xlink="http://www.w3.org/1999/xlink" x="0px" y="0px"
	 viewBox="0 0 40 40" style="enable-background:new 0 0 40 40;" xml:space="preserve">
<style type="text/css">
	.st0{fill:#242E5F;}
</style>
<path class="st0" d="M12.2,38.4c-2.4-1-4.5-2.5-6.4-4.3c-1.8-1.8-3.3-4-4.3-6.4C0.5,25.3,0,22.7,0,20c0-2.7,0.5-5.3,1.6-7.8
	c1-2.4,2.5-4.5,4.3-6.4c1.8-1.8,4-3.3,6.4-4.3C14.7,0.5,17.3,0,20,0c2.7,0,5.3,0.5,7.8,1.6c2.4,1,4.5,2.5,6.4,4.3
	c1.8,1.8,3.3,4,4.3,6.4c1,2.5,1.6,5.1,1.6,7.8c0,2.7-0.5,5.3-1.6,7.8c-1,2.4-2.5,4.5-4.3,6.4c-1.8,1.8-4,3.3-6.4,4.3
	c-2.5,1-5.1,1.6-7.8,1.6C17.3,40,14.7,39.5,12.2,38.4z M12.4,2C10.1,3,8,4.4,6.2,6.2C4.4,8,3,10.1,2,12.4c-1,2.4-1.5,5-1.5,7.6
	c0,2.6,0.5,5.2,1.5,7.6c1,2.3,2.4,4.4,4.2,6.2C8,35.6,10.1,37,12.4,38c2.4,1,5,1.5,7.6,1.5c2.6,0,5.2-0.5,7.6-1.5
	c2.3-1,4.4-2.4,6.2-4.2c1.8-1.8,3.2-3.9,4.2-6.2c1-2.4,1.5-5,1.5-7.6c0-2.6-0.5-5.2-1.5-7.6c-1-2.3-2.4-4.4-4.2-6.2
	C32,4.4,29.9,3,27.6,2c-2.4-1-5-1.5-7.6-1.5C17.4,0.5,14.8,1,12.4,2L12.4,2z M13,36.6c-2.1-0.9-4.1-2.2-5.7-3.9
	c-1.6-1.6-3-3.6-3.9-5.7C2.5,24.8,2,22.4,2,20c0-2.4,0.5-4.8,1.4-7c0.9-2.1,2.2-4.1,3.9-5.7c1.6-1.6,3.6-3,5.7-3.9
	C15.2,2.5,17.6,2,20,2c2.4,0,4.8,0.5,7,1.4c2.1,0.9,4.1,2.2,5.7,3.9c1.6,1.6,3,3.6,3.9,5.7c0.9,2.2,1.4,4.6,1.4,7
	c0,2.4-0.5,4.8-1.4,7c-0.9,2.1-2.2,4.1-3.9,5.7c-1.6,1.6-3.6,3-5.7,3.9c-2.2,0.9-4.6,1.4-7,1.4C17.6,38,15.2,37.5,13,36.6L13,36.6z
	 M11.9,30.3c1.2,0.5,2.6,0.8,3.9,0.8c2.4,0.1,4.7-0.6,6.5-2c1.4-1.1,2.3-2.7,2.3-4.5c0-1.9-0.9-3.6-2.4-4.7l-2.6-2.3
	c-1.1-1-2.2-2.2-2.2-4c0-2.1,1.8-3.6,4.5-3.6c1.1,0,2.1,0.3,3,0.9c1,0.7,1.6,1.8,1.5,2.9c0,0.6-0.1,1.1-0.2,1.7l0,0.1h0.4l2-5.6
	l-0.4-0.1c-0.1,0.5-0.6,0.8-1.1,0.8c-0.6,0-1.2-0.2-1.7-0.4c-1.1-0.4-2.2-0.6-3.4-0.7c-1.9,0-3.8,0.5-5.4,1.6
	c-1.3,0.9-2.2,2.4-2.2,4c0,2.2,1.2,3.8,2.9,5.3l2.1,1.9c1.1,0.9,1.8,2.2,1.8,3.6c0,1.3-0.5,2.5-1.4,3.4c-1.1,0.9-2.6,1.4-4,1.3
	c-1.2,0-2.3-0.4-3.3-1c-1-0.7-1.7-1.8-1.7-3c0-0.6,0.1-1.2,0.4-1.7l0,0h-0.4l-2.1,5.8l0.4,0.1c0.1-0.5,0.6-0.9,1.1-0.9
	C10.8,29.9,11.4,30.1,11.9,30.3L11.9,30.3z M28.6,19.8L28.6,19.8c-0.2,0.4-0.4,0.8-0.7,1.2l-0.1,0.1c0,0.1-0.1,0.1-0.1,0.2
	c-0.3,0.3-0.5,0.7-0.5,1.1c0,0.4,0.4,0.8,0.8,0.8c0,0,0,0,0.1,0c0.5,0,0.9-0.4,0.9-0.9c0,0,0,0,0-0.1c0-0.2,0-0.5-0.1-0.7l0-0.2
	C28.6,20.9,28.6,20.4,28.6,19.8L28.6,19.8c0.4,0.5,0.7,1,0.9,1.6c0.2,0.7,0.4,1.2,1.1,1.2c0.5,0,0.9-0.4,0.9-0.9
	c0-0.4-0.3-0.7-0.8-0.9c-0.7-0.2-1.3-0.6-2-1c0.2,0,0.4,0,0.6,0c0.4,0,0.8,0,1.2,0.1c0.1,0,0.1,0,0.2,0c0.2,0,0.4,0.1,0.5,0.1
	c0.5,0,0.9-0.3,0.9-0.8c0,0,0-0.1,0-0.1c0-0.5-0.4-0.9-0.9-0.9c-0.5,0.1-0.9,0.3-1.2,0.7c-0.4,0.4-0.8,0.7-1.3,0.9
	c0.2-0.5,0.5-0.9,0.8-1.3c0-0.1,0.1-0.1,0.1-0.2c0.3-0.3,0.5-0.7,0.5-1.1c0-0.4-0.4-0.8-0.8-0.8c0,0,0,0-0.1,0
	c-0.5,0-0.9,0.4-0.9,0.9c0,0,0,0,0,0.1c0,0.2,0,0.5,0.1,0.7l0,0.2c0.1,0.5,0.1,1,0.1,1.6c-0.3-0.5-0.6-1-0.8-1.5
	c-0.3-0.7-0.4-1.2-1.1-1.2c-0.5,0-0.9,0.4-0.9,0.9c0,0.4,0.3,0.7,0.8,0.9C27.3,19,27.9,19.3,28.6,19.8c-0.2-0.1-0.4,0-0.6,0
	c-0.4,0-0.8,0-1.2-0.1l-0.2,0c-0.2,0-0.4-0.1-0.5-0.1c-0.5,0-0.9,0.3-0.9,0.8c0,0,0,0.1,0,0.1c0,0.5,0.4,0.9,0.9,0.9
	c0.5-0.1,0.9-0.3,1.2-0.7C27.6,20.3,28.1,20,28.6,19.8L28.6,19.8z"/>
</svg>
