<?xml version="1.0" encoding="utf-8"?>
<!-- Generator: Adobe Illustrator 19.2.1, SVG Export Plug-In . SVG Version: 6.00 Build 0)  -->
<svg version="1.1" id="圖層_1" xmlns="http://www.w3.org/2000/svg" xmlns:xlink="http://www.w3.org/1999/xlink" x="0px" y="0px"
	 viewBox="0 0 1000 1000" style="enable-background:new 0 0 1000 1000;" xml:space="preserve">
<style type="text/css">
	.st0{fill:#242E5F;}
</style>
<path class="st0" d="M305.4,960.7C246,935.6,192,899.2,146.4,853.6C100.8,808,64.4,754,39.3,694.6C13.2,633-0.1,566.9,0,500
	c-0.1-66.9,13.2-133.1,39.3-194.6C64.4,246,100.8,192,146.4,146.4C192,100.8,246,64.4,305.4,39.3C366.9,13.2,433.1-0.1,500,0
	C566.9-0.1,633,13.2,694.6,39.3C754,64.4,808,100.8,853.6,146.4c45.7,45.5,82.1,99.5,107.2,158.9c26.1,61.6,39.4,127.8,39.3,194.6
	c0.1,66.9-13.2,133.1-39.3,194.6C935.6,754,899.2,808,853.5,853.6C808,899.2,754,935.6,694.6,960.7C633,986.8,566.9,1000.1,500,1000
	C433.1,1000.1,366.9,986.8,305.4,960.7z M310.2,50.8c-57.9,24.5-110.6,60-155,104.5c-44.5,44.4-80,97-104.5,155
	c-25.4,60-38.4,124.6-38.3,189.8c-0.1,65.2,12.9,129.7,38.3,189.8c24.5,57.9,60,110.6,104.5,155c44.4,44.5,97,80,155,104.5
	c60,25.4,124.6,38.4,189.8,38.3c65.2,0.1,129.7-12.9,189.8-38.3c57.9-24.5,110.6-60,155-104.5c44.5-44.4,80-97,104.5-155
	c25.4-60,38.4-124.6,38.3-189.8c0.1-65.2-12.9-129.7-38.3-189.8c-24.5-57.9-60-110.6-104.5-155c-44.4-44.5-97-80-155-104.5
	c-60-25.4-124.6-38.4-189.8-38.3C434.8,12.4,370.3,25.4,310.2,50.8L310.2,50.8z M324.8,914.6c-53.5-22.6-102.1-55.3-143-96.4
	c-41.1-41-73.9-89.6-96.4-143C61.9,619.7,49.9,560.2,50,500c-0.1-60.2,11.9-119.7,35.4-175.2c22.6-53.5,55.3-102,96.4-143
	c41-41.1,89.6-73.9,143-96.4C380.3,61.9,439.8,49.9,500,50c60.2-0.1,119.8,11.9,175.2,35.4c53.5,22.6,102,55.3,143,96.4
	c41.1,41,73.9,89.6,96.4,143c23.5,55.4,35.5,115,35.4,175.2c0.1,60.2-11.9,119.7-35.4,175.2c-22.6,53.5-55.3,102-96.4,143
	c-41,41.1-89.6,73.9-143,96.4c-55.4,23.5-115,35.5-175.2,35.4C439.8,950.1,380.3,938.1,324.8,914.6L324.8,914.6z M298.6,758.3
	c22.6,8.5,50.8,19.1,98.5,19.1c82.9,0,134.7-27.8,163.6-51c37.2-30,58.6-71.3,58.6-113.2c0-53.4-23-84.8-60.1-118l-65.3-58.7
	c-28.2-25.4-55.7-54-55.7-100.4c0-53.1,46.1-90.2,112.2-90.2c26.2,0,54,8.5,74.3,22.7c17.6,12.3,38.6,35,38.6,73.3
	c0,14-2,27.9-6,41.3l-0.6,2h8.8l50.6-140l-11-2.2c-5,11.4-11.4,19.1-26.4,19.1c-13.8,0-27.4-4.6-43.1-10
	c-21.4-7.3-48.1-16.4-85.2-16.4c-50.9,0-98.6,14.6-134.2,41.2c-35.9,26.7-55.6,62.6-55.6,101.1c0,56.2,29,94,72.6,133.4l52,47.6
	c30.8,28.5,44,55.7,44,90.9c0,34.7-12.3,64-35.6,84.8c-23.9,21.3-58.5,32.5-100,32.5c-28.8,0-59.8-9.6-83-25.6
	c-19.3-13.3-42.3-37.3-42.3-75.6c0-16,4.4-28.4,9.4-42.9l0.1-0.4h-9.5l-52,145.9l10.3,2.2c2.3-13.1,14.6-23.4,27.9-23.4
	C269.8,747.4,283.1,752.4,298.6,758.3L298.6,758.3z M714.6,495c-4.3,10.9-5.7,12.7-18.6,29.5l-2.7,3.5c-1.1,1.5-2.4,3.1-3.6,4.7
	c-6.3,8.2-13.5,17.4-13.5,28.3c0,13.5,11,19.6,21.3,19.6c13.3,0,23-9.7,23-23c0-3.7-0.6-8-2.2-18.5l-0.7-4.9
	c-3.2-24.1-3-26.2-1.4-37.5l0.2-1.4c10.5,13.7,15.6,27.6,19.7,38.8c6.1,16.7,10.5,28.8,27.9,28.8c12,0,21.7-10.5,21.7-23.4
	c0-9.5-6.5-16.8-19.2-21.7c-9.3-3.5-34-12.9-48.9-23.8c4.6-0.5,9.2-0.8,13.8-0.8c9.5,0,18.8,1,30,2.5c1.6,0.2,3.2,0.5,4.8,0.7
	c4.5,0.8,9,1.2,13.6,1.4c14.2,0,23.4-8.5,23.4-21.7c0-12.2-10.1-23-21.7-23c-10.5,0-20.4,8.7-30.9,18c-9.8,8.6-21.4,17.9-33.4,21.3
	c4.6-11.6,5.3-12.8,20.9-33c1.1-1.5,2.3-3.1,3.6-4.7c6.4-8.2,13.5-17.4,13.5-28.3c0-13.5-11-19.6-21.3-19.6c-13.3,0-23,9.7-23,23
	c0,3.6,0.6,8,2.2,18.5l0.7,4.9c3.3,24.7,3.3,26.2,1.7,38.8c-10.4-13.6-15.6-27.5-19.8-38.7c-6.3-16.8-10.8-29-28.3-29
	c-12,0-21.7,10.5-21.7,23.4c0,9.5,6.5,16.8,19.2,21.7c15.9,6,35.7,14.2,48.9,23.8c-4.6,0.5-9.3,0.8-13.9,0.8c-9.5,0-18.8-1-29.9-2.4
	c-1.7-0.2-3.3-0.5-5-0.7c-4.4-0.8-8.9-1.2-13.4-1.4c-14.2,0-23.4,8.5-23.4,21.7c0,12.2,10.1,23,21.7,23c10.5,0,20.4-8.7,30.9-18
	C689.2,508.8,701.8,498.6,714.6,495L714.6,495L714.6,495z"/>
</svg>
