<?xml version="1.0" encoding="utf-8"?>
<!-- Generator: Adobe Illustrator 19.2.1, SVG Export Plug-In . SVG Version: 6.00 Build 0)  -->
<svg version="1.1" id="圖層_1" xmlns="http://www.w3.org/2000/svg" xmlns:xlink="http://www.w3.org/1999/xlink" x="0px" y="0px"
	 viewBox="0 0 59.3 218.7" style="enable-background:new 0 0 59.3 218.7;" xml:space="preserve">
<style type="text/css">
	.st0{fill:#242E5F;}
</style>
<path class="st0" d="M20.1,218.7c-1.7,0-3-1.4-3-3c0-1.7,1.4-3,3-3c1.7,0,3,1.3,3,3c0,0.8-0.3,1.6-0.9,2.1
	C21.7,218.4,21,218.7,20.1,218.7L20.1,218.7z M20.1,213.5L20.1,213.5c-1.2,0-2.2,1-2.2,2.2c0,0,0,0,0,0c0,1.2,1,2.2,2.2,2.2
	c0,0,0,0,0,0c1.2,0,2.2-1,2.2-2.2c0,0,0,0,0,0c0-0.6-0.2-1.1-0.6-1.6C21.3,213.7,20.7,213.5,20.1,213.5L20.1,213.5z M9.3,206.2
	c-0.4,0-0.6-0.2-0.8-0.6c-0.4-1.1-1.1-1.8-3-2.4c-0.1,0-0.1-0.3,0-0.3c1.1,0.1,2.2,0,3.3,0c0.8-0.1,1.1-0.5,1.1-1.1v-6.4h-6
	c-0.8,0-1.8,0-3.1,0.2l-0.2-0.8c1.6,0.1,2.5,0.2,3.4,0.2h6c0.1-1.5,0-3-0.2-4.4c1.2,0.1,2,0.2,2.7,0.3c0.9-1.3,1.8-2.8,2.7-4.3H6.3
	c-0.8,0-1.8,0-3.1,0.2l-0.2-0.8c1.6,0.1,2.5,0.2,3.4,0.2h8.5c1.4-1.5,1.5-1.5,1.8-1.5c0.3,0,0.5,0,2,1.4c1.3,1.1,1.4,1.2,1.4,1.6
	c0,0.4-0.1,0.4-1.7,0.7c-1.8,1-3.2,1.8-5,2.8c0.6,0.2,0.7,0.3,0.7,0.5c0,0.3-0.1,0.4-1.1,0.9v2.5h4.6c1.9-2.4,2.1-2.5,2.3-2.5
	c0.3,0,0.4,0.1,1.9,1.5c0.8,0.7,1,1.1,1,1.2s-0.1,0.3-0.3,0.3H13c0,3.4,0.2,6.8,0.2,7.6c0.1,1.1-0.4,2.1-1.4,2.6
	c-0.7,0.4-1.5,0.6-2.3,0.6L9.3,206.2z M4.4,175.7c0-0.4,0.1-3.1,0.1-9.9c0-6.3,0-7.2-0.1-8.7c2.7,0.6,3.4,0.9,3.6,1.2l7,0
	c1.4-1.6,1.5-1.7,1.7-1.7s0.3,0,1.6,1c1.2,0.9,1.2,1,1.2,1.2c0,0.2-0.1,0.4-0.8,1v5.1c0,7.4,0.1,9.6,0.1,10.2c0,0.7-0.6,1.2-2.2,1.2
	c-1.1,0-1.3-0.1-1.3-0.9v-1.8H7.6v1.8c0,0.9-0.6,1.2-2,1.2C4.7,176.5,4.4,176.4,4.4,175.7L4.4,175.7z M7.6,173h7.8v-7.2H7.6V173z
	 M7.6,159.1v6.2h7.8v-6.6H8.1C7.9,158.9,7.8,159,7.6,159.1L7.6,159.1z M45.3,162.5v-24h0.8v24H45.3z M13.9,148.2
	c-0.3-0.9-1-1.7-2.7-2.3c-0.1,0-0.1-0.1-0.1-0.1c0-0.1,0.1-0.1,0.1-0.1c0.9,0,1.8,0,2.6-0.1c0.6-0.1,0.9-0.4,0.9-1.1v-6.6h-1.5
	c-0.6,0-1.6,0-2.7,0.2l-0.2-0.8c1.2,0.1,2.3,0.2,3,0.2h1.5v-0.5c0-2,0-4-0.1-5.4c0.9,0.2,1.6,0.3,2.1,0.4c0.6-1.2,1-2.2,1.4-3.3
	h-4.8c-0.8,0-1.6,0.1-2.4,0.2l-0.2-0.8c0.9,0.1,1.8,0.2,2.7,0.2h4.6c1.2-1.4,1.3-1.4,1.5-1.4c0.3,0,0.4,0,1.8,1.2
	c1,0.8,1.1,0.9,1.1,1.2c0,0.3-0.1,0.4-1.3,0.7c-1.1,0.7-2.1,1.5-3.5,2.4c0.9,0.3,1.1,0.5,1.1,0.7c0,0.2-0.1,0.5-0.9,0.8v3.9h1.3
	c1.6-2.2,1.6-2.2,1.9-2.2s0.3,0,1.3,1.1s1,1.1,1,1.3c0,0.1,0,0.1-0.1,0.2c0,0-0.1,0.1-0.2,0.1h-5.3v0.7c0,4.2,0.1,6.6,0.1,7.3
	c0.1,1-0.5,2-1.4,2.5c-0.5,0.3-1.1,0.5-1.7,0.5C14.3,148.8,14.1,148.7,13.9,148.2z M0.1,148.5c2.6-1.2,4.6-3.4,5.8-6
	c-0.4-0.4-0.9-0.8-1.4-1.1l-0.2,1.1c-0.1,0.6-0.6,0.9-1.5,0.9c-0.9,0-1.2-0.2-1.2-0.6c0-0.1,0-0.2,0-0.3c0.6-2.8,1.3-6.1,1.8-9.3
	H2.7c-0.8,0-1.6,0.1-2.3,0.2l-0.2-0.8c0.9,0.1,1.7,0.2,2.6,0.2h0.7c0.2-1.5,0.5-3,0.7-4.5c0.1-0.5,0.1-0.9,0.1-1.4
	c3.1,0.5,3.5,0.7,3.5,1c0,0.3-0.1,0.4-0.9,0.7c-0.2,1.4-0.5,2.8-0.7,4.2h1.6c1-1.3,1.1-1.4,1.3-1.4c0.2,0,0.3,0,1.4,0.9
	c0.8,0.6,0.9,0.7,0.9,1c0,0.2,0,0.3-0.7,0.7c-0.2,2.9-0.9,5.7-2,8.4c1.2,0.5,2,1.7,2.2,3c0,0.4-0.1,0.8-0.4,1.1
	c-0.3,0.3-0.7,0.5-1.1,0.5c-0.6,0-1-0.3-1.3-1.1c-0.2-0.5-0.4-0.9-0.7-1.4c-1.6,2.1-3.9,3.5-7.1,4.4c0,0,0,0,0,0
	c-0.1,0-0.1-0.1-0.1-0.1C0,148.6,0,148.5,0.1,148.5L0.1,148.5z M4.5,140.9c0.6,0.1,1.2,0.2,1.8,0.3c0.9-2.6,1.5-5.4,1.6-8.2H6
	C5.5,135.8,5,138.4,4.5,140.9L4.5,140.9z M45.3,138.5v-24H46v24H45.3z M17.3,120c-0.5,0-0.6-0.1-0.7-0.6c-0.4-1.3-1-2-2.8-2.4
	c-0.1,0-0.1-0.3,0-0.3c1.2,0.1,2.3,0.1,3.5,0c0.8,0,1.3-0.4,1.5-1.9c0.4-3.9,0.6-7.7,0.5-11.6h-4.9c-1.1,1.7-2.3,3.2-3.8,4.5
	c-0.1,0.1-0.3-0.1-0.2-0.2c1-1.5,2.1-5.1,2.6-8.3c0.1-0.5,0.2-1.1,0.2-1.6c3.8,1,4,1.2,4,1.5c0,0.3-0.2,0.4-1,0.7
	c-0.4,1-1,2-1.5,2.9h4.3c1.2-1.4,1.3-1.5,1.5-1.5c0.3,0,0.4,0,1.7,1.1c0.7,0.6,0.8,0.7,0.8,0.9c0,0.2-0.1,0.3-0.8,0.9
	c0,6.7-0.1,10.5-0.6,12.5c-0.2,1.9-1.9,3.3-3.8,3.3C17.6,120,17.5,120,17.3,120L17.3,120z M1.3,117.4c0-0.6,0.2-5.1,0.2-8
	c0-3.7,0-5.4-0.1-7.3c1.1,0.3,1.8,0.5,2.3,0.7c0.1-1.2,0.2-2.1,0.3-3.4c0-0.4,0-0.8,0-1.4c3.2,0.6,3.7,0.8,3.7,1.2
	c0,0.2-0.2,0.5-0.9,0.7c-0.8,1.2-1.5,2.2-2.3,3.2H7c1-1.2,1.1-1.3,1.3-1.3c0.3,0,0.4,0,1.3,0.8c1,0.8,1.1,1,1.1,1.2s0,0.3-0.7,0.8
	v2.6c0,4.9,0.2,8,0.2,8.6c0,0.7-0.6,1.1-1.8,1.1c-0.9,0-1.1-0.1-1.1-0.9v-1.2H4v2.3c0,0.7-0.6,1.1-1.7,1.1
	C1.5,118.3,1.3,118.2,1.3,117.4L1.3,117.4z M4,114.4h3.2v-5.2H4V114.4z M4.5,103.6c0,0.1-0.2,0.2-0.5,0.4v4.7h3.2v-5.1L4.5,103.6z
	 M15.2,112.9c-0.8,0-1.3-0.5-1.4-1.8c-0.1-1.9-0.3-3.1-1.4-4c-0.1-0.1,0-0.2,0.1-0.2c3.1,0.4,4.6,2.2,4.6,3.9
	c0.1,0.5-0.1,1.1-0.5,1.5C16.2,112.7,15.7,112.9,15.2,112.9L15.2,112.9z M38.5,108.2c0-0.6,0.1-2.3,0.1-5.9l0.1-6.5
	c-0.8,1.1-1.7,2.1-2.6,2.9c-0.1,0.1-0.3-0.1-0.2-0.2c1.2-1.8,2.6-5.5,4-10.3c0.1-0.6,0.3-1.1,0.4-1.7c3.2,1.2,3.6,1.5,3.6,1.8
	c0,0.3-0.2,0.6-1.1,0.8c-0.6,1.4-1.3,2.7-2.1,4c1.3,0.5,1.5,0.7,1.5,1c0,0.2-0.1,0.4-0.7,0.6v5.4c0,5.8,0,7.3,0,7.9
	c0,0.7-0.7,1-1.9,1C38.7,109,38.5,108.8,38.5,108.2L38.5,108.2z M43.9,108c0-0.6,0.2-4.4,0.2-14.3c0-3.6,0-5.2-0.1-6.5
	c2.3,0.5,3.1,0.8,3.3,1.1h7.3c1.2-1.4,1.2-1.4,1.5-1.4c0.2,0,0.3,0,1.4,0.9c0.9,0.8,0.9,0.9,0.9,1.1c0,0.2-0.1,0.3-0.6,0.8v4.3
	c0,9.2,0.1,12.8,0.1,13.5c0,0.7-0.7,1.2-2.1,1.2c-0.7,0-0.9-0.2-0.9-0.9v-0.9h-8.3v0.8c0,0.7-0.5,1.2-1.8,1.2
	C44,108.8,43.9,108.7,43.9,108L43.9,108z M46.6,89.1v17.3h8.3V88.8h-7.8C47,88.9,46.8,89,46.6,89.1L46.6,89.1z M47.6,104.4
	c0-0.5,0.1-2,0.1-4.4c0-1,0-2-0.1-3.3c0.9,0.2,1.4,0.4,1.8,0.6v-3.6h-0.1c-0.4,0-1.2,0-2.3,0.2L46.8,93c0.9,0.1,1.7,0.2,2.6,0.2h0.1
	c0-1.3,0-2.6-0.1-3.8c2.7,0.2,2.8,0.4,2.8,0.7c0,0.2,0,0.3-0.5,0.6v2.6h0.4c0.9-1.4,1-1.4,1.1-1.4s0.2,0,0.9,0.8
	c0.5,0.6,0.6,0.7,0.6,0.9c0,0.1-0.1,0.2-0.3,0.2h-2.8v3.8c0.6-0.9,0.7-1,0.9-1c0.2,0,0.2,0,0.9,0.7c0.7,0.6,0.7,0.7,0.7,0.9
	s0,0.2-0.4,0.6v1c0,2.5,0.1,4,0.1,4.4c0,0.7-0.4,1-1.6,1c-0.6,0-0.7-0.2-0.7-0.8v-0.6h-1.9v0.7c0,0.6-0.4,0.9-1.5,0.9
	C47.8,105,47.6,104.9,47.6,104.4L47.6,104.4z M49.8,98.3v4.7h1.8v-5h-1.5C50.1,98.1,49.9,98.2,49.8,98.3L49.8,98.3z M11.8,90.2
	c0-0.4,0.1-3,0.1-6.6c0-1.2,0-2.5-0.1-3.7c2,0.6,2.7,0.8,3,1.1h0.4v-7.5c0-1.6,0-3.1-0.2-4.7c3.4,0.2,3.7,0.6,3.7,0.9
	c0,0.2-0.2,0.4-0.8,0.7v4.5h1.3c1.4-1.8,1.6-2,1.8-2c0.2,0,0.5,0.2,1.4,1.1c0.8,0.8,0.9,0.9,0.9,1.1c0,0.2-0.1,0.3-0.3,0.3h-5.1V81
	h0.9c1.1-1.4,1.2-1.5,1.4-1.5c0.3,0,0.5,0.1,1.4,0.9c0.9,0.8,1.1,0.9,1.1,1.2s-0.1,0.4-0.7,0.9v2.4c0,1.8,0.1,3.9,0.1,4.9
	c0,0.7-0.8,1.1-1.9,1.1c-0.8,0-1-0.1-1-0.9v-0.8h-4.7V90c0,0.7-0.4,1.2-1.8,1.2C11.9,91.2,11.8,91,11.8,90.2L11.8,90.2z M14.5,81.7
	v7h4.7v-7.2h-4.4C14.7,81.5,14.6,81.6,14.5,81.7L14.5,81.7z M0.7,90.7c-0.3-0.2-0.4-0.6-0.4-0.9c0-0.4,0.2-0.6,0.8-1.2
	c0.7-0.7,1.1-1.7,1.1-2.7c0-0.1,0.2-0.1,0.3,0c0.6,0.9,0.9,2,0.8,3.1c0.1,1-0.7,1.9-1.7,2c-0.1,0-0.1,0-0.2,0
	C1.2,91,0.9,90.9,0.7,90.7L0.7,90.7z M3.9,89.4c0-0.3,0-0.6,0.1-1.1c0.2-0.9,0-1.8-0.5-2.6c-0.1-0.1,0.1-0.2,0.2-0.1
	c1.4,0.4,2.5,1.7,2.5,3.1c0,1.1-0.6,1.7-1.5,1.7C4.2,90.3,3.8,89.9,3.9,89.4L3.9,89.4z M6.7,88.6c0-1.3-0.6-2.5-1.6-3.4
	c-0.1-0.1,0-0.2,0.2-0.1c2.7,0.6,3.6,1.9,3.6,3.3l0,0c0,0.4-0.1,0.7-0.3,1c-0.2,0.3-0.6,0.4-0.9,0.4C7.1,89.8,6.7,89.3,6.7,88.6
	L6.7,88.6z M9.3,87.9c-0.1-1.3-0.9-2.5-2.2-3c-0.1-0.1,0-0.2,0.1-0.2c3.2,0.1,4.3,1.6,4.3,3l0,0c0,0.7-0.4,1.5-1.2,1.5
	C9.9,89.1,9.4,88.8,9.3,87.9L9.3,87.9z M0.3,83.1c0.5,0,1,0,1.6,0c1.1,0,2.1-0.1,3-0.2v-2H3.8c-0.8,0-1.6,0.1-2.5,0.2l-0.2-0.8
	c0.9,0.1,1.8,0.2,2.7,0.2h1.1v-2.8H3.2v0.6c0,0.7-0.4,0.9-1.3,0.9C1.1,79.1,1,79,1,78.4c0-0.5,0.1-2.7,0.1-5.9c0-2,0-2.7-0.1-3.5
	c0.9,0.2,1.7,0.5,2.5,1h5.1c0.8-1.1,0.9-1.2,1.1-1.2c0.1,0,0.3,0,1.2,0.8c0.7,0.6,0.9,0.7,0.9,1c0,0.2,0,0.2-0.6,0.7v2.1
	c0,1.8,0.1,3.6,0.1,4.2c0,0.8-0.4,1.1-1.7,1.1c-0.5,0-0.6-0.2-0.6-0.8v-0.3H7.2v2.8H8c1.2-1.5,1.3-1.6,1.5-1.6c0.2,0,0.3,0,1.2,0.9
	c0.6,0.6,0.7,0.8,0.7,0.9s-0.1,0.3-0.2,0.3h-4v1.8c1.4-0.1,2.7-0.3,4.2-0.5c0.1,0,0.1,0,0.1,0.1c0,0.1,0,0.1-0.1,0.1
	c-3,1.3-6.1,2.4-9.3,3.3c-0.1,0.5-0.3,0.6-0.5,0.6C1.2,86.3,1,86,0.3,83.1L0.3,83.1z M8.7,73.4c-0.5,0.7-1,1.5-1.7,2.6v1.2h2v-4
	C8.9,73.2,8.8,73.3,8.7,73.4L8.7,73.4z M3.2,77.1h1.9v-2.1c-0.1,0.5-0.5,0.8-1,0.9c-0.4,0-0.6-0.4-0.6-0.8c0-0.3,0.1-0.7,0.1-1.2
	c0.1-0.5-0.1-1.1-0.4-1.5V77.1z M6.9,70.9v4.3c0.2-0.8,0.4-1.8,0.5-2.4c0.1-0.4,0.1-0.7,0.1-1.1c0.5,0.2,1,0.5,1.4,0.8v-2H7.3
	C7.3,70.6,7.2,70.7,6.9,70.9L6.9,70.9z M3.2,70.7V72c1,0.3,1.7,1.1,1.9,2.1v-2.6c0-0.3,0-0.7,0-1.1H3.5C3.4,70.6,3.3,70.7,3.2,70.7
	L3.2,70.7z M36,79.7c1.6-1.2,3.8-4.7,4.9-8.7c0.1-0.6,0.2-0.9,0.4-1.5c3.5,1.2,3.7,1.3,3.7,1.7c0,0.3-0.1,0.4-0.9,0.6
	c-0.3,0.8-0.8,1.6-1.3,2.4c0.5,0.8,1.2,1.4,2.1,1.7c0.5,0.2,1,0.3,1.5,0.4v-5c0-0.9,0-1.6-0.1-2.5h-6.5c-0.9,0-1.8,0.1-2.7,0.2
	l-0.2-0.8c1.2,0.1,2.2,0.2,3,0.2h14.3c1.7-2.1,1.7-2.1,1.9-2.1s0.3,0,1.6,1.3c0.9,0.8,0.9,0.9,0.9,1.1c0,0.1,0,0.1-0.1,0.2
	c-0.1,0-0.1,0.1-0.2,0.1h-8.4c0,0.2-0.1,0.3-0.5,0.5v3.4h2.9c1.6-2,1.6-2,1.8-2c0.3,0,0.3,0,1.6,1.2c0.8,0.8,0.9,0.8,0.9,1
	c0,0.1,0,0.1-0.1,0.2c0,0-0.1,0.1-0.2,0.1h-7v3.4c0.8,0,1.8,0,2.9,0c2.3,0,4.5-0.1,6.7-0.4c0.1,0,0.2,0.2,0,0.3
	c-1,0.5-1.7,1.5-1.9,2.7c0,0.3-0.3,0.6-0.7,0.6c-1.3,0.1-2.5,0.1-3.8,0.1c-3.7,0-6-0.6-7.6-1.6c-1.4-0.8-2.3-2.2-2.7-3.7
	c-1.6,2.3-3.8,4.1-6.3,5.3c0,0,0,0-0.1,0c-0.1,0-0.1,0-0.2-0.1C35.9,79.8,35.9,79.7,36,79.7L36,79.7z M40.9,66.8
	c0-0.4,0.1-2.4,0.1-5.2c0-1.2,0-2.7-0.1-3.7c2.6,0.5,3.3,0.8,3.5,1h6.4c1.1-1.3,1.2-1.3,1.5-1.3c0.2,0,0.4,0,1.6,0.9
	c1,0.8,1.1,0.9,1.1,1.1c0,0.2,0,0.2-0.6,0.7v2.2c0,2.1,0.1,3.1,0.1,3.5c0,0.7-0.7,1.1-2.1,1.1c-1,0-1.1-0.1-1.1-0.8v-0.5h-7.2v0.8
	c0,0.7-0.6,1-2,1C41.1,67.6,40.9,67.4,40.9,66.8L40.9,66.8z M43.9,65.3h7.2v-2.8h-7.2V65.3z M43.9,59.7v2.4h7.2v-2.7h-6.8
	C44.2,59.5,44,59.6,43.9,59.7L43.9,59.7z M11.8,61.4c0-0.7,0.2-3.7,0.2-11.4v-2.3h-1.1c0.3,0.4,0.4,0.5,0.4,0.7
	c0,0.2-0.1,0.3-0.5,0.3H7v4.8h0.1c1.1-1.4,1.2-1.5,1.4-1.5c0.2,0,0.4,0.1,1.5,1c0.7,0.6,0.9,0.8,0.9,1.1s0,0.3-0.7,0.8v1.2
	c0,1.8,0.1,3.3,0.1,4c0,0.7-0.9,1.2-1.7,1.2c-0.9,0-1.1-0.2-1.1-1v-0.6H4v1.1C4,61.6,3.3,62,2.2,62c-0.9,0-1-0.1-1-0.9
	c0-0.4,0.1-2.6,0.1-5.1c0-1.5,0-2.5-0.1-3.7c1,0.2,2,0.5,3,1h0.1v-4.8H3c-0.8,0-1.6,0-2.4,0.2l-0.2-0.8C1.2,48,2.1,48.1,3,48.1h1.4
	v-1.7c0-1.1,0-1.8,0-2.3c-1.4,0.1-2.8,0.2-4.1,0.2c-0.1,0-0.2-0.2,0-0.3c2.6-0.6,5.1-1.6,7.4-3c0.3-0.1,0.5-0.3,0.7-0.5
	c2.6,1.8,2.9,2.2,2.9,2.6c0,0.4-0.3,0.4-1.6,0.3c-0.7,0.1-1.4,0.2-2.1,0.3c0,0,0,0.1,0,0.1c0,0.2-0.1,0.3-0.6,0.5v3.7h0.8
	c1.3-1.9,1.4-1.9,1.5-1.9c0.2,0,0.3,0.1,1.1,1H12c0.1-2.3,0-4.6-0.2-6.9c3,0.4,3.7,0.7,3.7,1c0,0.4-0.2,0.5-0.8,0.9v5h2.7
	c0.1-2.3,0-4.6-0.2-6.9c3,0.4,4,0.6,4,1s-0.2,0.6-0.9,0.8v5.1c1-1.9,1.2-2,1.3-2s0.2,0,0.9,0.9c0.7,1,0.8,1.1,0.8,1.3
	s-0.1,0.3-0.4,0.3h-2.5v2.2c0,7.8,0.1,10,0.1,11.2c0,0.7-0.5,1.2-1.9,1.2c-0.9,0-1.2-0.1-1.2-0.9v-1.4h-2.7v1.3
	c0,0.8-0.7,1.1-1.9,1.1C12,62.2,11.8,62,11.8,61.4L11.8,61.4z M14.8,59.3h2.7v-6.2h-2.7V59.3z M4,54.1v5.2h3.6v-5.4H4.3
	C4.2,53.9,4.1,54,4,54.1L4,54.1z M14.8,52.6h2.7v-5h-2.7V52.6z M36.2,51.3c3.1-1.2,5.6-3.4,7.2-6.3c1.2-2.2,1.8-4.5,1.9-7h-4.2
	c-0.8,0-1.8,0-3.1,0.2l-0.2-0.8c1.6,0.1,2.5,0.2,3.4,0.2h4.2c0.1-1,0.1-2.1,0.1-3.4c0-0.9,0-1.6,0-2.2h-5.2c-0.8,0-1.8,0-3.1,0.2
	l-0.2-0.8c1.6,0.1,2.5,0.2,3.4,0.2h13.5c1.8-2.1,2-2.3,2.2-2.3c0.3,0,0.4,0.1,1.8,1.3c1,0.9,1.1,1,1.1,1.2c0,0.2-0.1,0.3-0.3,0.3h-9
	c0,0.3-0.1,0.5-0.6,0.8c0,1.9,0,3.4-0.2,4.8h4.2c1.8-2.2,1.9-2.3,2.1-2.3c0.3,0,0.5,0.1,1.7,1.2c0.9,0.8,1.1,1.1,1.1,1.2
	c0,0.2-0.1,0.3-0.3,0.3l-8.5,0c0.6,2.6,2.1,4.9,4.2,6.6c1.8,1.6,3.8,2.8,6.1,3.6c0.1,0,0.1,0.2,0,0.2c-1.1,0.2-1.7,0.8-2.6,2.3
	c-0.3,0.4-0.4,0.5-0.6,0.5c-0.3-0.1-0.6-0.2-0.8-0.4c-2.1-1.3-3.8-3.1-4.9-5.3c-1-2.2-1.5-4.5-1.5-6.9c-0.2,2.4-0.9,4.7-2.2,6.7
	c-2.3,3.4-5.9,5.6-10,6.3h0C36.2,51.5,36,51.3,36.2,51.3L36.2,51.3z M9.3,30.4c0-1.3,0.1-1.7,5.7-9h-2.8c-0.8,0-1.6,0.1-2.4,0.2
	l-0.2-0.8c0.9,0.1,1.7,0.2,2.6,0.2H15c1.4-1.5,1.5-1.6,1.7-1.6c0.3,0,0.4,0.1,1.4,0.9c1.1,0.9,1.2,1.1,1.2,1.3c0,0.3,0,0.4-1.8,1.3
	c-4.3,5-5.1,6-5.1,6.6s0.1,0.7,3.6,0.7c2.5,0,3.5-0.3,4.1-0.8c0.9-1.1,1.5-2.3,1.9-3.7c0-0.1,0.2-0.1,0.2,0c-0.1,2-0.1,2.6-0.1,2.9
	c0,0.4,0.2,0.8,0.4,1.1c0.3,0.4,0.4,0.8,0.4,1.3c0,1.1-0.7,1.9-7.2,1.9C10,32.8,9.4,31.9,9.3,30.4L9.3,30.4z M1,26.9
	c0-0.7,0.1-4.5,0.1-7.9c0-2.8,0-4.1-0.1-5.5c2.3,0.6,3,0.9,3.2,1.2h1c1-1.2,1.1-1.3,1.3-1.3c0.2,0,0.3,0,1.4,0.9
	c0.9,0.7,1,0.9,1,1.1c0,0.2,0,0.3-0.7,0.9v2.5c0,3.9,0.1,5.7,0.1,6.3c0,0.7-0.5,1.2-2,1.2c-0.6,0-0.8-0.2-0.8-0.9v-0.5H3.7v2
	c0,0.7-0.6,1-1.9,1C1.2,27.8,1,27.7,1,26.9z M3.7,15.5v8.7h1.8v-9.1H4.2C4,15.3,3.9,15.4,3.7,15.5L3.7,15.5z M49.3,22.7
	c-1.1,0-2.2-0.3-2.2-0.8c0-0.3,0.1-0.6,0.2-0.8c1-2.3,1.9-4.7,2.6-7.1h-7c-1,0-1.9,0-2.9,0.2l-0.2-0.8c1,0.1,2.1,0.2,3.1,0.2h6.4
	c1.2-1.5,1.4-1.6,1.6-1.6c0.3,0,0.5,0.1,1.8,1.3c0.8,0.7,0.9,0.8,0.9,1.1c0,0.3-0.1,0.4-1,0.9c-0.7,2.4-1.5,4.8-2.5,7.2
	C50.1,22.5,49.7,22.7,49.3,22.7L49.3,22.7z M8.4,21.2c1.3-2.6,2.1-5.4,2.6-8.2c0.1-0.6,0.2-1.2,0.3-1.9c3.8,0.9,4.1,1.1,4.1,1.4
	c0,0.4-0.2,0.5-1.1,0.8c-0.5,1.1-1.1,2.3-1.8,3.3h5.9c1.8-2.3,1.9-2.4,2.1-2.4s0.4,0,1.7,1.4c0.8,0.8,0.9,1,0.9,1.2
	s-0.1,0.3-0.4,0.3H12.1c-1,1.5-2.2,3-3.5,4.3c0,0-0.1,0-0.1,0C8.4,21.4,8.3,21.3,8.4,21.2L8.4,21.2z M36.1,13.2
	C38.7,11.4,42,7,44.1,2.1c0.3-0.7,0.5-1.4,0.7-2.1c3.8,0.8,4.2,1.1,4.2,1.4c0,0.3-0.2,0.4-0.8,0.6c1.4,2.2,3.3,4,5.6,5.4
	c1.7,1.1,3.6,2,5.5,2.6c0.1,0,0.1,0.2,0,0.2c-1,0.5-1.8,1.4-2.3,2.4c-0.2,0.3-0.3,0.4-0.5,0.4c-0.2,0-0.4-0.1-0.5-0.1
	c-1.7-0.9-3.1-2.1-4.3-3.6c-1.7-2.1-3-4.6-3.7-7.2c-2.4,5-6.5,8.9-11.5,11.3c0,0,0,0,0,0C36.1,13.4,36,13.2,36.1,13.2L36.1,13.2z
	 M42.7,9.7c0.9,0.1,1.8,0.2,2.7,0.2h2.1C48.9,8.1,49,8,49.2,8c0.2,0,0.3,0.1,1.5,1.2c0.7,0.7,0.8,0.7,0.8,0.9s-0.1,0.3-0.2,0.3h-5.9
	c-0.8,0-1.6,0.1-2.4,0.2L42.7,9.7z"/>
</svg>
