<?xml version="1.0" encoding="utf-8"?>
<!-- Generator: Adobe Illustrator 19.2.1, SVG Export Plug-In . SVG Version: 6.00 Build 0)  -->
<svg version="1.1" id="圖層_1" xmlns="http://www.w3.org/2000/svg" xmlns:xlink="http://www.w3.org/1999/xlink" x="0px" y="0px"
	 viewBox="0 0 59.4 218.5" style="enable-background:new 0 0 59.4 218.5;" xml:space="preserve">
<style type="text/css">
	.st0{fill:#242E5F;}
</style>
<path class="st0" d="M20.2,218.5c-1.7,0-3-1.4-3-3c0-1.7,1.4-3,3-3c1.7,0,3,1.3,3,3c0,0.8-0.3,1.6-0.9,2.1
	C21.8,218.2,21.1,218.5,20.2,218.5L20.2,218.5z M18,215.5c0,1.2,1,2.2,2.2,2.2c1.2,0,2.2-1,2.2-2.2c0-0.6-0.2-1.1-0.6-1.6
	c-0.4-0.4-1-0.6-1.6-0.6l0,0C19,213.3,18,214.3,18,215.5z M17.4,206.2c-0.5,0-0.6-0.1-0.7-0.6c-0.4-1.3-1-2-2.8-2.4
	c-0.1,0-0.1-0.3,0-0.3c1.2,0.1,2.3,0.1,3.5,0c0.8,0,1.3-0.4,1.5-1.9c0.4-3.9,0.6-7.7,0.5-11.6h-4.9c-1.1,1.7-2.3,3.2-3.8,4.5
	c-0.1,0.1-0.3-0.1-0.2-0.2c1-1.5,2.1-5.1,2.6-8.3c0.1-0.5,0.2-1.1,0.2-1.6c3.8,1,4,1.2,4,1.5c0,0.3-0.2,0.4-1,0.7
	c-0.4,1-1,2-1.5,2.9h4.3c1.2-1.4,1.3-1.5,1.5-1.5c0.3,0,0.4,0,1.7,1.1c0.7,0.6,0.8,0.7,0.8,0.9c0,0.2-0.1,0.3-0.8,0.9
	c0,6.7-0.1,10.5-0.6,12.5c-0.2,1.9-1.9,3.3-3.8,3.3C17.7,206.2,17.6,206.2,17.4,206.2L17.4,206.2z M1.3,203.6c0-0.6,0.2-5.1,0.2-8
	c0-3.7,0-5.4-0.1-7.3c1.1,0.3,1.8,0.5,2.3,0.7c0.1-1.2,0.2-2.1,0.3-3.4c0-0.4,0-0.8,0-1.4c3.2,0.6,3.7,0.8,3.7,1.2
	c0,0.2-0.2,0.5-0.9,0.7c-0.8,1.2-1.5,2.2-2.3,3.2h2.6c1-1.2,1.1-1.3,1.3-1.3c0.3,0,0.4,0,1.3,0.8c1,0.8,1.1,1,1.1,1.2
	s-0.1,0.3-0.7,0.8v2.6c0,4.9,0.2,8,0.2,8.6c0,0.7-0.6,1.1-1.8,1.1c-0.9,0-1.1-0.1-1.1-0.9v-1.2H4.1v2.3c0,0.7-0.6,1.1-1.7,1.1
	C1.5,204.5,1.3,204.4,1.3,203.6L1.3,203.6z M4.1,200.7h3.2v-5.2H4.1V200.7z M4.6,189.9c0,0.1-0.2,0.2-0.5,0.4v4.7h3.2v-5.1
	L4.6,189.9z M15.2,199.1c-0.8,0-1.3-0.5-1.4-1.8c-0.1-1.9-0.3-3.1-1.4-4c-0.1-0.1,0-0.2,0.1-0.2c3.1,0.4,4.6,2.2,4.6,3.9
	c0.1,0.5-0.1,1.1-0.5,1.5C16.3,198.9,15.8,199.1,15.2,199.1L15.2,199.1z M2.4,176.5c0-0.6,0.2-5.1,0.2-10.3c0-3.6,0-5.2-0.1-6.5
	c2.6,0.5,3.4,0.8,3.6,1.1h3.9v-0.1c0-2.6,0-4.2-0.1-5.5c3.7,0.3,4.1,0.5,4.1,0.9c0,0.2-0.2,0.4-0.8,0.7v4h4.3
	c1.3-1.4,1.4-1.4,1.6-1.4s0.5,0.1,1.6,1c0.8,0.6,1,0.8,1,1s-0.1,0.4-0.7,0.8v4.3c0,5.1,0.1,8.8,0.1,9.4c0,0.7-0.7,1.2-2.1,1.2
	c-1.1,0-1.2-0.2-1.2-0.9v-1.1H5.5v1.1c0,0.7-0.6,1.2-2.1,1.2C2.5,177.4,2.4,177.3,2.4,176.5L2.4,176.5z M13.1,174.7h4.7v-6.9h-4.7
	V174.7z M5.5,174.7h4.5v-6.9H5.5V174.7z M13.1,167.3h4.7v-6h-4.7V167.3z M5.5,161.6v5.7h4.5v-6H6C5.9,161.5,5.7,161.6,5.5,161.6
	L5.5,161.6z M45.4,162.4v-24h0.8v24H45.4z M5.7,146.9c1.2,0.1,2.3,0.2,3,0.2h5.2v-4.4h-2.2c-0.8,0-1.6,0-2.4,0.2L9,142.1
	c0.9,0.1,1.8,0.2,2.6,0.2h2.2v-4.4h-1.7v0.5c0,0.9-0.5,1.2-1.7,1.2c-0.9,0-1.1-0.1-1.1-0.9c0-0.4,0.1-3.1,0.1-7.4
	c0-2.3,0-3.2-0.1-4.6c2.3,0.5,3,0.7,3.2,1h5.6c1.1-1.1,1.2-1.2,1.4-1.2c0.3,0,0.4,0,1.6,1c0.9,0.8,1,0.8,1,1.1
	c0,0.2-0.1,0.3-0.8,0.9v2.8c0,2.9,0.1,5.3,0.1,5.8c0,0.7-0.5,1.2-2,1.2c-0.8,0-1-0.1-1-0.9v-0.5h-1.8v4.4h1.6
	c1.4-1.8,1.6-1.9,1.8-1.9c0.2,0,0.4,0.1,1.5,1.1c0.9,0.8,0.9,0.9,0.9,1.1s-0.1,0.2-0.2,0.2h-5.5v4.4H19c1.5-2,1.6-2,1.8-2
	s0.3,0,1.5,1.1c0.9,0.8,1,0.9,1,1.2c0,0.1,0,0.1-0.1,0.2c0,0-0.1,0.1-0.2,0.1H8.6c-0.6,0-1.6,0.1-2.7,0.2L5.7,146.9z M16.7,137.3
	h1.9v-4.3h-1.9V137.3z M12.1,137.3h1.7v-4.3h-1.7V137.3z M16.7,128.6v4h1.8v-4.5h-1.4C17.1,128.2,16.9,128.4,16.7,128.6L16.7,128.6z
	 M12.1,128.4v4.1h1.7v-3.3c0-0.5,0-0.9,0-1.2h-1.3C12.4,128.2,12.3,128.4,12.1,128.4L12.1,128.4z M0.3,141.6c0.5,0,1,0,1.5-0.1
	l1.4-0.2v-5.9c-0.8,0-1.6,0.1-2.4,0.2l-0.2-0.8c0.9,0.1,1.7,0.2,2.6,0.2v-3.9c0-0.7,0-1.5-0.1-2.2c-0.8,0-1.7,0.1-2.5,0.2l-0.2-0.8
	c0.9,0.1,1.9,0.2,2.8,0.2h2.5c1.3-1.7,1.4-1.7,1.6-1.7s0.3,0,1.2,1.1c0.6,0.7,0.7,0.7,0.7,0.9c0,0.1,0,0.1-0.1,0.2
	c0,0-0.1,0.1-0.2,0.1H6.5c0,0.2-0.2,0.4-0.6,0.6v5.5c1.1-1.5,1.2-1.6,1.3-1.6c0.2,0,0.3,0,1,0.9c0.7,0.8,0.7,0.9,0.7,1
	c0,0.1-0.1,0.2-0.3,0.2H6v5.5c1.3-0.2,2.5-0.4,3.7-0.7c0.1,0,0.2,0.2,0.1,0.3c-2.3,1.5-4.7,2.9-7.1,4.1c-0.1,0.8-0.3,1-0.5,1
	C1.8,145.6,1.5,145.4,0.3,141.6L0.3,141.6z M45.4,138.4v-24h0.8v24H45.4z M16.8,118.9c-1-0.9-2.2-1.7-3.4-2.4
	c-2.7,2.3-6.6,3.3-12.3,3.1c-0.1,0-0.2-0.2,0-0.2c4.3-0.3,7.7-1.6,10-4c-1-0.4-2-0.7-3.1-1l-0.7,1c-0.3,0.5-0.9,0.7-1.4,0.7
	c-1.1,0-2-0.2-2-0.6c0-0.2,0.1-0.4,0.3-0.5c1.1-1.4,2-2.6,2.8-3.9H3.7c-1,0-2,0.1-3,0.2l-0.2-0.8c1.1,0.1,2.1,0.2,3.2,0.2h3.6
	c0.6-0.9,1.1-1.8,1.6-2.7c0.2-0.3,0.3-0.7,0.5-1H5.8v0.1c0,1-0.6,1.3-1.9,1.3c-0.8,0-0.9-0.1-0.9-0.8c0-0.3,0.1-1.8,0.1-3
	c0-1.3,0-2.4-0.1-3.4c2.5,0.6,3.2,0.8,3.3,1.1h1.6v-2.6H4.6c-1.2,0-2.5,0-3.7,0.2L0.7,99c1.3,0.1,2.6,0.2,3.9,0.2h13.8
	c1.7-2,1.7-2,1.9-2s0.3,0,1.5,1.1c0.9,0.8,1,0.9,1,1.2c0,0.1,0,0.1-0.1,0.2c-0.1,0.1-0.1,0.1-0.2,0.1h-6.9c0,0.1-0.2,0.2-0.4,0.4
	v2.2h1.9c1.2-1.3,1.3-1.4,1.5-1.4c0.2,0,0.4,0,1.5,0.9c0.8,0.6,0.9,0.7,0.9,1c0,0.2,0,0.3-0.7,0.8v0.5c0,1.2,0.1,2.7,0.1,2.9
	c0,0.7-0.6,1.1-2,1.1c-1,0-1.2-0.2-1.2-0.9v-0.3H10c2.4,0.6,2.8,0.9,2.8,1.3c0,0.3-0.3,0.5-1.2,0.8c-0.3,0.5-0.6,1.1-1,1.6l7.7,0
	c1.7-2,1.8-2.1,2-2.1s0.4,0.1,1.6,1.2c0.9,0.8,1,1,1,1.2c0,0.2-0.1,0.3-0.3,0.3h-6.8c1.5,0.3,1.8,0.5,1.8,0.8c0,0.3-0.2,0.4-1.1,0.7
	c-0.4,0.8-0.9,1.6-1.5,2.3c1.3,0.3,2.6,0.7,3.7,1.4c1,0.6,1.4,1.1,1.4,2c-0.1,0.8-0.7,1.4-1.6,1.5C17.9,119.7,17.3,119.4,16.8,118.9
	L16.8,118.9z M8.3,114.1c1.4,0,2.6,0.1,3.8,0.3c0.4-0.6,0.8-1.1,1.1-1.8c0.2-0.5,0.4-1,0.6-1.5h-3.4C9.7,112.1,9,113.1,8.3,114.1
	L8.3,114.1z M15.3,106.4h2.1v-3.7h-2.1V106.4z M10.5,106.4h2.1v-3.7h-2.1V106.4z M5.8,103.1v3.4h2.1v-3.7H6.2
	C6,102.9,5.9,103,5.8,103.1L5.8,103.1z M10.5,100v2.3h2.1v-2.6h-1.8C10.8,99.8,10.7,99.9,10.5,100L10.5,100z M47.9,107.8
	c0-0.4,0.1-3,0.1-6.6c0-1.2,0-2.5-0.1-3.7c2,0.6,2.7,0.8,3,1.1h0.4V91c0-1.6,0-3.1-0.2-4.7c3.4,0.2,3.7,0.6,3.7,0.9
	c0,0.2-0.2,0.4-0.8,0.7v4.5h1.3c1.4-1.8,1.6-2,1.8-2c0.2,0,0.5,0.2,1.4,1.1c0.8,0.8,0.9,0.9,0.9,1.1c0,0.2-0.1,0.3-0.3,0.3H54v5.6
	h0.9c1.1-1.4,1.2-1.5,1.4-1.5c0.3,0,0.5,0.1,1.4,0.9c0.9,0.8,1.1,0.9,1.1,1.2s-0.1,0.4-0.7,0.9v2.4c0,1.8,0.1,3.9,0.1,4.9
	c0,0.7-0.8,1.1-1.9,1.1c-0.8,0-1-0.1-1-0.9v-0.8h-4.7v0.9c0,0.7-0.4,1.2-1.8,1.2C48,108.7,47.9,108.6,47.9,107.8L47.9,107.8z
	 M50.6,99.3v7h4.7V99h-4.4C50.8,99.1,50.7,99.2,50.6,99.3L50.6,99.3z M36.8,108.3c-0.3-0.2-0.4-0.6-0.4-0.9c0-0.4,0.2-0.6,0.8-1.2
	c0.7-0.7,1.1-1.7,1.1-2.7c0-0.1,0.2-0.1,0.3,0c0.6,0.9,0.9,2,0.8,3.1c0.1,1-0.7,1.9-1.7,2c-0.1,0-0.1,0-0.2,0
	C37.3,108.6,37,108.5,36.8,108.3L36.8,108.3z M39.9,107c0-0.3,0-0.6,0.1-1.1c0.2-0.9,0-1.8-0.5-2.6c-0.1-0.1,0.1-0.2,0.2-0.1
	c1.4,0.4,2.5,1.7,2.5,3.1c0,1.1-0.6,1.7-1.5,1.7C40.3,107.9,39.9,107.5,39.9,107L39.9,107z M42.8,106.2c0-1.3-0.6-2.5-1.6-3.4
	c-0.1-0.1,0-0.2,0.2-0.1c2.7,0.6,3.6,1.9,3.6,3.3l0,0c0,0.4-0.1,0.7-0.3,1c-0.2,0.3-0.6,0.4-0.9,0.4
	C43.2,107.4,42.8,106.9,42.8,106.2L42.8,106.2z M45.4,105.5c-0.1-1.3-0.9-2.5-2.2-3c-0.1-0.1,0-0.2,0.1-0.2c3.2,0.1,4.3,1.6,4.3,3
	c0,0.7-0.4,1.5-1.3,1.5C45.9,106.7,45.5,106.4,45.4,105.5L45.4,105.5z M36.4,100.6c0.5,0,1,0,1.6,0c1.1,0,2.1-0.1,3-0.2v-2h-1.1
	c-0.8,0-1.6,0.1-2.4,0.2l-0.2-0.8c0.9,0.1,1.8,0.2,2.7,0.2h1.1v-2.8h-1.7v0.6c0,0.7-0.4,0.9-1.3,0.9c-0.8,0-0.9-0.1-0.9-0.7
	c0-0.5,0.1-2.7,0.1-5.9c0-2,0-2.7-0.1-3.5c0.9,0.2,1.7,0.5,2.5,1h5.1c0.8-1.1,0.9-1.2,1.1-1.2c0.1,0,0.3,0,1.2,0.8
	c0.7,0.6,0.9,0.7,0.9,1c0,0.2,0,0.2-0.6,0.7V91c0,1.8,0.1,3.6,0.1,4.2c0,0.8-0.4,1.1-1.7,1.1c-0.5,0-0.6-0.2-0.6-0.8v-0.3h-1.8V98
	H44c1.2-1.5,1.3-1.6,1.5-1.6c0.2,0,0.3,0,1.2,0.9c0.6,0.6,0.7,0.8,0.7,0.9s-0.1,0.3-0.2,0.3h-4v1.8c1.4-0.1,2.7-0.3,4.2-0.5
	c0.1,0,0.1,0,0.1,0.1c0,0.1,0,0.1-0.1,0.1c-3,1.3-6.1,2.4-9.3,3.3c-0.1,0.5-0.3,0.6-0.5,0.6C37.3,104,37.1,103.6,36.4,100.6
	L36.4,100.6z M44.8,90.9c-0.5,0.7-1,1.5-1.7,2.6v1.2h2v-4C45,90.8,44.9,90.9,44.8,90.9L44.8,90.9z M39.2,94.7h1.9v-2.1
	c-0.1,0.5-0.5,0.8-1,0.9c-0.4,0-0.6-0.4-0.6-0.8c0-0.3,0.1-0.7,0.1-1.2c0.1-0.5-0.1-1.1-0.4-1.5V94.7z M43,88.4v4.3
	c0.2-0.8,0.4-1.8,0.5-2.4c0.1-0.4,0.1-0.7,0.1-1.1c0.5,0.2,1,0.5,1.4,0.8v-2h-1.7C43.4,88.2,43.3,88.3,43,88.4L43,88.4z M39.2,88.3
	v1.3c1,0.3,1.7,1.1,1.9,2.1v-2.6c0-0.3,0-0.7,0-1.1h-1.5C39.5,88.2,39.4,88.2,39.2,88.3L39.2,88.3z M16.9,90.4
	c-0.2-0.7-0.7-1.3-1.4-1.5v0.5c0,0.6-0.5,0.9-2.1,0.9c-0.6,0-0.7-0.2-0.7-0.8c0-0.2,0.1-2.9,0.1-5c0-0.6,0-1.2,0-1.6h-1.6
	c-0.1,0.1-0.2,0.2-0.3,0.2v1.3c0,2.2,0.1,4.6,0.1,4.9c0,0.6-0.5,0.9-2,0.9c-0.7,0-0.9-0.2-0.9-0.8c0-0.2,0.1-2.8,0.1-5
	c0-0.6,0-1.1,0-1.6H6.6c-0.1,0.1-0.3,0.3-0.4,0.4v0.9c0,3.2,0,5.3,0,5.7c0,0.6-0.5,1-1.9,1c-0.8,0-0.9-0.2-0.9-0.7
	c0-0.5,0.1-3.2,0.1-5.4c0-1.1,0-1.9-0.1-3c2.3,0.4,3,0.6,3.2,0.8h2.7c0.2-0.8,0.3-1.4,0.5-2.2H3.8c-1,0-1.9,0.1-2.9,0.2l-0.2-0.8
	c1.3,0.1,2.3,0.2,3.1,0.2l15,0c1.5-1.7,1.6-1.8,1.8-1.8c0.2,0,0.4,0.1,1.4,1c0.9,0.8,1,0.9,1,1.1c0,0.1-0.1,0.2-0.3,0.2h-9.2
	c0,0.3-0.1,0.4-0.7,0.5c-0.9,0.7-1.5,1.2-2.2,1.7H17c1.2-1.3,1.3-1.3,1.5-1.3c0.3,0,0.4,0,1.8,1c0.5,0.3,0.6,0.5,0.6,0.7
	c0,0.2,0,0.3-0.6,0.8V85c0,2.2,0.1,3.2,0.1,3.5c0.1,1-0.5,1.8-1.4,2.2c-0.5,0.2-1,0.3-1.5,0.3C17.1,91,17,90.8,16.9,90.4L16.9,90.4z
	 M15.4,83.2v1.3c0,1.5,0,3.2,0,4.1c0.5,0,1,0,1.5-0.1c0.2,0,0.4-0.2,0.4-0.4v-5.2h-1.7C15.7,83,15.6,83.1,15.4,83.2L15.4,83.2z
	 M47.9,78.9c0-0.7,0.2-3.7,0.2-11.4v-2.3H47c0.3,0.4,0.4,0.5,0.4,0.7c0,0.2-0.1,0.3-0.5,0.3h-3.8v4.8h0.1c1.1-1.4,1.2-1.5,1.4-1.5
	c0.2,0,0.4,0.1,1.5,1c0.7,0.6,0.9,0.8,0.9,1.1s0,0.3-0.7,0.8v1.2c0,1.8,0.1,3.3,0.1,4c0,0.7-0.9,1.2-1.7,1.2c-0.9,0-1.1-0.2-1.1-1
	v-0.6h-3.6v1.1c0,0.7-0.6,1.2-1.8,1.2c-0.9,0-1-0.1-1-0.9c0-0.4,0.1-2.6,0.1-5.1c0-1.5,0-2.5-0.1-3.7c1,0.2,2,0.5,3,1h0.1v-4.8H39
	c-0.8,0-1.6,0-2.4,0.2l-0.2-0.8c0.9,0.1,1.8,0.2,2.6,0.2h1.4V64c0-1.1,0-1.8,0-2.3c-1.4,0.1-2.8,0.2-4.1,0.2c-0.1,0-0.2-0.2,0-0.3
	c2.6-0.6,5.1-1.6,7.4-3c0.3-0.1,0.5-0.3,0.7-0.5c2.6,1.8,2.9,2.2,2.9,2.6c0,0.4-0.3,0.4-1.6,0.3c-0.7,0.1-1.4,0.2-2.1,0.3
	c0,0,0,0.1,0,0.1c0,0.2-0.1,0.3-0.6,0.5v3.7h0.8c1.3-1.9,1.4-1.9,1.5-1.9c0.2,0,0.3,0.1,1.1,1h1.6c0.1-2.3,0-4.6-0.2-6.9
	c3,0.4,3.7,0.7,3.7,1c0,0.4-0.2,0.5-0.8,0.9v5h2.7c0.1-2.3,0-4.6-0.2-6.9c2.9,0.4,4,0.6,4,1s-0.2,0.6-0.9,0.8v5.1c1-1.9,1.2-2,1.3-2
	s0.2,0,0.9,0.9c0.7,1,0.8,1.1,0.8,1.3s-0.1,0.3-0.4,0.3h-2.6v2.2c0,7.8,0.1,10,0.1,11.2c0,0.7-0.5,1.2-1.9,1.2
	c-0.9,0-1.2-0.1-1.2-0.9v-1.4h-2.7v1.3c0,0.8-0.7,1.1-1.9,1.1C48,79.8,47.9,79.6,47.9,78.9L47.9,78.9z M50.9,76.9h2.7v-6.2h-2.7
	V76.9z M40.1,71.7v5.2h3.6v-5.4h-3.2C40.3,71.5,40.2,71.6,40.1,71.7L40.1,71.7z M50.9,70.2h2.7v-5h-2.7V70.2z M10.1,78.5
	c0-0.5,0.1-2.7,0.1-5.5l-6.1,0c0,0.2,0.1,0.5,0.1,0.7c0,1.3-0.6,2.7-2,2.7c-0.4,0-0.8-0.1-1.1-0.4c-0.3-0.3-0.5-0.7-0.4-1.1
	c0-0.6,0.3-1.1,0.8-1.4C2.4,73,3,72.1,3,71.1c0-0.1,0.1-0.1,0.2,0C3.6,71.5,3.9,72,4,72.5h6.2c0-0.7,0-1.3-0.1-2H6.4
	c-0.9,0-1.7,0.1-2.6,0.2l-0.2-0.8C4.8,70,5.7,70,6.4,70h10.2c1.3-1.7,1.5-1.7,1.7-1.7c0.2,0,0.3,0,1.3,0.9c0.9,0.8,1,0.9,1,1.1
	c0,0.1-0.1,0.2-0.3,0.2h-6.7c0,0.2-0.1,0.3-0.5,0.4v1.6h5.4c1.2-1.4,1.4-1.5,1.6-1.5c0.2,0,0.5,0.1,1.8,1.2c0.9,0.8,1.1,1.1,1.1,1.5
	c0,0.3-0.3,0.5-0.9,0.5c-0.4,0-0.8,0.1-1.2,0.3c-0.5,0.2-1,0.6-2.2,1.2c-0.1,0.1-0.2,0-0.2-0.1c0.3-0.9,0.5-1.7,0.6-2.6h-6.1v0.2
	c0,2.4,0.1,4.7,0.1,5.2c0,0.6-0.5,0.9-2,0.9C10.3,79.2,10.1,79,10.1,78.5L10.1,78.5z M13.7,77.2c0.7,0.1,1.4,0.1,2.1,0.1h1.5
	c1-1.2,1.1-1.2,1.2-1.2c0.1,0,0.3,0,1.1,0.8c0.6,0.5,0.6,0.6,0.6,0.7c0,0.2-0.1,0.2-0.2,0.2h-4.3c-0.5,0-1.2,0-1.9,0.1L13.7,77.2z
	 M3.2,77.2c0.7,0.1,1.4,0.1,2.1,0.1h1.5c0.9-1.2,1-1.2,1.2-1.2c0.1,0,0.3,0,0.9,0.6c0.6,0.5,0.6,0.7,0.6,0.8c0,0.1,0,0.1-0.1,0.2
	c0,0-0.1,0.1-0.2,0.1h-4c-0.4,0-1.1,0-1.9,0.1L3.2,77.2z M13.7,74.8c0.6,0.1,1.2,0.1,1.8,0.1h0.3c0.9-1.2,1-1.2,1.2-1.2
	s0.2,0,0.9,0.7c0.6,0.6,0.6,0.6,0.6,0.8c0,0.1,0,0.1-0.1,0.2c0,0-0.1,0.1-0.2,0.1h-2.7c-0.5,0-1.1,0-1.6,0.1L13.7,74.8z M4.4,74.8
	C5.1,74.9,5.8,75,6.5,75h0.3c0.9-1.2,1-1.2,1.1-1.2s0.2,0,0.9,0.7c0.6,0.5,0.6,0.6,0.6,0.8c0,0.1,0,0.1-0.1,0.2c0,0-0.1,0.1-0.2,0.1
	H6.5c-0.4,0-1.1,0-1.9,0.1L4.4,74.8z M10,61.4c0-0.7,0.1-4.1,0.1-9.1v-1.4c-2.8,2.7-6.2,4.9-9.8,6.3C0.1,57.2,0,57,0.1,56.9
	c3.5-2.1,8.8-8.1,11.1-12.7c0.3-0.5,0.5-1,0.7-1.5H4.5c-0.8,0-1.8,0-3.1,0.2L1.1,42c1.6,0.1,2.5,0.2,3.4,0.2h12.9
	c1.9-2.2,2-2.3,2.3-2.3c0.3,0,0.4,0,1.7,1.3c0.9,0.8,1.1,1.1,1.1,1.2s-0.1,0.3-0.3,0.3l-7.8,0c1.8,0.4,2.1,0.7,2.1,1
	c0,0.3-0.3,0.5-1,0.6c-0.7,1.2-1.5,2.4-2.4,3.5c0.6,0.2,0.7,0.3,0.7,0.5c0,0.2-0.1,0.3-0.6,0.6v3.5c0,4.4,0.2,8.1,0.2,8.9
	c0,0.7-0.8,1.1-2.2,1.1C10.3,62.3,10,62.1,10,61.4L10,61.4z M19.2,54.7c-0.9-2.7-2.6-5-5-6.6c-0.1,0-0.1-0.1-0.1-0.2
	c0-0.1,0.1-0.1,0.2-0.1c5.1,0.6,8.6,3.6,8.6,6.3l0,0c0,1.5-0.8,2.2-1.8,2.2C20.2,56.4,19.6,55.9,19.2,54.7L19.2,54.7z M45.4,48
	c0-1.3,0.1-1.7,5.7-9h-2.8c-0.8,0-1.6,0.1-2.4,0.2l-0.2-0.8c0.9,0.1,1.7,0.2,2.6,0.2h2.7c1.4-1.5,1.5-1.6,1.7-1.6
	c0.3,0,0.4,0.1,1.4,0.9c1.1,0.9,1.2,1.1,1.2,1.3c0,0.3,0,0.4-1.8,1.3c-4.3,5-5.1,6-5.1,6.6s0.1,0.7,3.6,0.7c2.5,0,3.5-0.3,4.1-0.8
	c0.9-1.1,1.5-2.3,1.9-3.7c0-0.1,0.2-0.1,0.2,0c-0.1,2-0.1,2.6-0.1,3c0,0.4,0.2,0.8,0.4,1.1c0.3,0.4,0.4,0.8,0.4,1.3
	c0,1.1-0.7,1.9-7.2,1.9C46.1,50.4,45.4,49.5,45.4,48L45.4,48z M37.1,44.5c0-0.7,0.1-4.5,0.1-7.9c0-2.8,0-4.1-0.1-5.5
	c2.3,0.6,3,0.9,3.2,1.2h1c1-1.2,1.1-1.3,1.3-1.3c0.2,0,0.3,0,1.4,0.9c0.9,0.7,1,0.9,1,1.1c0,0.2,0,0.3-0.7,0.9l0,2.5
	c0,3.9,0.1,5.7,0.1,6.3c0,0.7-0.5,1.2-2,1.2c-0.6,0-0.8-0.2-0.8-0.9v-0.5h-1.8v2c0,0.7-0.6,1-1.9,1C37.3,45.4,37.1,45.3,37.1,44.5
	L37.1,44.5z M39.7,33.1v8.7h1.8v-9.1h-1.3C40.1,32.9,39.9,33,39.7,33.1L39.7,33.1z M44.5,38.8c1.3-2.6,2.1-5.4,2.6-8.2
	c0.1-0.6,0.2-1.2,0.3-1.9c3.8,0.9,4.1,1.1,4.1,1.4c0,0.4-0.2,0.5-1.1,0.8c-0.5,1.1-1.2,2.3-1.8,3.3h5.9c1.8-2.3,1.9-2.4,2.1-2.4
	s0.4,0,1.7,1.4c0.8,0.8,0.9,1,0.9,1.2s-0.1,0.3-0.4,0.3H48.2c-1,1.5-2.2,3-3.5,4.2c0,0-0.1,0-0.1,0C44.5,39,44.4,38.9,44.5,38.8
	L44.5,38.8z M0.1,33c1.6-1.2,3.8-4.7,4.9-8.7c0.1-0.6,0.2-0.9,0.4-1.5C8.8,24,9,24.1,9,24.5c0,0.3-0.1,0.4-0.9,0.6
	c-0.3,0.8-0.8,1.6-1.3,2.4c0.5,0.8,1.2,1.4,2.1,1.7c0.5,0.2,1,0.3,1.5,0.4v-5c0-0.9,0-1.6-0.1-2.5H3.8c-0.9,0-1.8,0.1-2.7,0.2
	l-0.2-0.8c1.2,0.1,2.2,0.2,3,0.2h14.3c1.7-2.1,1.7-2.1,1.9-2.1s0.3,0,1.6,1.3c0.9,0.8,0.9,0.9,0.9,1.1c0,0.1,0,0.1-0.1,0.2
	c0,0-0.1,0.1-0.2,0.1H14c0,0.2-0.1,0.3-0.5,0.5V26h2.9c1.6-2,1.6-2,1.8-2c0.3,0,0.3,0,1.6,1.2c0.8,0.8,0.9,0.8,0.9,1
	c0,0.1,0,0.1-0.1,0.2c0,0-0.1,0.1-0.2,0.1h-7v3.4c0.8,0,1.8,0,2.9,0c2.3,0,4.5-0.1,6.7-0.4c0.1,0,0.2,0.2,0,0.3
	c-1,0.5-1.7,1.5-1.9,2.7c0,0.3-0.3,0.6-0.7,0.6c-1.3,0.1-2.5,0.1-3.8,0.1c-3.7,0-6-0.6-7.6-1.6c-1.4-0.8-2.3-2.2-2.7-3.7
	c-1.6,2.3-3.8,4.1-6.3,5.3c0,0,0,0-0.1,0c-0.1,0-0.1,0-0.2-0.1C0,33.1,0,33,0.1,33L0.1,33z M42.3,19.8c0-0.9,0-2.7,0-3.6
	c0-0.8,0-1.6-0.1-2.4c3.2,0.3,3.7,0.6,3.7,0.9c0,0.2-0.1,0.4-0.7,0.7v3.1c0,0.8,0.2,1,2.4,1c2.7,0,3.4-0.3,4.1-1
	c0.8-1,1.5-2.1,1.8-3.4c0-0.1,0.2-0.1,0.2,0c-0.1,1.6-0.2,2.5-0.2,3c0,0.4,0.1,0.8,0.5,1.1c0.3,0.3,0.5,0.7,0.5,1.1
	c0,1.1-0.7,1.9-7,1.9C42.7,22.2,42.3,21.6,42.3,19.8L42.3,19.8z M37.4,20.7c-0.3-0.3-0.5-0.7-0.5-1.1c0-0.7,0.4-1.4,1-1.7
	c1.3-0.6,2.1-2,2-3.4c0-0.1,0.2-0.1,0.3,0c0.6,1.2,0.9,2.6,0.9,4c0,0.7-0.2,1.4-0.7,1.9s-1.2,0.8-1.9,0.8h-0.1
	C38.1,21.2,37.7,21,37.4,20.7L37.4,20.7z M5,20.1C5,19.6,5,17.7,5,14.9c0-1.2,0-2.7-0.1-3.7c2.6,0.5,3.3,0.8,3.5,1h6.4
	c1.1-1.3,1.2-1.3,1.5-1.3c0.2,0,0.4,0,1.6,0.9c1,0.8,1.1,0.9,1.1,1.1c0,0.2,0,0.2-0.6,0.7v2.2c0,2.1,0.1,3.1,0.1,3.5
	c0,0.7-0.7,1.1-2.1,1.1c-1,0-1.1-0.1-1.1-0.8v-0.5H8v0.8c0,0.7-0.6,1-2,1C5.2,20.8,5,20.7,5,20.1L5,20.1z M8,18.6h7.2v-2.8H8V18.6z
	 M8,12.9v2.4h7.2v-2.7H8.4C8.3,12.8,8.1,12.9,8,12.9L8,12.9z M57,19.7c-0.8,0-1.4-0.6-1.5-1.6c0-1.5-0.6-2.9-1.7-3.8
	c-0.1,0-0.1-0.1-0.1-0.2c0-0.1,0.1-0.1,0.2-0.1c0,0,0,0,0,0c3,0.3,5,1.7,5,3.7l0,0c0.1,0.5-0.1,1-0.5,1.4
	C58.1,19.5,57.6,19.7,57,19.7L57,19.7z M48.1,17.5c-0.3-0.2-0.4-0.6-0.4-1c-0.1-1.1-0.6-2.1-1.5-2.8c-0.1-0.1-0.1-0.2,0.1-0.2
	c3.3,0,4.4,1.3,4.4,2.6l0,0c0,0.4-0.2,0.9-0.5,1.2c-0.3,0.3-0.7,0.5-1.2,0.5c0,0-0.1,0-0.1,0C48.7,17.8,48.4,17.7,48.1,17.5
	L48.1,17.5z M41,12.8c0-0.5,0-1.7,0.1-4.4V7.9c-1.3,1.6-3,3-4.8,3.9c-0.1,0.1-0.3-0.1-0.2-0.2c1.7-1.3,3.6-5,4.1-7.4h-0.9
	c-0.8,0-1.6,0.1-2.4,0.2l-0.2-0.8c0.9,0.1,1.8,0.2,2.7,0.2h1.8c0-1.2,0-2.5-0.1-3.7c3.4,0.3,3.6,0.4,3.6,0.8c0,0.2-0.1,0.5-0.9,0.7
	v2.2H44C45.1,2.1,45.2,2,45.4,2s0.3,0,1.1,0.9c0.7,0.7,0.7,0.8,0.7,1c0,0.2-0.1,0.3-0.2,0.3h-3.2v1.5c2.3,0.1,3.4,1.2,3.4,2.4
	c0,0.4-0.1,0.7-0.4,1c-0.3,0.3-0.6,0.4-1,0.4c-0.6,0-1-0.3-1.1-1.2c0-0.9-0.4-1.7-1-2.3c0,5.1,0.1,6.1,0.1,6.5
	c0,0.6-0.7,0.9-1.8,0.9C41.2,13.5,41,13.3,41,12.8L41,12.8z M47.4,12.7c0-0.4,0.1-2.6,0.1-6.5c0-3.7,0-4.5-0.1-5.5
	c2.4,0.6,3.1,0.7,3.3,1h3.4c1.1-1.2,1.1-1.2,1.3-1.2c0.3,0,0.4,0,1.4,0.8c1,0.8,1.1,0.9,1.1,1.1s-0.1,0.3-0.7,0.8v2.4
	c0,4.6,0.1,6.3,0.1,6.5c0,0.7-0.7,1-2,1c-0.7,0-0.9-0.2-0.9-0.8v-0.7h-4.1v0.7c0,0.7-0.6,1-1.8,1C47.6,13.3,47.5,13.1,47.4,12.7
	L47.4,12.7z M50.3,11.1h4.1V8.4h-4.1V11.1z M50.3,7.9h4.1V5.3h-4.1V7.9z M50.3,2.3v2.5h4.1V2.1h-3.7C50.5,2.2,50.4,2.3,50.3,2.3
	L50.3,2.3z"/>
</svg>
