<?xml version="1.0" encoding="utf-8"?>
<!-- Generator: Adobe Illustrator 19.2.1, SVG Export Plug-In . SVG Version: 6.00 Build 0)  -->
<svg version="1.1" id="圖層_1" xmlns="http://www.w3.org/2000/svg" xmlns:xlink="http://www.w3.org/1999/xlink" x="0px" y="0px"
	 viewBox="0 0 220.5 41" style="enable-background:new 0 0 220.5 41;" xml:space="preserve">
<style type="text/css">
	.st0{fill:#242E5F;}
</style>
<path class="st0" d="M12.7,38.9c-2.4-1-4.5-2.5-6.4-4.3c-1.8-1.8-3.3-4-4.3-6.4c-1-2.5-1.6-5.1-1.6-7.8c0-2.7,0.5-5.3,1.6-7.8
	c1-2.4,2.5-4.5,4.3-6.4c1.8-1.8,4-3.3,6.4-4.3c2.5-1,5.1-1.6,7.8-1.6c2.7,0,5.3,0.5,7.8,1.6c2.4,1,4.5,2.5,6.4,4.3
	c1.8,1.8,3.3,4,4.3,6.4c1,2.5,1.6,5.1,1.6,7.8c0,2.7-0.5,5.3-1.6,7.8c-1,2.4-2.5,4.5-4.3,6.4c-1.8,1.8-4,3.3-6.4,4.3
	c-2.5,1-5.1,1.6-7.8,1.6C17.8,40.5,15.2,40,12.7,38.9z M12.9,2.5c-2.3,1-4.4,2.4-6.2,4.2c-1.8,1.8-3.2,3.9-4.2,6.2
	c-1,2.4-1.5,5-1.5,7.6c0,2.6,0.5,5.2,1.5,7.6c1,2.3,2.4,4.4,4.2,6.2c1.8,1.8,3.9,3.2,6.2,4.2c2.4,1,5,1.5,7.6,1.5
	c2.6,0,5.2-0.5,7.6-1.5c2.3-1,4.4-2.4,6.2-4.2c1.8-1.8,3.2-3.9,4.2-6.2c1-2.4,1.5-5,1.5-7.6c0-2.6-0.5-5.2-1.5-7.6
	c-1-2.3-2.4-4.4-4.2-6.2c-1.8-1.8-3.9-3.2-6.2-4.2c-2.4-1-5-1.5-7.6-1.5C17.9,1,15.3,1.5,12.9,2.5L12.9,2.5z M13.5,37.1
	c-2.1-0.9-4.1-2.2-5.7-3.9c-1.6-1.6-3-3.6-3.9-5.7c-0.9-2.2-1.4-4.6-1.4-7c0-2.4,0.5-4.8,1.4-7c0.9-2.1,2.2-4.1,3.9-5.7
	c1.6-1.6,3.6-3,5.7-3.9c2.2-0.9,4.6-1.4,7-1.4c2.4,0,4.8,0.5,7,1.4c2.1,0.9,4.1,2.2,5.7,3.9c1.6,1.6,3,3.6,3.9,5.7
	c0.9,2.2,1.4,4.6,1.4,7c0,2.4-0.5,4.8-1.4,7c-0.9,2.1-2.2,4.1-3.9,5.7c-1.6,1.6-3.6,3-5.7,3.9c-2.2,0.9-4.6,1.4-7,1.4
	C18.1,38.5,15.7,38,13.5,37.1L13.5,37.1z M12.4,30.8c1.2,0.5,2.6,0.8,3.9,0.8c2.4,0.1,4.7-0.6,6.5-2c1.4-1.1,2.3-2.7,2.3-4.5
	c0-1.9-0.9-3.6-2.4-4.7L20.3,18c-1.1-1-2.2-2.2-2.2-4c0-2.1,1.8-3.6,4.5-3.6c1.1,0,2.1,0.3,3,0.9c1,0.7,1.6,1.8,1.5,2.9
	c0,0.6-0.1,1.1-0.2,1.7l0,0.1h0.4l2-5.6l-0.4-0.1c-0.1,0.5-0.6,0.8-1.1,0.8c-0.6,0-1.2-0.2-1.7-0.4c-1.1-0.4-2.2-0.6-3.4-0.7
	c-1.9,0-3.8,0.5-5.4,1.6c-1.4,0.9-2.2,2.4-2.2,4c0,2.2,1.2,3.8,2.9,5.3l2.1,1.9c1.1,0.9,1.8,2.2,1.8,3.6c0,1.3-0.5,2.5-1.4,3.4
	c-1.1,0.9-2.6,1.4-4,1.3c-1.2,0-2.3-0.4-3.3-1c-1-0.7-1.7-1.8-1.7-3c0-0.6,0.2-1.2,0.4-1.7v0h-0.4l-2.1,5.8l0.4,0.1
	c0.1-0.5,0.6-0.9,1.1-0.9C11.3,30.4,11.9,30.6,12.4,30.8L12.4,30.8z M29.1,20.3L29.1,20.3c-0.2,0.4-0.4,0.8-0.7,1.2l-0.1,0.1
	c0,0.1-0.1,0.1-0.1,0.2c-0.3,0.3-0.5,0.7-0.5,1.1c0,0.4,0.4,0.8,0.8,0.8c0,0,0,0,0.1,0c0.5,0,0.9-0.4,0.9-0.9c0,0,0,0,0-0.1
	c0-0.2,0-0.5-0.1-0.7l0-0.2C29.1,21.4,29.1,20.9,29.1,20.3L29.1,20.3c0.4,0.5,0.7,1,0.9,1.6c0.2,0.7,0.4,1.2,1.1,1.2
	c0.5,0,0.9-0.4,0.9-0.9c0-0.4-0.3-0.7-0.8-0.9c-0.7-0.2-1.3-0.6-2-1c0.2,0,0.4,0,0.6,0c0.4,0,0.8,0,1.2,0.1c0.1,0,0.1,0,0.2,0
	c0.2,0,0.4,0,0.5,0.1c0.5,0,0.9-0.3,0.9-0.8c0,0,0-0.1,0-0.1c0-0.5-0.4-0.9-0.9-0.9c-0.5,0.1-0.9,0.3-1.2,0.7
	c-0.4,0.4-0.8,0.7-1.3,0.9c0.2-0.5,0.5-0.9,0.8-1.3c0-0.1,0.1-0.1,0.1-0.2c0.3-0.3,0.5-0.7,0.5-1.1c0-0.4-0.4-0.8-0.8-0.8
	c0,0,0,0-0.1,0c-0.5,0-0.9,0.4-0.9,0.9c0,0,0,0,0,0.1c0,0.2,0,0.5,0.1,0.7l0,0.2c0.1,0.5,0.1,1,0.1,1.6c-0.3-0.5-0.6-1-0.8-1.5
	c-0.3-0.7-0.4-1.2-1.1-1.2c-0.5,0-0.9,0.4-0.9,0.9c0,0,0,0,0,0c0,0.4,0.3,0.7,0.8,0.9C27.8,19.5,28.4,19.8,29.1,20.3
	c-0.2,0-0.4,0-0.6,0c-0.4,0-0.8,0-1.2-0.1c-0.1,0-0.1,0-0.2,0c-0.2,0-0.4-0.1-0.5-0.1c-0.5,0-0.9,0.3-0.9,0.8c0,0,0,0.1,0,0.1
	c0,0.5,0.4,0.9,0.9,0.9c0.5-0.1,0.9-0.3,1.2-0.7C28.1,20.8,28.6,20.5,29.1,20.3L29.1,20.3z M50.6,32.5c-0.7,0-1.2,0.5-1.4,1.2
	l-0.5-0.1l2.6-7.2h0.5c-0.3,0.7-0.4,1.4-0.5,2.1c0,3.3,3.5,5,6.2,5c4.2,0,6.7-2.3,6.7-5.8c0-1.7-0.8-3.4-2.2-4.5l-2.6-2.3
	c-2.3-2.1-3.6-3.9-3.6-6.6c0-3.9,4.2-7,9.3-7c3.1,0,4.7,1.3,6.3,1.3c0.6,0,1.1-0.4,1.3-0.9l0.5,0.1l-2.5,6.9h-0.4
	c0.2-0.7,0.3-1.4,0.3-2.1c0-3.3-3.2-4.7-5.5-4.7c-3.2,0-5.5,1.8-5.5,4.4c0,2.2,1.3,3.6,2.7,4.9l3.2,2.9c1.7,1.5,3,3.1,3,5.8
	c0,4.1-4,8.1-10.9,8.1C53.7,34,52.5,32.5,50.6,32.5L50.6,32.5z M187,28.4c0-4.3,4.8-10.8,10.2-10.8c2.6,0,4.6,1,4.6,3
	c0,3.9-6.7,4.5-8.6,4.5c-0.5,0-1,0-1.5-0.1c-0.6,1.7-0.9,3.4-1,5.1c0,2.3,1.1,3.2,2.8,3.2c3.2,0,5.1-2.8,5.8-3.7l0.4,0.3
	c-0.5,0.7-2.5,4.1-6.8,4.1C189.3,34,187,31.6,187,28.4L187,28.4z M191.9,24.5c0.4,0,0.7,0.1,1.1,0.1c3.2,0,5.5-2.2,5.5-4.9
	c0-1-0.5-1.6-1.4-1.6C194.6,18.1,192.7,22,191.9,24.5L191.9,24.5z M175.6,31.3c0-0.7,0.2-1.4,0.5-2.1l3.9-10.6h-3.1l0.1-0.5h3.1
	l1.3-3.5h3.7l-1.3,3.5h3.7l-0.1,0.5h-3.7l-4.1,11.3c-0.3,0.7-0.4,1.4-0.5,2.1c0,0.6,0.4,1.1,1,1.1c0,0,0.1,0,0.1,0
	c1.5,0,2.8-1.9,3.2-2.9l0.4,0.2c-0.7,2.2-2.8,3.6-5.1,3.6C176.9,34,175.6,33,175.6,31.3L175.6,31.3z M160.6,30.7
	c-0.1-1.1,0.7-2,1.8-2.1c0.1,0,0.2,0,0.2,0c0.6,0,1.1,0.4,1.1,1c0,0,0,0.1,0,0.1c0,0.7-0.4,1.5-0.4,2.2c0,0.9,0.6,1.6,1.5,1.6
	c0.1,0,0.2,0,0.3,0c1.6,0.1,3-1.1,3.2-2.7c0-0.9-0.3-1.9-0.9-2.6l-1.7-2.3c-0.9-1-1.4-2.2-1.4-3.5c0-2.6,3-4.8,6.1-4.8
	c2.1,0,3.9,1.1,3.9,2.8c0.1,0.9-0.6,1.8-1.5,1.9c-0.1,0-0.2,0-0.3,0c-0.7,0.1-1.4-0.5-1.5-1.2c0-0.1,0-0.1,0-0.2
	c0-0.8,0.6-1.2,0.6-1.7s-0.4-1-1.3-1c-1.5-0.1-2.8,1-2.9,2.4c0,0,0,0,0,0c0,1.1,0.4,2.2,1.2,3l2.1,2.8c0.6,0.8,0.9,1.7,1,2.7
	c0,3.2-4,4.9-6.7,4.9C162.7,34,160.6,32.8,160.6,30.7L160.6,30.7z M151.8,31.6c0-0.6,0.1-1.3,0.3-1.9H152c-1.2,1.6-3.3,4.2-5.9,4.2
	c-2.3,0-4-1.6-4-4.7c0-5.9,6.6-11.7,10.9-11.7c1.3,0,2.4,1,2.4,2.3c0,0,0,0,0,0h0l0.7-1.9h3.7L156,29c-0.4,1-0.7,2.1-0.8,3.2
	c0,0.6,0.3,0.9,0.8,0.9c1.8,0,3-2.4,3.2-3l0.4,0.2c-0.7,2.2-2.8,3.7-5.1,3.7C152.8,34,151.8,33.1,151.8,31.6L151.8,31.6z
	 M145.9,31.2c0,1.4,0.3,2,1.2,2c1.9,0,5-3.8,5.5-5.3l1.8-5c0.3-0.8,0.6-1.7,0.6-2.5c0.1-1-0.6-2-1.6-2.1c-0.1,0-0.2,0-0.3,0
	C149.6,18.3,145.9,27.2,145.9,31.2L145.9,31.2z M130.8,31.3c0-0.7,0.2-1.4,0.5-2.1l3.9-10.6H132l0.1-0.5h3.1l1.3-3.5h3.7l-1.3,3.5
	h3.7l-0.1,0.5h-3.7l-4.1,11.3c-0.3,0.7-0.4,1.4-0.5,2.1c0,0.6,0.4,1.1,1,1.1c0,0,0.1,0,0.1,0c1.5,0,2.8-1.9,3.2-2.9l0.4,0.2
	c-0.7,2.2-2.8,3.6-5.1,3.6C132,34,130.7,33,130.8,31.3L130.8,31.3z M114.6,28.4c0-4.3,4.8-10.8,10.2-10.8c2.6,0,4.6,1,4.6,3
	c0,3.9-6.7,4.5-8.6,4.5c-0.5,0-1,0-1.5-0.1c-0.6,1.7-0.9,3.4-1,5.1c0,2.3,1.1,3.2,2.8,3.2c3.2,0,5.1-2.8,5.8-3.7l0.4,0.3
	c-0.5,0.7-2.5,4.1-6.8,4.1C116.9,34,114.6,31.6,114.6,28.4L114.6,28.4z M119.5,24.5c0.4,0,0.7,0.1,1.1,0.1c3.2,0,5.5-2.2,5.5-4.9
	c0-1-0.5-1.6-1.4-1.6C122.2,18.1,120.3,22,119.5,24.5L119.5,24.5z M99,28.4c0-4.3,4.8-10.8,10.2-10.8c2.6,0,4.6,1,4.6,3
	c0,3.9-6.7,4.5-8.6,4.5c-0.5,0-1,0-1.5-0.1c-0.6,1.7-0.9,3.4-1,5.1c0,2.3,1.1,3.2,2.8,3.2c3.2,0,5.1-2.8,5.8-3.7l0.4,0.3
	c-0.5,0.7-2.5,4.1-6.8,4.1C101.3,34,99,31.6,99,28.4L99,28.4z M103.9,24.5c0.4,0,0.7,0.1,1.1,0.1c3.2,0,5.5-2.2,5.5-4.9
	c0-1-0.5-1.6-1.4-1.6C106.6,18.1,104.7,22,103.9,24.5L103.9,24.5z M86.4,33.7c0.3-0.5,0.4-1.1,0.4-1.7c-0.1-0.7-0.3-1.4-0.6-2
	l-0.9-2c-0.2-0.5-0.4-0.9-0.6-1.4c-0.7,0.6-1.4,1.2-2.1,1.8l-1.8,1.5c-1.1,0.9-1.7,1.5-2.5,2.2c-0.6,0.6-1.1,1.2-1.6,1.9l-0.4-0.3
	c0.3-0.5,0.4-1.1,0.4-1.7c-0.1-0.7-0.3-1.4-0.6-2l-0.9-2c-0.5-1-0.9-2.2-1-3.3c0-2.5,1.9-4.8,4.4-6.8l0.7-0.6l0.3,0.4
	c-1.4,1.1-2.2,2.7-2.1,4.5c0,1.6,1,4,1.8,5.6c0.4,0.6,0.6,1.3,0.7,2.1c3.5-2.8,4.8-4.8,4.8-7c0-1.5-0.8-2.1-0.8-3.5
	c0-1,0.9-1.8,1.9-1.8c0,0,0.1,0,0.1,0c0.8,0,1.5,0.4,1.8,1.1l0.9-0.8l0.7-0.6l0.3,0.4c-1.4,1.1-2.2,2.7-2.1,4.5c0,1.6,1,4,1.8,5.6
	c0.4,0.6,0.6,1.3,0.7,2.1c3.5-2.8,4.5-4.8,4.5-7c0-1.5-0.8-2.1-0.8-3.5c0-1,0.9-1.8,1.9-1.8c0,0,0.1,0,0.1,0c1.6,0,2.2,1.4,2.2,2.8
	c0,3.3-2.9,6-5.3,8l-1.8,1.5c-1.1,0.9-1.7,1.5-2.4,2.2c-0.6,0.6-1.1,1.2-1.6,1.9L86.4,33.7z M209.1,20.7c0-1.1,0.9-2,1.5-2.8
	c0.8-0.8,1.4-1.8,1.8-2.8c-1.1,0.4-2.1,1-2.9,1.8c-0.9,0.8-1.8,1.5-2.7,1.5c-1.1-0.1-1.9-0.9-1.9-2c0-1,0.7-1.8,1.8-1.9
	c0.1,0,0.2,0,0.3,0c0.5,0,1.1,0.1,1.6,0.2c1.2,0.2,2.5,0.3,3.8,0.1c-1.3-0.9-2.7-1.5-4.2-2.1c-1.2-0.5-1.7-1.2-1.7-1.9
	c0-1.1,0.8-2,1.9-2c2.5,0,1.9,2.9,4.1,5.8c0.2-1.1,0.1-2.2-0.1-3.3c-0.1-0.7-0.2-1.3-0.3-2c0-1.1,0.8-1.9,1.8-2c0,0,0.1,0,0.1,0
	c0.9-0.1,1.8,0.6,1.8,1.6c0,0,0,0.1,0,0.1c0,1.1-0.9,2-1.5,2.8c-0.8,0.8-1.4,1.8-1.8,2.8c1.1-0.4,2.1-1,2.9-1.8
	c0.9-0.8,1.8-1.5,2.7-1.5c1.1,0.1,1.9,0.9,1.9,2c0,1-0.7,1.8-1.8,1.9c-0.1,0-0.2,0-0.3,0c-0.5,0-1.1-0.1-1.6-0.2
	c-1.2-0.2-2.5-0.3-3.8-0.1c1.3,0.8,2.7,1.5,4.2,2.1c1.2,0.5,1.7,1.2,1.7,1.9c0,1.1-0.8,2-1.9,2c-2.5,0-1.9-2.9-4.1-5.8
	c-0.2,1.1-0.1,2.2,0.1,3.3c0.1,0.7,0.2,1.3,0.3,2c0,1.1-0.8,1.9-1.8,2c0,0-0.1,0-0.1,0c-0.9,0.1-1.8-0.6-1.9-1.5
	C209,20.9,209,20.8,209.1,20.7L209.1,20.7z"/>
</svg>
